M48
;GenerationSoftware,Autodesk,EAGLE,9.7.0*%
;CreationDate,2026-04-10T20:25:27Z*%
FMAT,2
ICI,OFF
METRIC,TZ,000.000
T8C0.150
T7C0.200
T6C0.300
T5C0.559
T4C0.650
T3C0.700
T2C1.067
T1C2.451
%
G90
M71
T1
X17252Y140
X17252Y-4940
X14077Y140
X14077Y-4940
T2
X14077Y-2400
X19157Y-1384
X19157Y-3416
T3
X2890Y12550
X-2890Y12550
T4
X-4320Y12050
X4320Y12050
X-4320Y16200
X4320Y16200
T5
X-9152Y-14581
X-12848Y-14581
X9152Y-14581
X12848Y-14581
X1948Y-14581
X-1748Y-14581
T6
X-22100Y10300
X-14600Y9700
X-1300Y-1500
X-21800Y12500
X-17400Y9100
X-17400Y11100
X-18100Y7600
X-20800Y14600
X-100Y900
X-1300Y900
X-1300Y2100
X-100Y2100
X1100Y2100
X2300Y2100
X2300Y900
X1100Y900
X-1300Y-300
X-100Y-300
X1100Y-300
X2300Y-300
X2300Y-1500
X1100Y-1500
X-100Y-1500
T7
X1000Y13517
X-800Y13517
X-2600Y13517
X-4400Y13517
X-15200Y13517
X-17000Y13517
X19900Y11958
X10900Y11958
X9100Y11958
X7300Y11958
X-16100Y11958
X-17900Y11958
X20800Y10400
X15400Y10400
X13600Y10400
X10000Y10400
X21700Y8841
X19900Y8841
X16300Y8841
X12700Y8841
X9100Y8841
X3700Y8841
X1900Y8841
X-8900Y8841
X11800Y7282
X-4400Y7282
X-11600Y7282
X-13400Y7282
X12700Y5723
X10900Y5723
X9100Y5723
X7300Y5723
X-8900Y5723
X-10700Y5723
X-14300Y5723
X11800Y4164
X10000Y4164
X-13400Y4164
X16300Y2606
X-14300Y2606
X19000Y1047
X6400Y1047
X-13400Y1047
X21700Y-512
X19900Y-512
X9100Y-512
X7300Y-512
X5500Y-512
X-14300Y-512
X20800Y-2071
X11800Y-2071
X21700Y-3630
X9100Y-3630
X20800Y-5188
X19000Y-5188
X-6200Y-5188
X21700Y-6747
X19900Y-6747
X14500Y-6747
X12700Y-6747
X10900Y-6747
X7300Y-6747
X5500Y-6747
X-3500Y-6747
X-5300Y-6747
X-7100Y-6747
X-8900Y-6747
X-10700Y-6747
X10000Y-8306
X8200Y-8306
X6400Y-8306
X2800Y-8306
X1000Y-8306
X-9800Y-8306
X-13400Y-8306
X-18800Y-8306
X21700Y-9865
X19900Y-9865
X16300Y-9865
X14500Y-9865
X12700Y-9865
X10900Y-9865
X9100Y-9865
X3700Y-9865
X1900Y-9865
X100Y-9865
X-1700Y-9865
X-3500Y-9865
X-17900Y-9865
X-19700Y-9865
X20800Y-11424
X11800Y-11424
X10000Y-11424
X6400Y-11424
X4600Y-11424
X2800Y-11424
X1000Y-11424
X-2600Y-11424
X5500Y-16100
X3700Y-16100
X-14300Y-16100
X-17900Y-16100
X7300Y-16100
X14500Y-16100
X16300Y-16100
X18100Y-16100
X-11600Y-14541
X-2600Y-14541
X-800Y-14541
X1000Y-14541
X2800Y-14541
X8200Y-14541
X10000Y-14541
X11800Y-14541
X15400Y-14541
X17200Y-14541
X19000Y-14541
X-14300Y-12982
X-8900Y-12982
X-5300Y-12982
X3700Y-12982
X5500Y-12982
X7300Y-12982
X14500Y-12982
X16300Y-12982
X18100Y-12982
X19900Y-12982
X-14700Y10600
X2800Y13517
X-7000Y-1600
X8200Y16635
X6400Y16635
X2800Y16635
X1000Y16635
X-800Y16635
X-2600Y16635
X3700Y15076
X1900Y15076
X100Y15076
X-1700Y15076
X-3500Y15076
X-10700Y15076
X8200Y13517
X6400Y13517
X4600Y13517
X12700Y2606
T8
X0Y-2450
X-4100Y-2900
X-2250Y800
X-3900Y1600
X-9700Y900
X-10300Y300
X-100Y-4900
X-11200Y700
X-3000Y10000
X-5200Y10000
X-1300Y-6300
X8900Y6300
X3600Y-14800
X-4800Y-16700
X-14300Y-15600
X-3600Y3050
X-7600Y1700
X-13000Y8900
X10300Y-4900
X1300Y-3900
X-3200Y-2300
X2700Y4300
X12900Y-11000
X7800Y-11800
X15500Y5400
X-6950Y2650
X7000Y2200
X6800Y3300
X-1250Y-3600
X-6000Y16600
X-1750Y-3700
X-9600Y16000
X17500Y10200
X-4400Y-400
X-2250Y-200
X-4000Y500
X500Y4800
X-13900Y-9900
X17200Y-2500
X11900Y-2600
X5400Y900
X5300Y2500
X3100Y3100
X-2000Y3800
X-11600Y-11800
X-20200Y-10300
X5450Y3550
X8900Y4000
X5500Y2900
X7100Y1450
X-2400Y2800
X-3800Y4200
X-3200Y6400
X19200Y10800
X-2700Y2100
X-3950Y4850
X-4200Y6000
X3200Y7000
X-11000Y-12200
X-500Y-2450
X-450Y-7650
X-450Y-3350
X3250Y-1700
X3300Y-3800
X8650Y-1550
X9600Y-7700
X-16500Y16000
X-7900Y5900
X-3300Y1500
X-2250Y-700
X500Y-2450
X3800Y-4200
X16400Y-7000
X18600Y-2400
X-8300Y1300
X-7200Y9200
X10200Y7300
X-1700Y7300
X-4300Y9200
X-5400Y8200
X-8300Y7600
X-2250Y300
X-5100Y7000
X-14600Y17050
X-10600Y14300
X-10300Y12100
X-11400Y11700
X-11300Y9600
X-6400Y9200
X-6500Y4200
X-20500Y13300
X-17500Y14300
X18800Y9800
X7100Y9100
X-9000Y11200
X10200Y-7100
X11200Y-8100
X-14200Y15100
X-14200Y12900
X-9600Y11800
X-5500Y-5700
X-100Y4800
X-8600Y600
X-6500Y2200
X-3200Y2000
X-8900Y-12300
X5700Y10500
X6600Y11700
X-13700Y13500
X-13200Y15200
X5600Y-8000
X2600Y-12400
X15100Y12800
X12800Y12800
X-13400Y4800
X-4850Y5600
X-11000Y2800
X-13300Y-100
X500Y3050
X-4850Y4800
X-11000Y2200
X-11100Y-700
X-8700Y-11000
X-13200Y-5600
X-14300Y-7800
X-13300Y5300
X300Y-4200
X-9600Y1700
X5600Y-9400
X-7700Y-2400
X-15700Y-13700
X-15700Y-10900
X-13400Y-1750
X6200Y7750
M30