G04 EAGLE Gerber RS-274X export*
G75*
%MOMM*%
%FSLAX34Y34*%
%LPD*%
%INCopper Layer 2*%
%IPPOS*%
%AMOC8*
5,1,8,0,0,1.08239X$1,22.5*%
G01*
G04 Define Apertures*
%ADD10C,1.158000*%
%ADD11C,1.066800*%
%ADD12C,0.808000*%
%ADD13C,0.300000*%
%ADD14C,0.350000*%
%ADD15C,0.450000*%
G36*
X-137227Y-172178D02*
X-137524Y-172238D01*
X-160000Y-172238D01*
X-160088Y-172233D01*
X-175361Y-170455D01*
X-175520Y-170419D01*
X-187662Y-166258D01*
X-187792Y-166200D01*
X-191505Y-164089D01*
X-191511Y-164085D01*
X-198898Y-159790D01*
X-199014Y-159707D01*
X-205696Y-153922D01*
X-205702Y-153917D01*
X-207237Y-152561D01*
X-207317Y-152480D01*
X-213906Y-144636D01*
X-213927Y-144610D01*
X-217178Y-140370D01*
X-217256Y-140245D01*
X-222695Y-129288D01*
X-222745Y-129157D01*
X-226084Y-117389D01*
X-226109Y-117251D01*
X-227093Y-106602D01*
X-227235Y-105070D01*
X-227238Y-105000D01*
X-227238Y-73762D01*
X-227187Y-73487D01*
X-227023Y-73232D01*
X-226773Y-73060D01*
X-226476Y-73000D01*
X-158053Y-73000D01*
X-158011Y-72994D01*
X-158009Y-72993D01*
X-158000Y-72938D01*
X-158012Y-71239D01*
X-157957Y-70948D01*
X-157789Y-70695D01*
X-157238Y-70144D01*
X-157238Y70144D01*
X-158856Y71762D01*
X-178420Y71762D01*
X-178684Y71809D01*
X-178942Y71968D01*
X-179117Y72216D01*
X-179182Y72512D01*
X-179127Y72810D01*
X-178959Y73063D01*
X-177480Y74542D01*
X-177480Y77458D01*
X-179542Y79520D01*
X-182458Y79520D01*
X-184520Y77458D01*
X-184520Y74542D01*
X-183041Y73063D01*
X-182888Y72843D01*
X-182818Y72548D01*
X-182869Y72249D01*
X-183032Y71994D01*
X-183282Y71822D01*
X-183580Y71762D01*
X-226238Y71762D01*
X-226513Y71813D01*
X-226768Y71977D01*
X-226940Y72227D01*
X-227000Y72524D01*
X-227000Y107183D01*
X-226996Y107266D01*
X-225672Y119408D01*
X-225636Y119569D01*
X-221039Y133176D01*
X-220964Y133335D01*
X-213637Y145081D01*
X-213549Y145196D01*
X-213506Y145242D01*
X-213476Y145273D01*
X-212810Y145913D01*
X-212601Y146056D01*
X-212306Y146126D01*
X-212007Y146075D01*
X-211752Y145911D01*
X-211580Y145661D01*
X-211520Y145364D01*
X-211520Y144542D01*
X-209458Y142480D01*
X-206542Y142480D01*
X-204480Y144542D01*
X-204480Y147458D01*
X-206542Y149520D01*
X-207167Y149520D01*
X-207445Y149572D01*
X-207699Y149737D01*
X-207870Y149987D01*
X-207929Y150285D01*
X-207868Y150582D01*
X-207695Y150831D01*
X-199264Y158938D01*
X-199187Y159003D01*
X-192829Y163667D01*
X-192672Y163755D01*
X-178856Y169535D01*
X-178691Y169583D01*
X-163895Y172119D01*
X-163787Y172130D01*
X-159972Y172238D01*
X-159950Y172238D01*
X-149532Y172238D01*
X-149257Y172187D01*
X-149002Y172023D01*
X-148830Y171773D01*
X-148770Y171476D01*
X-148770Y169353D01*
X-147147Y167730D01*
X-144853Y167730D01*
X-143230Y169353D01*
X-143230Y171476D01*
X-143179Y171751D01*
X-143015Y172006D01*
X-142765Y172178D01*
X-142468Y172238D01*
X93280Y172238D01*
X93535Y172194D01*
X93795Y172038D01*
X93973Y171793D01*
X94042Y171497D01*
X94998Y137074D01*
X95016Y136993D01*
X95042Y136954D01*
X105977Y125025D01*
X105981Y125021D01*
X106003Y125010D01*
X106062Y125000D01*
X223254Y125000D01*
X223573Y124930D01*
X223818Y124750D01*
X223973Y124490D01*
X225529Y120044D01*
X225567Y119878D01*
X227233Y105085D01*
X227238Y105000D01*
X227238Y-105000D01*
X227233Y-105085D01*
X225567Y-119878D01*
X225529Y-120044D01*
X220612Y-134095D01*
X220538Y-134248D01*
X212618Y-146853D01*
X212512Y-146986D01*
X201986Y-157512D01*
X201853Y-157618D01*
X189248Y-165538D01*
X189095Y-165612D01*
X175044Y-170529D01*
X174878Y-170567D01*
X160085Y-172233D01*
X160000Y-172238D01*
X137524Y-172238D01*
X137249Y-172187D01*
X136994Y-172023D01*
X136822Y-171773D01*
X136762Y-171476D01*
X136762Y-155856D01*
X136156Y-155250D01*
X136004Y-155033D01*
X135992Y-155007D01*
X135926Y-154972D01*
X135743Y-154837D01*
X135144Y-154238D01*
X84856Y-154238D01*
X84249Y-154845D01*
X84025Y-154992D01*
X84008Y-155007D01*
X83945Y-155110D01*
X83922Y-155097D01*
X83830Y-155264D01*
X83238Y-155856D01*
X83238Y-167932D01*
X83237Y-167976D01*
X83042Y-171283D01*
X82992Y-171513D01*
X82829Y-171768D01*
X82579Y-171940D01*
X82282Y-172000D01*
X27762Y-172000D01*
X27487Y-171949D01*
X27232Y-171785D01*
X27060Y-171535D01*
X27000Y-171238D01*
X27000Y-155052D01*
X26994Y-155012D01*
X26993Y-155009D01*
X26938Y-155000D01*
X26222Y-155000D01*
X25936Y-154944D01*
X25683Y-154777D01*
X25144Y-154238D01*
X-25144Y-154238D01*
X-25751Y-154845D01*
X-25978Y-154995D01*
X-25992Y-155007D01*
X-26055Y-155111D01*
X-26078Y-155096D01*
X-26171Y-155265D01*
X-26762Y-155856D01*
X-26762Y-168695D01*
X-26763Y-168737D01*
X-26918Y-171518D01*
X-26968Y-171751D01*
X-27131Y-172006D01*
X-27381Y-172178D01*
X-27679Y-172238D01*
X-82476Y-172238D01*
X-82751Y-172187D01*
X-83006Y-172023D01*
X-83178Y-171773D01*
X-83238Y-171476D01*
X-83238Y-155856D01*
X-84856Y-154238D01*
X-135144Y-154238D01*
X-136762Y-155856D01*
X-136762Y-171476D01*
X-136813Y-171751D01*
X-136977Y-172006D01*
X-137227Y-172178D01*
G37*
%LPC*%
G36*
X34870Y162762D02*
X42438Y162762D01*
X42438Y170330D01*
X41543Y170330D01*
X38481Y169062D01*
X36138Y166719D01*
X34870Y163657D01*
X34870Y162762D01*
G37*
G36*
X-51530Y162762D02*
X-43962Y162762D01*
X-43962Y170330D01*
X-44857Y170330D01*
X-47919Y169062D01*
X-50262Y166719D01*
X-51530Y163657D01*
X-51530Y162762D01*
G37*
G36*
X-42438Y162762D02*
X-34870Y162762D01*
X-34870Y163657D01*
X-36138Y166719D01*
X-38481Y169062D01*
X-41543Y170330D01*
X-42438Y170330D01*
X-42438Y162762D01*
G37*
G36*
X43962Y162762D02*
X51530Y162762D01*
X51530Y163657D01*
X50262Y166719D01*
X47919Y169062D01*
X44857Y170330D01*
X43962Y170330D01*
X43962Y162762D01*
G37*
G36*
X-61147Y163230D02*
X-58853Y163230D01*
X-57230Y164853D01*
X-57230Y167147D01*
X-58853Y168770D01*
X-61147Y168770D01*
X-62770Y167147D01*
X-62770Y164853D01*
X-61147Y163230D01*
G37*
G36*
X-97147Y157230D02*
X-94853Y157230D01*
X-93230Y158853D01*
X-93230Y161147D01*
X-94853Y162770D01*
X-97147Y162770D01*
X-98770Y161147D01*
X-98770Y158853D01*
X-97147Y157230D01*
G37*
G36*
X-166147Y157230D02*
X-163853Y157230D01*
X-162230Y158853D01*
X-162230Y161147D01*
X-163853Y162770D01*
X-166147Y162770D01*
X-167770Y161147D01*
X-167770Y158853D01*
X-166147Y157230D01*
G37*
G36*
X-44857Y153670D02*
X-43962Y153670D01*
X-43962Y161238D01*
X-51530Y161238D01*
X-51530Y160343D01*
X-50262Y157281D01*
X-47919Y154938D01*
X-44857Y153670D01*
G37*
G36*
X43962Y153670D02*
X44857Y153670D01*
X47919Y154938D01*
X50262Y157281D01*
X51530Y160343D01*
X51530Y161238D01*
X43962Y161238D01*
X43962Y153670D01*
G37*
G36*
X41543Y153670D02*
X42438Y153670D01*
X42438Y161238D01*
X34870Y161238D01*
X34870Y160343D01*
X36138Y157281D01*
X38481Y154938D01*
X41543Y153670D01*
G37*
G36*
X-42438Y153670D02*
X-41543Y153670D01*
X-38481Y154938D01*
X-36138Y157281D01*
X-34870Y160343D01*
X-34870Y161238D01*
X-42438Y161238D01*
X-42438Y153670D01*
G37*
G36*
X-143147Y148230D02*
X-140853Y148230D01*
X-139230Y149853D01*
X-139230Y152147D01*
X-140853Y153770D01*
X-143147Y153770D01*
X-144770Y152147D01*
X-144770Y149853D01*
X-143147Y148230D01*
G37*
G36*
X-176147Y140230D02*
X-173853Y140230D01*
X-172230Y141853D01*
X-172230Y144147D01*
X-173853Y145770D01*
X-176147Y145770D01*
X-177770Y144147D01*
X-177770Y141853D01*
X-176147Y140230D01*
G37*
G36*
X-107147Y140230D02*
X-104853Y140230D01*
X-103230Y141853D01*
X-103230Y144147D01*
X-104853Y145770D01*
X-107147Y145770D01*
X-108770Y144147D01*
X-108770Y141853D01*
X-107147Y140230D01*
G37*
G36*
X-206147Y130230D02*
X-203853Y130230D01*
X-202230Y131853D01*
X-202230Y134147D01*
X-203853Y135770D01*
X-206147Y135770D01*
X-207770Y134147D01*
X-207770Y131853D01*
X-206147Y130230D01*
G37*
G36*
X-143147Y126230D02*
X-140853Y126230D01*
X-139230Y127853D01*
X-139230Y130147D01*
X-140853Y131770D01*
X-143147Y131770D01*
X-144770Y130147D01*
X-144770Y127853D01*
X-143147Y126230D01*
G37*
G36*
X-29994Y120000D02*
X-27806Y120000D01*
X-25785Y120837D01*
X-24237Y122385D01*
X-23400Y124406D01*
X-23400Y126594D01*
X-24237Y128616D01*
X-25785Y130163D01*
X-27806Y131000D01*
X-29994Y131000D01*
X-32016Y130163D01*
X-33563Y128616D01*
X-34400Y126594D01*
X-34400Y124853D01*
X-34445Y124595D01*
X-34602Y124336D01*
X-34848Y124159D01*
X-35144Y124091D01*
X-35442Y124145D01*
X-35697Y124310D01*
X-35866Y124561D01*
X-36138Y125219D01*
X-38481Y127562D01*
X-41543Y128830D01*
X-42438Y128830D01*
X-42438Y121262D01*
X-34870Y121262D01*
X-34870Y121852D01*
X-34823Y122116D01*
X-34664Y122374D01*
X-34416Y122549D01*
X-34120Y122614D01*
X-33822Y122559D01*
X-33569Y122391D01*
X-32016Y120837D01*
X-29994Y120000D01*
G37*
G36*
X27806Y120000D02*
X29994Y120000D01*
X32016Y120837D01*
X33569Y122391D01*
X33789Y122544D01*
X34084Y122614D01*
X34383Y122563D01*
X34638Y122400D01*
X34810Y122149D01*
X34870Y121852D01*
X34870Y121262D01*
X42438Y121262D01*
X42438Y128830D01*
X41543Y128830D01*
X38481Y127562D01*
X36138Y125219D01*
X35866Y124561D01*
X35726Y124341D01*
X35481Y124161D01*
X35186Y124091D01*
X34887Y124142D01*
X34632Y124306D01*
X34460Y124556D01*
X34400Y124853D01*
X34400Y126594D01*
X33563Y128616D01*
X32016Y130163D01*
X29994Y131000D01*
X27806Y131000D01*
X25785Y130163D01*
X24237Y128616D01*
X23400Y126594D01*
X23400Y124406D01*
X24237Y122385D01*
X25785Y120837D01*
X27806Y120000D01*
G37*
G36*
X-51530Y121262D02*
X-43962Y121262D01*
X-43962Y128830D01*
X-44857Y128830D01*
X-47919Y127562D01*
X-50262Y125219D01*
X-51530Y122157D01*
X-51530Y121262D01*
G37*
G36*
X43962Y121262D02*
X51530Y121262D01*
X51530Y122157D01*
X50262Y125219D01*
X47919Y127562D01*
X44857Y128830D01*
X43962Y128830D01*
X43962Y121262D01*
G37*
G36*
X-219458Y121480D02*
X-216542Y121480D01*
X-214480Y123542D01*
X-214480Y126458D01*
X-216542Y128520D01*
X-219458Y128520D01*
X-221520Y126458D01*
X-221520Y123542D01*
X-219458Y121480D01*
G37*
G36*
X-104147Y118230D02*
X-101853Y118230D01*
X-100230Y119853D01*
X-100230Y122147D01*
X-101853Y123770D01*
X-104147Y123770D01*
X-105770Y122147D01*
X-105770Y119853D01*
X-104147Y118230D01*
G37*
G36*
X-115147Y114230D02*
X-112853Y114230D01*
X-111230Y115853D01*
X-111230Y118147D01*
X-112853Y119770D01*
X-115147Y119770D01*
X-116770Y118147D01*
X-116770Y115853D01*
X-115147Y114230D01*
G37*
G36*
X-44857Y112170D02*
X-43962Y112170D01*
X-43962Y119738D01*
X-51530Y119738D01*
X-51530Y118843D01*
X-50262Y115781D01*
X-47919Y113438D01*
X-44857Y112170D01*
G37*
G36*
X-42438Y112170D02*
X-41543Y112170D01*
X-38481Y113438D01*
X-36138Y115781D01*
X-34870Y118843D01*
X-34870Y119738D01*
X-42438Y119738D01*
X-42438Y112170D01*
G37*
G36*
X43962Y112170D02*
X44857Y112170D01*
X47919Y113438D01*
X50262Y115781D01*
X51530Y118843D01*
X51530Y119738D01*
X43962Y119738D01*
X43962Y112170D01*
G37*
G36*
X41543Y112170D02*
X42438Y112170D01*
X42438Y119738D01*
X34870Y119738D01*
X34870Y118843D01*
X36138Y115781D01*
X38481Y113438D01*
X41543Y112170D01*
G37*
G36*
X-91147Y109230D02*
X-88853Y109230D01*
X-87230Y110853D01*
X-87230Y113147D01*
X-88853Y114770D01*
X-91147Y114770D01*
X-92770Y113147D01*
X-92770Y110853D01*
X-91147Y109230D01*
G37*
G36*
X-175458Y107480D02*
X-172542Y107480D01*
X-170480Y109542D01*
X-170480Y112458D01*
X-172542Y114520D01*
X-175458Y114520D01*
X-177520Y112458D01*
X-177520Y109542D01*
X-175458Y107480D01*
G37*
G36*
X-148251Y102980D02*
X-145749Y102980D01*
X-143980Y104749D01*
X-143980Y107251D01*
X-145749Y109020D01*
X-148251Y109020D01*
X-150020Y107251D01*
X-150020Y104749D01*
X-148251Y102980D01*
G37*
G36*
X-222458Y99480D02*
X-219542Y99480D01*
X-217480Y101542D01*
X-217480Y104458D01*
X-219542Y106520D01*
X-222458Y106520D01*
X-224520Y104458D01*
X-224520Y101542D01*
X-222458Y99480D01*
G37*
G36*
X173853Y99230D02*
X176147Y99230D01*
X177770Y100853D01*
X177770Y103147D01*
X176147Y104770D01*
X173853Y104770D01*
X172230Y103147D01*
X172230Y100853D01*
X173853Y99230D01*
G37*
G36*
X-31147Y97230D02*
X-28853Y97230D01*
X-27230Y98853D01*
X-27230Y101147D01*
X-28853Y102770D01*
X-31147Y102770D01*
X-32770Y101147D01*
X-32770Y98853D01*
X-31147Y97230D01*
G37*
G36*
X-53147Y97230D02*
X-50853Y97230D01*
X-49230Y98853D01*
X-49230Y101147D01*
X-50853Y102770D01*
X-53147Y102770D01*
X-54770Y101147D01*
X-54770Y98853D01*
X-53147Y97230D01*
G37*
G36*
X186853Y95230D02*
X189147Y95230D01*
X190770Y96853D01*
X190770Y99147D01*
X189147Y100770D01*
X186853Y100770D01*
X185230Y99147D01*
X185230Y96853D01*
X186853Y95230D01*
G37*
G36*
X-147458Y93480D02*
X-144542Y93480D01*
X-142480Y95542D01*
X-142480Y98458D01*
X-144542Y100520D01*
X-147458Y100520D01*
X-149520Y98458D01*
X-149520Y95542D01*
X-147458Y93480D01*
G37*
G36*
X-114147Y93230D02*
X-111853Y93230D01*
X-110230Y94853D01*
X-110230Y97147D01*
X-111853Y98770D01*
X-114147Y98770D01*
X-115770Y97147D01*
X-115770Y94853D01*
X-114147Y93230D01*
G37*
G36*
X-44147Y89230D02*
X-41853Y89230D01*
X-40230Y90853D01*
X-40230Y93147D01*
X-41853Y94770D01*
X-44147Y94770D01*
X-45770Y93147D01*
X-45770Y90853D01*
X-44147Y89230D01*
G37*
G36*
X-65147Y89230D02*
X-62853Y89230D01*
X-61230Y90853D01*
X-61230Y93147D01*
X-62853Y94770D01*
X-65147Y94770D01*
X-66770Y93147D01*
X-66770Y90853D01*
X-65147Y89230D01*
G37*
G36*
X-73147Y89230D02*
X-70853Y89230D01*
X-69230Y90853D01*
X-69230Y93147D01*
X-70853Y94770D01*
X-73147Y94770D01*
X-74770Y93147D01*
X-74770Y90853D01*
X-73147Y89230D01*
G37*
G36*
X-175458Y87480D02*
X-172542Y87480D01*
X-170480Y89542D01*
X-170480Y92458D01*
X-172542Y94520D01*
X-175458Y94520D01*
X-177520Y92458D01*
X-177520Y89542D01*
X-175458Y87480D01*
G37*
G36*
X69853Y88230D02*
X72147Y88230D01*
X73770Y89853D01*
X73770Y92147D01*
X72147Y93770D01*
X69853Y93770D01*
X68230Y92147D01*
X68230Y89853D01*
X69853Y88230D01*
G37*
G36*
X-131147Y86230D02*
X-128853Y86230D01*
X-127230Y87853D01*
X-127230Y90147D01*
X-128853Y91770D01*
X-131147Y91770D01*
X-132770Y90147D01*
X-132770Y87853D01*
X-131147Y86230D01*
G37*
G36*
X-55147Y79230D02*
X-52853Y79230D01*
X-51230Y80853D01*
X-51230Y83147D01*
X-52853Y84770D01*
X-55147Y84770D01*
X-56770Y83147D01*
X-56770Y80853D01*
X-55147Y79230D01*
G37*
G36*
X60853Y74730D02*
X63147Y74730D01*
X64770Y76353D01*
X64770Y78647D01*
X63147Y80270D01*
X60853Y80270D01*
X59230Y78647D01*
X59230Y76353D01*
X60853Y74730D01*
G37*
G36*
X-84147Y73230D02*
X-81853Y73230D01*
X-80230Y74853D01*
X-80230Y77147D01*
X-81853Y78770D01*
X-84147Y78770D01*
X-85770Y77147D01*
X-85770Y74853D01*
X-84147Y73230D01*
G37*
G36*
X100853Y70230D02*
X103147Y70230D01*
X104770Y71853D01*
X104770Y74147D01*
X103147Y75770D01*
X100853Y75770D01*
X99230Y74147D01*
X99230Y71853D01*
X100853Y70230D01*
G37*
G36*
X-18147Y70230D02*
X-15853Y70230D01*
X-14230Y71853D01*
X-14230Y74147D01*
X-15853Y75770D01*
X-18147Y75770D01*
X-19770Y74147D01*
X-19770Y71853D01*
X-18147Y70230D01*
G37*
G36*
X30853Y67230D02*
X33147Y67230D01*
X34770Y68853D01*
X34770Y71147D01*
X33147Y72770D01*
X30853Y72770D01*
X29230Y71147D01*
X29230Y68853D01*
X30853Y67230D01*
G37*
G36*
X-52147Y67230D02*
X-49853Y67230D01*
X-48230Y68853D01*
X-48230Y71147D01*
X-49853Y72770D01*
X-52147Y72770D01*
X-53770Y71147D01*
X-53770Y68853D01*
X-52147Y67230D01*
G37*
G36*
X-33147Y61230D02*
X-30853Y61230D01*
X-29230Y62853D01*
X-29230Y65147D01*
X-30853Y66770D01*
X-33147Y66770D01*
X-34770Y65147D01*
X-34770Y62853D01*
X-33147Y61230D01*
G37*
G36*
X87853Y60230D02*
X90147Y60230D01*
X91770Y61853D01*
X91770Y64147D01*
X90147Y65770D01*
X87853Y65770D01*
X86230Y64147D01*
X86230Y61853D01*
X87853Y60230D01*
G37*
G36*
X-43147Y57230D02*
X-40853Y57230D01*
X-39230Y58853D01*
X-39230Y61147D01*
X-40853Y62770D01*
X-43147Y62770D01*
X-44770Y61147D01*
X-44770Y58853D01*
X-43147Y57230D01*
G37*
G36*
X-80147Y56230D02*
X-77853Y56230D01*
X-76230Y57853D01*
X-76230Y60147D01*
X-77853Y61770D01*
X-80147Y61770D01*
X-81770Y60147D01*
X-81770Y57853D01*
X-80147Y56230D01*
G37*
G36*
X-49647Y53230D02*
X-47353Y53230D01*
X-45730Y54853D01*
X-45730Y57147D01*
X-47353Y58770D01*
X-49647Y58770D01*
X-51270Y57147D01*
X-51270Y54853D01*
X-49647Y53230D01*
G37*
G36*
X153853Y51230D02*
X156147Y51230D01*
X157770Y52853D01*
X157770Y55147D01*
X156147Y56770D01*
X153853Y56770D01*
X152230Y55147D01*
X152230Y52853D01*
X153853Y51230D01*
G37*
G36*
X-135147Y45230D02*
X-132853Y45230D01*
X-131230Y46853D01*
X-131230Y49147D01*
X-131544Y49461D01*
X-131702Y49692D01*
X-131767Y49988D01*
X-131711Y50286D01*
X-131544Y50539D01*
X-130230Y51853D01*
X-130230Y54147D01*
X-131853Y55770D01*
X-134147Y55770D01*
X-135770Y54147D01*
X-135770Y51853D01*
X-135456Y51539D01*
X-135298Y51308D01*
X-135233Y51012D01*
X-135289Y50714D01*
X-135456Y50461D01*
X-136770Y49147D01*
X-136770Y46853D01*
X-135147Y45230D01*
G37*
G36*
X-39147Y39230D02*
X-36853Y39230D01*
X-35230Y40853D01*
X-35230Y43147D01*
X-36853Y44770D01*
X-37473Y44770D01*
X-37736Y44817D01*
X-37994Y44976D01*
X-38170Y45224D01*
X-38235Y45520D01*
X-38179Y45818D01*
X-38012Y46071D01*
X-36730Y47353D01*
X-36730Y49647D01*
X-38353Y51270D01*
X-40647Y51270D01*
X-42270Y49647D01*
X-42270Y47353D01*
X-40647Y45730D01*
X-40027Y45730D01*
X-39764Y45683D01*
X-39506Y45524D01*
X-39330Y45276D01*
X-39265Y44980D01*
X-39321Y44682D01*
X-39488Y44429D01*
X-40770Y43147D01*
X-40770Y40853D01*
X-39147Y39230D01*
G37*
G36*
X-49647Y45230D02*
X-47353Y45230D01*
X-45730Y46853D01*
X-45730Y49147D01*
X-47353Y50770D01*
X-49647Y50770D01*
X-51270Y49147D01*
X-51270Y46853D01*
X-49647Y45230D01*
G37*
G36*
X3853Y45230D02*
X6147Y45230D01*
X7770Y46853D01*
X7770Y49147D01*
X6147Y50770D01*
X3853Y50770D01*
X2230Y49147D01*
X2230Y46853D01*
X3853Y45230D01*
G37*
G36*
X25853Y40230D02*
X28147Y40230D01*
X29770Y41853D01*
X29770Y44147D01*
X28147Y45770D01*
X25853Y45770D01*
X24230Y44147D01*
X24230Y41853D01*
X25853Y40230D01*
G37*
G36*
X-66147Y39230D02*
X-63853Y39230D01*
X-62230Y40853D01*
X-62230Y43147D01*
X-63853Y44770D01*
X-66147Y44770D01*
X-67770Y43147D01*
X-67770Y40853D01*
X-66147Y39230D01*
G37*
G36*
X87853Y37230D02*
X90147Y37230D01*
X91770Y38853D01*
X91770Y41147D01*
X90147Y42770D01*
X87853Y42770D01*
X86230Y41147D01*
X86230Y38853D01*
X87853Y37230D01*
G37*
G36*
X53853Y26230D02*
X56147Y26230D01*
X57770Y27853D01*
X57770Y30147D01*
X55956Y31961D01*
X55798Y32192D01*
X55733Y32488D01*
X55789Y32786D01*
X55956Y33039D01*
X57270Y34353D01*
X57270Y36647D01*
X55647Y38270D01*
X53353Y38270D01*
X51730Y36647D01*
X51730Y34353D01*
X53544Y32539D01*
X53702Y32308D01*
X53767Y32012D01*
X53711Y31714D01*
X53544Y31461D01*
X52230Y30147D01*
X52230Y27853D01*
X53853Y26230D01*
G37*
G36*
X66853Y30230D02*
X69147Y30230D01*
X70770Y31853D01*
X70770Y34147D01*
X69147Y35770D01*
X66853Y35770D01*
X65230Y34147D01*
X65230Y31853D01*
X66853Y30230D01*
G37*
G36*
X3853Y27730D02*
X6147Y27730D01*
X7770Y29353D01*
X7770Y31647D01*
X6147Y33270D01*
X3853Y33270D01*
X2230Y31647D01*
X2230Y29353D01*
X3853Y27730D01*
G37*
G36*
X-37147Y27730D02*
X-34853Y27730D01*
X-33230Y29353D01*
X-33230Y31647D01*
X-34853Y33270D01*
X-37147Y33270D01*
X-38770Y31647D01*
X-38770Y29353D01*
X-37147Y27730D01*
G37*
G36*
X-111147Y19230D02*
X-108853Y19230D01*
X-107230Y20853D01*
X-107230Y23147D01*
X-108544Y24461D01*
X-108702Y24692D01*
X-108767Y24988D01*
X-108711Y25286D01*
X-108544Y25539D01*
X-107230Y26853D01*
X-107230Y29147D01*
X-108853Y30770D01*
X-111147Y30770D01*
X-112770Y29147D01*
X-112770Y26853D01*
X-111456Y25539D01*
X-111298Y25308D01*
X-111233Y25012D01*
X-111289Y24714D01*
X-111456Y24461D01*
X-112770Y23147D01*
X-112770Y20853D01*
X-111147Y19230D01*
G37*
G36*
X-25147Y25230D02*
X-22853Y25230D01*
X-21230Y26853D01*
X-21230Y29147D01*
X-22853Y30770D01*
X-25147Y30770D01*
X-26770Y29147D01*
X-26770Y26853D01*
X-25147Y25230D01*
G37*
G36*
X-70647Y23730D02*
X-68353Y23730D01*
X-66730Y25353D01*
X-66730Y27647D01*
X-68353Y29270D01*
X-70647Y29270D01*
X-72270Y27647D01*
X-72270Y25353D01*
X-70647Y23730D01*
G37*
G36*
X68853Y19230D02*
X71147Y19230D01*
X72770Y20853D01*
X72770Y23147D01*
X71147Y24770D01*
X68853Y24770D01*
X67230Y23147D01*
X67230Y20853D01*
X68853Y19230D01*
G37*
G36*
X-28147Y18230D02*
X-25853Y18230D01*
X-24230Y19853D01*
X-24230Y22147D01*
X-25853Y23770D01*
X-28147Y23770D01*
X-29770Y22147D01*
X-29770Y19853D01*
X-28147Y18230D01*
G37*
G36*
X-97147Y14230D02*
X-94853Y14230D01*
X-93230Y15853D01*
X-93230Y18147D01*
X-94853Y19770D01*
X-97147Y19770D01*
X-98770Y18147D01*
X-98770Y15853D01*
X-97147Y14230D01*
G37*
G36*
X-77147Y14230D02*
X-74853Y14230D01*
X-73230Y15853D01*
X-73230Y18147D01*
X-74853Y19770D01*
X-77147Y19770D01*
X-78770Y18147D01*
X-78770Y15853D01*
X-77147Y14230D01*
G37*
G36*
X-34147Y12230D02*
X-31853Y12230D01*
X-30230Y13853D01*
X-30230Y16147D01*
X-31853Y17770D01*
X-34147Y17770D01*
X-34961Y16956D01*
X-35192Y16798D01*
X-35488Y16733D01*
X-35786Y16789D01*
X-36039Y16956D01*
X-37853Y18770D01*
X-40147Y18770D01*
X-41770Y17147D01*
X-41770Y14853D01*
X-40147Y13230D01*
X-37853Y13230D01*
X-37039Y14044D01*
X-36808Y14202D01*
X-36512Y14267D01*
X-36214Y14211D01*
X-35961Y14044D01*
X-34147Y12230D01*
G37*
G36*
X69853Y11730D02*
X72147Y11730D01*
X73770Y13353D01*
X73770Y15647D01*
X72147Y17270D01*
X69853Y17270D01*
X68230Y15647D01*
X68230Y13353D01*
X69853Y11730D01*
G37*
G36*
X-84147Y10230D02*
X-81853Y10230D01*
X-80230Y11853D01*
X-80230Y14147D01*
X-81853Y15770D01*
X-84147Y15770D01*
X-85770Y14147D01*
X-85770Y11853D01*
X-84147Y10230D01*
G37*
G36*
X169685Y-12855D02*
X175356Y-12855D01*
X180595Y-10685D01*
X184605Y-6675D01*
X186775Y-1436D01*
X186775Y4236D01*
X184605Y9475D01*
X180595Y13485D01*
X175356Y15655D01*
X169685Y15655D01*
X164445Y13485D01*
X160435Y9475D01*
X158265Y4236D01*
X158265Y-1436D01*
X160435Y-6675D01*
X164445Y-10685D01*
X169685Y-12855D01*
G37*
G36*
X137935Y-12855D02*
X143606Y-12855D01*
X148845Y-10685D01*
X152855Y-6675D01*
X155025Y-1436D01*
X155025Y4236D01*
X152855Y9475D01*
X148845Y13485D01*
X143606Y15655D01*
X137935Y15655D01*
X132695Y13485D01*
X128685Y9475D01*
X126515Y4236D01*
X126515Y-1436D01*
X128685Y-6675D01*
X132695Y-10685D01*
X137935Y-12855D01*
G37*
G36*
X-98147Y6230D02*
X-95853Y6230D01*
X-94230Y7853D01*
X-94230Y10147D01*
X-95853Y11770D01*
X-98147Y11770D01*
X-99770Y10147D01*
X-99770Y7853D01*
X-98147Y6230D01*
G37*
G36*
X-23647Y-9770D02*
X-21353Y-9770D01*
X-19730Y-8147D01*
X-19730Y-5853D01*
X-20544Y-5039D01*
X-20702Y-4808D01*
X-20767Y-4512D01*
X-20711Y-4214D01*
X-20544Y-3961D01*
X-19730Y-3147D01*
X-19730Y-853D01*
X-20544Y-39D01*
X-20702Y192D01*
X-20767Y488D01*
X-20711Y786D01*
X-20544Y1039D01*
X-19730Y1853D01*
X-19730Y4147D01*
X-20544Y4961D01*
X-20702Y5192D01*
X-20767Y5488D01*
X-20711Y5786D01*
X-20544Y6039D01*
X-19730Y6853D01*
X-19730Y9147D01*
X-21353Y10770D01*
X-23647Y10770D01*
X-25270Y9147D01*
X-25270Y6853D01*
X-24456Y6039D01*
X-24298Y5808D01*
X-24233Y5512D01*
X-24289Y5214D01*
X-24456Y4961D01*
X-25270Y4147D01*
X-25270Y1853D01*
X-24456Y1039D01*
X-24298Y808D01*
X-24233Y512D01*
X-24289Y214D01*
X-24456Y-39D01*
X-25270Y-853D01*
X-25270Y-3147D01*
X-24456Y-3961D01*
X-24298Y-4192D01*
X-24233Y-4488D01*
X-24289Y-4786D01*
X-24456Y-5039D01*
X-25270Y-5853D01*
X-25270Y-8147D01*
X-23647Y-9770D01*
G37*
G36*
X-113147Y4230D02*
X-110853Y4230D01*
X-109230Y5853D01*
X-109230Y8147D01*
X-110853Y9770D01*
X-113147Y9770D01*
X-114770Y8147D01*
X-114770Y5853D01*
X-113147Y4230D01*
G37*
G36*
X-41147Y2230D02*
X-38853Y2230D01*
X-37230Y3853D01*
X-37230Y6147D01*
X-38853Y7770D01*
X-41147Y7770D01*
X-42770Y6147D01*
X-42770Y3853D01*
X-41147Y2230D01*
G37*
G36*
X-104147Y230D02*
X-101853Y230D01*
X-100230Y1853D01*
X-100230Y4147D01*
X-101853Y5770D01*
X-104147Y5770D01*
X-105770Y4147D01*
X-105770Y1853D01*
X-104147Y230D01*
G37*
G36*
X-134147Y-3770D02*
X-131853Y-3770D01*
X-130230Y-2147D01*
X-130230Y147D01*
X-131853Y1770D01*
X-134147Y1770D01*
X-135770Y147D01*
X-135770Y-2147D01*
X-134147Y-3770D01*
G37*
G36*
X-45147Y-6770D02*
X-42853Y-6770D01*
X-41230Y-5147D01*
X-41230Y-2853D01*
X-42853Y-1230D01*
X-45147Y-1230D01*
X-46770Y-2853D01*
X-46770Y-5147D01*
X-45147Y-6770D01*
G37*
G36*
X-112147Y-9770D02*
X-109853Y-9770D01*
X-108230Y-8147D01*
X-108230Y-5853D01*
X-109853Y-4230D01*
X-112147Y-4230D01*
X-113770Y-5853D01*
X-113770Y-8147D01*
X-112147Y-9770D01*
G37*
G36*
X190111Y-41495D02*
X193029Y-41495D01*
X195725Y-40378D01*
X197788Y-38315D01*
X198905Y-35619D01*
X198905Y-32701D01*
X197788Y-30005D01*
X195725Y-27942D01*
X193029Y-26825D01*
X190111Y-26825D01*
X188497Y-27493D01*
X188242Y-27551D01*
X187942Y-27505D01*
X187684Y-27345D01*
X187509Y-27098D01*
X187444Y-26802D01*
X187499Y-26504D01*
X187667Y-26251D01*
X188770Y-25147D01*
X188770Y-22853D01*
X187667Y-21749D01*
X187516Y-21535D01*
X187444Y-21241D01*
X187493Y-20942D01*
X187654Y-20685D01*
X187903Y-20511D01*
X188199Y-20449D01*
X188497Y-20507D01*
X190111Y-21175D01*
X193029Y-21175D01*
X195725Y-20058D01*
X197788Y-17995D01*
X198905Y-15299D01*
X198905Y-12381D01*
X197788Y-9685D01*
X195725Y-7622D01*
X193029Y-6505D01*
X190111Y-6505D01*
X187415Y-7622D01*
X185352Y-9685D01*
X184235Y-12381D01*
X184235Y-15299D01*
X185352Y-17995D01*
X187286Y-19929D01*
X187439Y-20149D01*
X187509Y-20444D01*
X187458Y-20743D01*
X187294Y-20998D01*
X187044Y-21170D01*
X186747Y-21230D01*
X184853Y-21230D01*
X183230Y-22853D01*
X183230Y-25147D01*
X184853Y-26770D01*
X186747Y-26770D01*
X187010Y-26817D01*
X187268Y-26976D01*
X187444Y-27224D01*
X187509Y-27520D01*
X187453Y-27818D01*
X187286Y-28071D01*
X185352Y-30005D01*
X184235Y-32701D01*
X184235Y-35619D01*
X185352Y-38315D01*
X187415Y-40378D01*
X190111Y-41495D01*
G37*
G36*
X85353Y-18270D02*
X87647Y-18270D01*
X89270Y-16647D01*
X89270Y-14353D01*
X87647Y-12730D01*
X85353Y-12730D01*
X83730Y-14353D01*
X83730Y-16647D01*
X85353Y-18270D01*
G37*
G36*
X31353Y-19770D02*
X33647Y-19770D01*
X35270Y-18147D01*
X35270Y-15853D01*
X33647Y-14230D01*
X31353Y-14230D01*
X29730Y-15853D01*
X29730Y-18147D01*
X31353Y-19770D01*
G37*
G36*
X-135147Y-20270D02*
X-132853Y-20270D01*
X-131230Y-18647D01*
X-131230Y-16353D01*
X-132853Y-14730D01*
X-135147Y-14730D01*
X-136770Y-16353D01*
X-136770Y-18647D01*
X-135147Y-20270D01*
G37*
G36*
X139311Y-31335D02*
X142229Y-31335D01*
X144925Y-30218D01*
X146988Y-28155D01*
X148105Y-25459D01*
X148105Y-22541D01*
X146988Y-19845D01*
X144925Y-17782D01*
X142229Y-16665D01*
X139311Y-16665D01*
X136615Y-17782D01*
X134552Y-19845D01*
X133435Y-22541D01*
X133435Y-25459D01*
X134552Y-28155D01*
X136615Y-30218D01*
X139311Y-31335D01*
G37*
G36*
X-33147Y-25770D02*
X-30853Y-25770D01*
X-29230Y-24147D01*
X-29230Y-21853D01*
X-30853Y-20230D01*
X-33147Y-20230D01*
X-34770Y-21853D01*
X-34770Y-24147D01*
X-33147Y-25770D01*
G37*
G36*
X-78147Y-26770D02*
X-75853Y-26770D01*
X-74230Y-25147D01*
X-74230Y-22853D01*
X-75853Y-21230D01*
X-78147Y-21230D01*
X-79770Y-22853D01*
X-79770Y-25147D01*
X-78147Y-26770D01*
G37*
G36*
X-6147Y-27270D02*
X-3853Y-27270D01*
X-3039Y-26456D01*
X-2808Y-26298D01*
X-2512Y-26233D01*
X-2214Y-26289D01*
X-1961Y-26456D01*
X-1147Y-27270D01*
X1147Y-27270D01*
X1961Y-26456D01*
X2192Y-26298D01*
X2488Y-26233D01*
X2786Y-26289D01*
X3039Y-26456D01*
X3853Y-27270D01*
X6147Y-27270D01*
X7770Y-25647D01*
X7770Y-23353D01*
X6147Y-21730D01*
X3853Y-21730D01*
X3039Y-22544D01*
X2808Y-22702D01*
X2512Y-22767D01*
X2214Y-22711D01*
X1961Y-22544D01*
X1147Y-21730D01*
X-1147Y-21730D01*
X-1961Y-22544D01*
X-2192Y-22702D01*
X-2488Y-22767D01*
X-2786Y-22711D01*
X-3039Y-22544D01*
X-3853Y-21730D01*
X-6147Y-21730D01*
X-7770Y-23353D01*
X-7770Y-25647D01*
X-6147Y-27270D01*
G37*
G36*
X-42147Y-31770D02*
X-39853Y-31770D01*
X-38230Y-30147D01*
X-38230Y-27853D01*
X-39853Y-26230D01*
X-42147Y-26230D01*
X-43770Y-27853D01*
X-43770Y-30147D01*
X-42147Y-31770D01*
G37*
G36*
X-5647Y-36270D02*
X-3353Y-36270D01*
X-1730Y-34647D01*
X-1730Y-32353D01*
X-3353Y-30730D01*
X-5647Y-30730D01*
X-7270Y-32353D01*
X-7270Y-34647D01*
X-5647Y-36270D01*
G37*
G36*
X-18647Y-39770D02*
X-16353Y-39770D01*
X-15039Y-38456D01*
X-14808Y-38298D01*
X-14512Y-38233D01*
X-14214Y-38289D01*
X-13961Y-38456D01*
X-13647Y-38770D01*
X-11353Y-38770D01*
X-9730Y-37147D01*
X-9730Y-34853D01*
X-11353Y-33230D01*
X-13647Y-33230D01*
X-14961Y-34544D01*
X-15192Y-34702D01*
X-15488Y-34767D01*
X-15786Y-34711D01*
X-16039Y-34544D01*
X-16353Y-34230D01*
X-18647Y-34230D01*
X-20270Y-35853D01*
X-20270Y-38147D01*
X-18647Y-39770D01*
G37*
G36*
X169685Y-63655D02*
X175356Y-63655D01*
X180595Y-61485D01*
X184605Y-57475D01*
X186775Y-52236D01*
X186775Y-46565D01*
X184605Y-41325D01*
X180595Y-37315D01*
X175356Y-35145D01*
X169685Y-35145D01*
X164445Y-37315D01*
X160435Y-41325D01*
X158265Y-46565D01*
X158265Y-52236D01*
X160435Y-57475D01*
X164445Y-61485D01*
X169685Y-63655D01*
G37*
G36*
X137935Y-63655D02*
X143606Y-63655D01*
X148845Y-61485D01*
X152855Y-57475D01*
X155025Y-52236D01*
X155025Y-46565D01*
X152855Y-41325D01*
X148845Y-37315D01*
X143606Y-35145D01*
X137935Y-35145D01*
X132695Y-37315D01*
X128685Y-41325D01*
X126515Y-46565D01*
X126515Y-52236D01*
X128685Y-57475D01*
X132695Y-61485D01*
X137935Y-63655D01*
G37*
G36*
X36853Y-44770D02*
X39147Y-44770D01*
X40770Y-43147D01*
X40770Y-40853D01*
X39147Y-39230D01*
X36576Y-39230D01*
X36556Y-39235D01*
X36257Y-39184D01*
X36002Y-39020D01*
X35830Y-38770D01*
X35770Y-38473D01*
X35770Y-36853D01*
X34147Y-35230D01*
X31853Y-35230D01*
X30230Y-36853D01*
X30230Y-39147D01*
X31853Y-40770D01*
X34424Y-40770D01*
X34444Y-40765D01*
X34743Y-40816D01*
X34998Y-40980D01*
X35170Y-41230D01*
X35230Y-41527D01*
X35230Y-43147D01*
X36853Y-44770D01*
G37*
G36*
X11853Y-41770D02*
X14147Y-41770D01*
X15770Y-40147D01*
X15770Y-37853D01*
X14147Y-36230D01*
X11853Y-36230D01*
X10230Y-37853D01*
X10230Y-40147D01*
X11853Y-41770D01*
G37*
G36*
X1853Y-44770D02*
X4147Y-44770D01*
X5770Y-43147D01*
X5770Y-40853D01*
X4147Y-39230D01*
X1853Y-39230D01*
X230Y-40853D01*
X230Y-43147D01*
X1853Y-44770D01*
G37*
G36*
X101853Y-51770D02*
X104147Y-51770D01*
X105770Y-50147D01*
X105770Y-47853D01*
X104147Y-46230D01*
X101853Y-46230D01*
X100230Y-47853D01*
X100230Y-50147D01*
X101853Y-51770D01*
G37*
G36*
X-2147Y-51770D02*
X147Y-51770D01*
X1770Y-50147D01*
X1770Y-47853D01*
X147Y-46230D01*
X-2147Y-46230D01*
X-3770Y-47853D01*
X-3770Y-50147D01*
X-2147Y-51770D01*
G37*
G36*
X-133147Y-58770D02*
X-130853Y-58770D01*
X-129230Y-57147D01*
X-129230Y-54853D01*
X-130853Y-53230D01*
X-133147Y-53230D01*
X-134770Y-54853D01*
X-134770Y-57147D01*
X-133147Y-58770D01*
G37*
G36*
X-14147Y-65770D02*
X-11853Y-65770D01*
X-10230Y-64147D01*
X-10230Y-61853D01*
X-11853Y-60230D01*
X-14147Y-60230D01*
X-15770Y-61853D01*
X-15770Y-64147D01*
X-14147Y-65770D01*
G37*
G36*
X162853Y-72770D02*
X165147Y-72770D01*
X166770Y-71147D01*
X166770Y-68853D01*
X165147Y-67230D01*
X162853Y-67230D01*
X161230Y-68853D01*
X161230Y-71147D01*
X162853Y-72770D01*
G37*
G36*
X100853Y-73770D02*
X103147Y-73770D01*
X104770Y-72147D01*
X104770Y-69853D01*
X103147Y-68230D01*
X100853Y-68230D01*
X99230Y-69853D01*
X99230Y-72147D01*
X100853Y-73770D01*
G37*
G36*
X-5647Y-79270D02*
X-3353Y-79270D01*
X-1730Y-77647D01*
X-1730Y-75353D01*
X-3353Y-73730D01*
X-5647Y-73730D01*
X-7270Y-75353D01*
X-7270Y-77647D01*
X-5647Y-79270D01*
G37*
G36*
X94853Y-79770D02*
X97147Y-79770D01*
X98770Y-78147D01*
X98770Y-75853D01*
X97147Y-74230D01*
X94853Y-74230D01*
X93230Y-75853D01*
X93230Y-78147D01*
X94853Y-79770D01*
G37*
G36*
X-144147Y-80770D02*
X-141853Y-80770D01*
X-140230Y-79147D01*
X-140230Y-76853D01*
X-141853Y-75230D01*
X-144147Y-75230D01*
X-145770Y-76853D01*
X-145770Y-79147D01*
X-144147Y-80770D01*
G37*
G36*
X110853Y-83770D02*
X113147Y-83770D01*
X114770Y-82147D01*
X114770Y-79853D01*
X113147Y-78230D01*
X110853Y-78230D01*
X109230Y-79853D01*
X109230Y-82147D01*
X110853Y-83770D01*
G37*
G36*
X54853Y-96770D02*
X57147Y-96770D01*
X58770Y-95147D01*
X58770Y-92853D01*
X57147Y-91230D01*
X54853Y-91230D01*
X53230Y-92853D01*
X53230Y-95147D01*
X54853Y-96770D01*
G37*
G36*
X-140147Y-101770D02*
X-137853Y-101770D01*
X-136230Y-100147D01*
X-136230Y-97853D01*
X-137853Y-96230D01*
X-140147Y-96230D01*
X-141770Y-97853D01*
X-141770Y-100147D01*
X-140147Y-101770D01*
G37*
G36*
X-203147Y-105770D02*
X-200853Y-105770D01*
X-199230Y-104147D01*
X-199230Y-101853D01*
X-200853Y-100230D01*
X-203147Y-100230D01*
X-204770Y-101853D01*
X-204770Y-104147D01*
X-203147Y-105770D01*
G37*
G36*
X-158147Y-111770D02*
X-155853Y-111770D01*
X-154230Y-110147D01*
X-154230Y-107853D01*
X-155853Y-106230D01*
X-158147Y-106230D01*
X-159770Y-107853D01*
X-159770Y-110147D01*
X-158147Y-111770D01*
G37*
G36*
X-88147Y-112770D02*
X-85853Y-112770D01*
X-84230Y-111147D01*
X-84230Y-108853D01*
X-85853Y-107230D01*
X-88147Y-107230D01*
X-89770Y-108853D01*
X-89770Y-111147D01*
X-88147Y-112770D01*
G37*
G36*
X127853Y-112770D02*
X130147Y-112770D01*
X131770Y-111147D01*
X131770Y-108853D01*
X130147Y-107230D01*
X127853Y-107230D01*
X126230Y-108853D01*
X126230Y-111147D01*
X127853Y-112770D01*
G37*
G36*
X76853Y-120770D02*
X79147Y-120770D01*
X80770Y-119147D01*
X80770Y-116853D01*
X79147Y-115230D01*
X76853Y-115230D01*
X75230Y-116853D01*
X75230Y-119147D01*
X76853Y-120770D01*
G37*
G36*
X-117147Y-120770D02*
X-114853Y-120770D01*
X-113230Y-119147D01*
X-113230Y-116853D01*
X-114853Y-115230D01*
X-117147Y-115230D01*
X-118770Y-116853D01*
X-118770Y-119147D01*
X-117147Y-120770D01*
G37*
G36*
X-111147Y-124770D02*
X-108853Y-124770D01*
X-107230Y-123147D01*
X-107230Y-120853D01*
X-108853Y-119230D01*
X-111147Y-119230D01*
X-112770Y-120853D01*
X-112770Y-123147D01*
X-111147Y-124770D01*
G37*
G36*
X-158147Y-139770D02*
X-155853Y-139770D01*
X-154230Y-138147D01*
X-154230Y-135853D01*
X-155853Y-134230D01*
X-158147Y-134230D01*
X-159770Y-135853D01*
X-159770Y-138147D01*
X-158147Y-139770D01*
G37*
G36*
X127164Y-152414D02*
X129792Y-152414D01*
X132219Y-151409D01*
X134077Y-149551D01*
X135082Y-147124D01*
X135082Y-144496D01*
X134077Y-142069D01*
X132219Y-140211D01*
X129792Y-139206D01*
X127164Y-139206D01*
X124737Y-140211D01*
X122879Y-142069D01*
X121874Y-144496D01*
X121874Y-147124D01*
X122879Y-149551D01*
X124737Y-151409D01*
X127164Y-152414D01*
G37*
G36*
X90208Y-152414D02*
X92836Y-152414D01*
X95263Y-151409D01*
X97121Y-149551D01*
X98126Y-147124D01*
X98126Y-144496D01*
X97121Y-142069D01*
X95263Y-140211D01*
X92836Y-139206D01*
X90208Y-139206D01*
X87781Y-140211D01*
X85923Y-142069D01*
X84918Y-144496D01*
X84918Y-147124D01*
X85923Y-149551D01*
X87781Y-151409D01*
X90208Y-152414D01*
G37*
G36*
X18164Y-152414D02*
X20792Y-152414D01*
X23219Y-151409D01*
X25077Y-149551D01*
X26082Y-147124D01*
X26082Y-144496D01*
X25077Y-142069D01*
X23219Y-140211D01*
X20792Y-139206D01*
X18164Y-139206D01*
X15737Y-140211D01*
X13879Y-142069D01*
X12874Y-144496D01*
X12874Y-147124D01*
X13879Y-149551D01*
X15737Y-151409D01*
X18164Y-152414D01*
G37*
G36*
X-18792Y-152414D02*
X-16164Y-152414D01*
X-13737Y-151409D01*
X-11879Y-149551D01*
X-10874Y-147124D01*
X-10874Y-144496D01*
X-11879Y-142069D01*
X-13737Y-140211D01*
X-16164Y-139206D01*
X-18792Y-139206D01*
X-21219Y-140211D01*
X-23077Y-142069D01*
X-24082Y-144496D01*
X-24082Y-147124D01*
X-23077Y-149551D01*
X-21219Y-151409D01*
X-18792Y-152414D01*
G37*
G36*
X-92836Y-152414D02*
X-90208Y-152414D01*
X-87781Y-151409D01*
X-85923Y-149551D01*
X-84918Y-147124D01*
X-84918Y-144496D01*
X-85923Y-142069D01*
X-87781Y-140211D01*
X-90208Y-139206D01*
X-92836Y-139206D01*
X-95263Y-140211D01*
X-97121Y-142069D01*
X-98126Y-144496D01*
X-98126Y-147124D01*
X-97121Y-149551D01*
X-95263Y-151409D01*
X-92836Y-152414D01*
G37*
G36*
X-129792Y-152414D02*
X-127164Y-152414D01*
X-124737Y-151409D01*
X-122879Y-149551D01*
X-121874Y-147124D01*
X-121874Y-144496D01*
X-122879Y-142069D01*
X-124737Y-140211D01*
X-127164Y-139206D01*
X-129792Y-139206D01*
X-132219Y-140211D01*
X-134077Y-142069D01*
X-135082Y-144496D01*
X-135082Y-147124D01*
X-134077Y-149551D01*
X-132219Y-151409D01*
X-129792Y-152414D01*
G37*
G36*
X34853Y-150770D02*
X37147Y-150770D01*
X38770Y-149147D01*
X38770Y-146853D01*
X37147Y-145230D01*
X34853Y-145230D01*
X33230Y-146853D01*
X33230Y-149147D01*
X34853Y-150770D01*
G37*
G36*
X-144147Y-158770D02*
X-141853Y-158770D01*
X-140230Y-157147D01*
X-140230Y-154853D01*
X-141853Y-153230D01*
X-144147Y-153230D01*
X-145770Y-154853D01*
X-145770Y-157147D01*
X-144147Y-158770D01*
G37*
G36*
X-49147Y-169770D02*
X-46853Y-169770D01*
X-45230Y-168147D01*
X-45230Y-165853D01*
X-46853Y-164230D01*
X-49147Y-164230D01*
X-50770Y-165853D01*
X-50770Y-168147D01*
X-49147Y-169770D01*
G37*
%LPD*%
D10*
X43200Y162000D03*
X-43200Y162000D03*
X43200Y120500D03*
X-43200Y120500D03*
D11*
X128478Y-145810D03*
X91522Y-145810D03*
X-91522Y-145810D03*
X-128478Y-145810D03*
X19478Y-145810D03*
X-17478Y-145810D03*
D12*
X-1000Y9000D03*
X-13000Y9000D03*
X-13000Y21000D03*
X-1000Y21000D03*
X11000Y21000D03*
X23000Y21000D03*
X23000Y9000D03*
X11000Y9000D03*
X-13000Y-3000D03*
X-1000Y-3000D03*
X11000Y-3000D03*
X23000Y-3000D03*
X23000Y-15000D03*
X11000Y-15000D03*
X-1000Y-15000D03*
X-13000Y-15000D03*
D13*
X-139000Y-99000D03*
X-134000Y48000D03*
D14*
X-70000Y-16000D03*
D13*
X128000Y128000D03*
X151000Y128000D03*
X26000Y-124000D03*
X56000Y-80000D03*
X-132000Y152000D03*
X-137000Y135000D03*
X66000Y117000D03*
X57000Y105000D03*
X-89000Y-123000D03*
X-32000Y20000D03*
X-65000Y22000D03*
X-86000Y6000D03*
X-1000Y48000D03*
X-55000Y-57000D03*
X-96000Y118000D03*
X192000Y108000D03*
X-20000Y38000D03*
X31000Y31000D03*
X53000Y25000D03*
X54000Y9000D03*
X119000Y-26000D03*
X172000Y-25000D03*
D14*
X82000Y166348D03*
X64000Y166348D03*
X28000Y166348D03*
X10000Y166348D03*
X-8000Y166348D03*
X-26000Y166348D03*
X37000Y150760D03*
X19000Y150760D03*
X1000Y150760D03*
X-17000Y150760D03*
X-35000Y150760D03*
X-107000Y150760D03*
X82000Y135172D03*
X64000Y135172D03*
X46000Y135172D03*
X28000Y135172D03*
X10000Y135172D03*
X-8000Y135172D03*
X-26000Y135172D03*
X-44000Y135172D03*
X-152000Y135172D03*
X-170000Y135172D03*
X199000Y119584D03*
X109000Y119584D03*
X91000Y119584D03*
X73000Y119584D03*
X-161000Y119584D03*
X-179000Y119584D03*
X208000Y103996D03*
X154000Y103996D03*
X136000Y103996D03*
X100000Y103996D03*
X217000Y88408D03*
X199000Y88408D03*
X163000Y88408D03*
X127000Y88408D03*
X91000Y88408D03*
X37000Y88408D03*
X19000Y88408D03*
X-89000Y88408D03*
X118000Y72820D03*
X-44000Y72820D03*
X-116000Y72820D03*
X-134000Y72820D03*
X127000Y57232D03*
X109000Y57232D03*
X91000Y57232D03*
X73000Y57232D03*
X-89000Y57232D03*
X-107000Y57232D03*
X-143000Y57232D03*
X118000Y41644D03*
X100000Y41644D03*
X-134000Y41644D03*
X163000Y26056D03*
X127000Y26056D03*
X-143000Y26056D03*
X190000Y10468D03*
X64000Y10468D03*
X-134000Y10468D03*
X217000Y-5120D03*
X199000Y-5120D03*
X91000Y-5120D03*
X73000Y-5120D03*
X55000Y-5120D03*
X-143000Y-5120D03*
X208000Y-20708D03*
X118000Y-20708D03*
X217000Y-36296D03*
X91000Y-36296D03*
X208000Y-51884D03*
X190000Y-51884D03*
X-62000Y-51884D03*
X217000Y-67472D03*
X199000Y-67472D03*
X145000Y-67472D03*
X127000Y-67472D03*
X109000Y-67472D03*
X73000Y-67472D03*
X55000Y-67472D03*
X-35000Y-67472D03*
X-53000Y-67472D03*
X-71000Y-67472D03*
X-89000Y-67472D03*
X-107000Y-67472D03*
X100000Y-83060D03*
X82000Y-83060D03*
X64000Y-83060D03*
X28000Y-83060D03*
X10000Y-83060D03*
X-98000Y-83060D03*
X-134000Y-83060D03*
X-188000Y-83060D03*
X217000Y-98648D03*
X199000Y-98648D03*
X163000Y-98648D03*
X145000Y-98648D03*
X127000Y-98648D03*
X109000Y-98648D03*
X91000Y-98648D03*
X37000Y-98648D03*
X19000Y-98648D03*
X1000Y-98648D03*
X-17000Y-98648D03*
X-35000Y-98648D03*
X-179000Y-98648D03*
X-197000Y-98648D03*
X208000Y-114236D03*
X118000Y-114236D03*
X100000Y-114236D03*
X64000Y-114236D03*
X46000Y-114236D03*
X28000Y-114236D03*
X10000Y-114236D03*
X-26000Y-114236D03*
X55000Y-161000D03*
X37000Y-161000D03*
X-143000Y-161000D03*
X-179000Y-161000D03*
X73000Y-161000D03*
X145000Y-161000D03*
X163000Y-161000D03*
X181000Y-161000D03*
X-116000Y-145412D03*
X-26000Y-145412D03*
X-8000Y-145412D03*
X10000Y-145412D03*
X28000Y-145412D03*
X82000Y-145412D03*
X100000Y-145412D03*
X118000Y-145412D03*
X154000Y-145412D03*
X172000Y-145412D03*
X190000Y-145412D03*
X-143000Y-129824D03*
X-89000Y-129824D03*
X-53000Y-129824D03*
X37000Y-129824D03*
X55000Y-129824D03*
X73000Y-129824D03*
X145000Y-129824D03*
X163000Y-129824D03*
X181000Y-129824D03*
X199000Y-129824D03*
D13*
X5000Y48000D03*
X-48500Y56000D03*
X-110000Y28000D03*
X-133000Y-1000D03*
X5000Y30500D03*
X-48500Y48000D03*
X-110000Y22000D03*
X-111000Y-7000D03*
X-87000Y-110000D03*
X-132000Y-56000D03*
X-143000Y-78000D03*
X-133000Y53000D03*
X3000Y-42000D03*
X-96000Y17000D03*
X56000Y-94000D03*
X-77000Y-24000D03*
X-157000Y-137000D03*
X-157000Y-109000D03*
X-134000Y-17500D03*
X0Y-24500D03*
X-41000Y-29000D03*
X-22500Y8000D03*
X-39000Y16000D03*
X-97000Y9000D03*
X-103000Y3000D03*
X-1000Y-49000D03*
X-112000Y7000D03*
X-30000Y100000D03*
X-52000Y100000D03*
X-13000Y-63000D03*
X89000Y63000D03*
X36000Y-148000D03*
X-48000Y-167000D03*
X-143000Y-156000D03*
X-36000Y30500D03*
X-76000Y17000D03*
X-130000Y89000D03*
X103000Y-49000D03*
X13000Y-39000D03*
X-32000Y-23000D03*
X27000Y43000D03*
X129000Y-110000D03*
X78000Y-118000D03*
X155000Y54000D03*
X-69500Y26500D03*
X70000Y22000D03*
X68000Y33000D03*
X-12500Y-36000D03*
X-60000Y166000D03*
X-17500Y-37000D03*
X-96000Y160000D03*
X175000Y102000D03*
X-44000Y-4000D03*
X-22500Y-2000D03*
X-40000Y5000D03*
D14*
X-147000Y106000D03*
D15*
X-221000Y103000D03*
X-146000Y97000D03*
X-181000Y76000D03*
X-174000Y111000D03*
X-208000Y146000D03*
X-174000Y91000D03*
X-218000Y125000D03*
D13*
X-116000Y-118000D03*
X-202000Y-103000D03*
X54500Y35500D03*
X89000Y40000D03*
X55000Y29000D03*
X71000Y14500D03*
X-24000Y28000D03*
X-38000Y42000D03*
X-32000Y64000D03*
X71000Y91000D03*
X-27000Y21000D03*
X-39500Y48500D03*
X-42000Y60000D03*
X32000Y70000D03*
X-110000Y-122000D03*
X-5000Y-24500D03*
X-4500Y-76500D03*
X-4500Y-33500D03*
X32500Y-17000D03*
X33000Y-38000D03*
X86500Y-15500D03*
X96000Y-77000D03*
X-165000Y160000D03*
X-79000Y59000D03*
X-33000Y15000D03*
X-22500Y-7000D03*
X5000Y-24500D03*
X38000Y-42000D03*
X164000Y-70000D03*
X186000Y-24000D03*
X-83000Y13000D03*
X-72000Y92000D03*
X102000Y73000D03*
X-17000Y73000D03*
X-43000Y92000D03*
X-54000Y82000D03*
X-83000Y76000D03*
X-22500Y3000D03*
X-51000Y70000D03*
X-146000Y170500D03*
X-106000Y143000D03*
X-103000Y121000D03*
X-114000Y117000D03*
X-113000Y96000D03*
X-64000Y92000D03*
X-65000Y42000D03*
X-205000Y133000D03*
X-175000Y143000D03*
X188000Y98000D03*
X62000Y77500D03*
X-90000Y112000D03*
X102000Y-71000D03*
X112000Y-81000D03*
X-142000Y151000D03*
X-142000Y129000D03*
M02*
