G04 EAGLE Gerber RS-274X export*
G75*
%MOMM*%
%FSLAX34Y34*%
%LPD*%
%INBottom Copper*%
%IPPOS*%
%AMOC8*
5,1,8,0,0,1.08239X$1,22.5*%
G01*
G04 Define Apertures*
%ADD10C,1.170000*%
%ADD11R,1.066800X1.066800*%
%ADD12C,0.808000*%
%ADD13C,0.300000*%
%ADD14C,0.150000*%
%ADD15C,0.350000*%
%ADD16C,0.152400*%
%ADD17C,0.304800*%
%ADD18C,0.450000*%
G36*
X-27465Y-172178D02*
X-27762Y-172238D01*
X-81446Y-172238D01*
X-81732Y-172182D01*
X-81985Y-172015D01*
X-82777Y-171223D01*
X-82940Y-170982D01*
X-83000Y-170684D01*
X-83000Y-156052D01*
X-83006Y-156012D01*
X-83008Y-156007D01*
X-83074Y-155972D01*
X-83257Y-155837D01*
X-84856Y-154238D01*
X-135144Y-154238D01*
X-136762Y-155856D01*
X-136762Y-167238D01*
X-136813Y-167513D01*
X-136977Y-167768D01*
X-137227Y-167940D01*
X-137524Y-168000D01*
X-182452Y-168000D01*
X-182699Y-167959D01*
X-187662Y-166258D01*
X-187792Y-166200D01*
X-191505Y-164089D01*
X-191511Y-164085D01*
X-194780Y-162184D01*
X-194936Y-162064D01*
X-217662Y-139338D01*
X-217806Y-139138D01*
X-221921Y-130848D01*
X-222000Y-130509D01*
X-222000Y-124088D01*
X-222025Y-123983D01*
X-222044Y-123956D01*
X-224942Y-121058D01*
X-225137Y-120727D01*
X-226084Y-117389D01*
X-226109Y-117251D01*
X-226997Y-107646D01*
X-227000Y-107576D01*
X-227000Y-73762D01*
X-226949Y-73487D01*
X-226785Y-73232D01*
X-226535Y-73060D01*
X-226238Y-73000D01*
X-157052Y-73000D01*
X-157012Y-72994D01*
X-157009Y-72993D01*
X-157000Y-72938D01*
X-157000Y70948D01*
X-157006Y70988D01*
X-157007Y70991D01*
X-157062Y71000D01*
X-157778Y71000D01*
X-158064Y71056D01*
X-158317Y71223D01*
X-158856Y71762D01*
X-166542Y71762D01*
X-166805Y71809D01*
X-167063Y71968D01*
X-167238Y72216D01*
X-167304Y72512D01*
X-167248Y72810D01*
X-167080Y73063D01*
X-146886Y93257D01*
X-146645Y93420D01*
X-146348Y93480D01*
X-144542Y93480D01*
X-142480Y95542D01*
X-142480Y98458D01*
X-144542Y100520D01*
X-147458Y100520D01*
X-149520Y98458D01*
X-149520Y96652D01*
X-149576Y96366D01*
X-149743Y96114D01*
X-169614Y76243D01*
X-169855Y76080D01*
X-170152Y76020D01*
X-176718Y76020D01*
X-176993Y76071D01*
X-177248Y76235D01*
X-177420Y76485D01*
X-177480Y76782D01*
X-177480Y77458D01*
X-179542Y79520D01*
X-182458Y79520D01*
X-184520Y77458D01*
X-184520Y74542D01*
X-183041Y73063D01*
X-182888Y72843D01*
X-182818Y72548D01*
X-182869Y72249D01*
X-183032Y71994D01*
X-183282Y71822D01*
X-183580Y71762D01*
X-225238Y71762D01*
X-225513Y71813D01*
X-225768Y71977D01*
X-225940Y72227D01*
X-226000Y72524D01*
X-226000Y92304D01*
X-225953Y92567D01*
X-225794Y92825D01*
X-225546Y93000D01*
X-225250Y93066D01*
X-224952Y93010D01*
X-224699Y92842D01*
X-220837Y88980D01*
X-177274Y88980D01*
X-176988Y88924D01*
X-176735Y88757D01*
X-175458Y87480D01*
X-172542Y87480D01*
X-170480Y89542D01*
X-170480Y92458D01*
X-172542Y94520D01*
X-175458Y94520D01*
X-176735Y93243D01*
X-176976Y93080D01*
X-177274Y93020D01*
X-218848Y93020D01*
X-219134Y93076D01*
X-219386Y93243D01*
X-223757Y97614D01*
X-223920Y97855D01*
X-223980Y98152D01*
X-223980Y99162D01*
X-223933Y99426D01*
X-223774Y99684D01*
X-223526Y99859D01*
X-223230Y99924D01*
X-222932Y99869D01*
X-222679Y99701D01*
X-222458Y99480D01*
X-219542Y99480D01*
X-217480Y101542D01*
X-217480Y103218D01*
X-217429Y103493D01*
X-217265Y103748D01*
X-217015Y103920D01*
X-216718Y103980D01*
X-149567Y103980D01*
X-149281Y103924D01*
X-149028Y103757D01*
X-148251Y102980D01*
X-145749Y102980D01*
X-143980Y104749D01*
X-143980Y107251D01*
X-145749Y109020D01*
X-148251Y109020D01*
X-149028Y108243D01*
X-149269Y108080D01*
X-149567Y108020D01*
X-170162Y108020D01*
X-170426Y108067D01*
X-170684Y108226D01*
X-170859Y108474D01*
X-170924Y108770D01*
X-170869Y109068D01*
X-170701Y109321D01*
X-170480Y109542D01*
X-170480Y112458D01*
X-172542Y114520D01*
X-175458Y114520D01*
X-176735Y113243D01*
X-176976Y113080D01*
X-177274Y113020D01*
X-198848Y113020D01*
X-199134Y113076D01*
X-199386Y113243D01*
X-210757Y124614D01*
X-210920Y124855D01*
X-210980Y125152D01*
X-210980Y139848D01*
X-210924Y140134D01*
X-210757Y140386D01*
X-208886Y142257D01*
X-208645Y142420D01*
X-208348Y142480D01*
X-206542Y142480D01*
X-204480Y144542D01*
X-204480Y147458D01*
X-206542Y149520D01*
X-207640Y149520D01*
X-207904Y149567D01*
X-208162Y149726D01*
X-208337Y149974D01*
X-208402Y150270D01*
X-208347Y150568D01*
X-208179Y150821D01*
X-202266Y156734D01*
X-202178Y156810D01*
X-192829Y163667D01*
X-192672Y163755D01*
X-192227Y163941D01*
X-191933Y164000D01*
X-188088Y164000D01*
X-187983Y164025D01*
X-187956Y164044D01*
X-185167Y166833D01*
X-184922Y166997D01*
X-178856Y169535D01*
X-178691Y169583D01*
X-176321Y169989D01*
X-176193Y170000D01*
X-171088Y170000D01*
X-170983Y170025D01*
X-170956Y170044D01*
X-170084Y170916D01*
X-169956Y171019D01*
X-169674Y171129D01*
X-163895Y172119D01*
X-163787Y172130D01*
X-159972Y172238D01*
X-159950Y172238D01*
X-149532Y172238D01*
X-149257Y172187D01*
X-149002Y172023D01*
X-148830Y171773D01*
X-148770Y171476D01*
X-148770Y169353D01*
X-147147Y167730D01*
X-144853Y167730D01*
X-144326Y168257D01*
X-144084Y168420D01*
X-143787Y168480D01*
X-134652Y168480D01*
X-134366Y168424D01*
X-134114Y168257D01*
X-129178Y163321D01*
X-129025Y163101D01*
X-128955Y162806D01*
X-129006Y162507D01*
X-129169Y162252D01*
X-129419Y162080D01*
X-129716Y162020D01*
X-162787Y162020D01*
X-163073Y162076D01*
X-163326Y162243D01*
X-163853Y162770D01*
X-166147Y162770D01*
X-167770Y161147D01*
X-167770Y158853D01*
X-166147Y157230D01*
X-163853Y157230D01*
X-163326Y157757D01*
X-163084Y157920D01*
X-162787Y157980D01*
X-131152Y157980D01*
X-130866Y157924D01*
X-130614Y157757D01*
X-88928Y116071D01*
X-88775Y115851D01*
X-88705Y115556D01*
X-88756Y115257D01*
X-88919Y115002D01*
X-89169Y114830D01*
X-89466Y114770D01*
X-91147Y114770D01*
X-91674Y114243D01*
X-91916Y114080D01*
X-92213Y114020D01*
X-111223Y114020D01*
X-111486Y114067D01*
X-111744Y114226D01*
X-111920Y114474D01*
X-111985Y114770D01*
X-111929Y115068D01*
X-111762Y115321D01*
X-111326Y115757D01*
X-111084Y115920D01*
X-110787Y115980D01*
X-105163Y115980D01*
X-103136Y118007D01*
X-102895Y118170D01*
X-102598Y118230D01*
X-101853Y118230D01*
X-100230Y119853D01*
X-100230Y122147D01*
X-101853Y123770D01*
X-104147Y123770D01*
X-105770Y122147D01*
X-105770Y121402D01*
X-105826Y121116D01*
X-105993Y120864D01*
X-106614Y120243D01*
X-106855Y120080D01*
X-107152Y120020D01*
X-113837Y120020D01*
X-113864Y119993D01*
X-114105Y119830D01*
X-114402Y119770D01*
X-115147Y119770D01*
X-116770Y118147D01*
X-116770Y115853D01*
X-116238Y115321D01*
X-116085Y115101D01*
X-116015Y114806D01*
X-116066Y114507D01*
X-116230Y114252D01*
X-116480Y114080D01*
X-116777Y114020D01*
X-131848Y114020D01*
X-132134Y114076D01*
X-132386Y114243D01*
X-143072Y124929D01*
X-143225Y125149D01*
X-143295Y125444D01*
X-143244Y125743D01*
X-143081Y125998D01*
X-142831Y126170D01*
X-142534Y126230D01*
X-140853Y126230D01*
X-139230Y127853D01*
X-139230Y130147D01*
X-139757Y130674D01*
X-139920Y130916D01*
X-139980Y131213D01*
X-139980Y148787D01*
X-139924Y149073D01*
X-139757Y149326D01*
X-139230Y149853D01*
X-139230Y152147D01*
X-140853Y153770D01*
X-143147Y153770D01*
X-144770Y152147D01*
X-144770Y149853D01*
X-144243Y149326D01*
X-144080Y149084D01*
X-144020Y148787D01*
X-144020Y131213D01*
X-144076Y130927D01*
X-144243Y130674D01*
X-144770Y130147D01*
X-144770Y128466D01*
X-144817Y128203D01*
X-144976Y127945D01*
X-145224Y127770D01*
X-145520Y127704D01*
X-145818Y127760D01*
X-146071Y127928D01*
X-146163Y128020D01*
X-176848Y128020D01*
X-177134Y128076D01*
X-177386Y128243D01*
X-181604Y132461D01*
X-181762Y132692D01*
X-181828Y132988D01*
X-181772Y133286D01*
X-181604Y133539D01*
X-175136Y140007D01*
X-174895Y140170D01*
X-174598Y140230D01*
X-173853Y140230D01*
X-172230Y141853D01*
X-172230Y144147D01*
X-173853Y145770D01*
X-176147Y145770D01*
X-177770Y144147D01*
X-177770Y143402D01*
X-177826Y143116D01*
X-177993Y142864D01*
X-185614Y135243D01*
X-185855Y135080D01*
X-186152Y135020D01*
X-202787Y135020D01*
X-203073Y135076D01*
X-203326Y135243D01*
X-203853Y135770D01*
X-206147Y135770D01*
X-207770Y134147D01*
X-207770Y131853D01*
X-206147Y130230D01*
X-203853Y130230D01*
X-203326Y130757D01*
X-203084Y130920D01*
X-202787Y130980D01*
X-186152Y130980D01*
X-185866Y130924D01*
X-185614Y130757D01*
X-178837Y123980D01*
X-148152Y123980D01*
X-147866Y123924D01*
X-147614Y123757D01*
X-133837Y109980D01*
X-92213Y109980D01*
X-91927Y109924D01*
X-91674Y109757D01*
X-91147Y109230D01*
X-88853Y109230D01*
X-87230Y110853D01*
X-87230Y112534D01*
X-87183Y112797D01*
X-87024Y113055D01*
X-86776Y113230D01*
X-86480Y113296D01*
X-86182Y113240D01*
X-85929Y113072D01*
X-70243Y97386D01*
X-70080Y97145D01*
X-70020Y96848D01*
X-70020Y95532D01*
X-70071Y95257D01*
X-70235Y95002D01*
X-70485Y94830D01*
X-70782Y94770D01*
X-73147Y94770D01*
X-74770Y93147D01*
X-74770Y92402D01*
X-74826Y92116D01*
X-74993Y91864D01*
X-83614Y83243D01*
X-83855Y83080D01*
X-84152Y83020D01*
X-96848Y83020D01*
X-97134Y83076D01*
X-97386Y83243D01*
X-110007Y95864D01*
X-110170Y96105D01*
X-110230Y96402D01*
X-110230Y97147D01*
X-111853Y98770D01*
X-114147Y98770D01*
X-115770Y97147D01*
X-115770Y94853D01*
X-114147Y93230D01*
X-113402Y93230D01*
X-113116Y93174D01*
X-112864Y93007D01*
X-98837Y78980D01*
X-85782Y78980D01*
X-85507Y78929D01*
X-85252Y78765D01*
X-85080Y78515D01*
X-85020Y78218D01*
X-85020Y78213D01*
X-85076Y77927D01*
X-85243Y77674D01*
X-85770Y77147D01*
X-85770Y74853D01*
X-85243Y74326D01*
X-85080Y74084D01*
X-85020Y73787D01*
X-85020Y15213D01*
X-85076Y14927D01*
X-85243Y14674D01*
X-85770Y14147D01*
X-85770Y11853D01*
X-84147Y10230D01*
X-81853Y10230D01*
X-80230Y11853D01*
X-80230Y14147D01*
X-80757Y14674D01*
X-80920Y14916D01*
X-80980Y15213D01*
X-80980Y55468D01*
X-80929Y55743D01*
X-80765Y55998D01*
X-80515Y56170D01*
X-80218Y56230D01*
X-77853Y56230D01*
X-76230Y57853D01*
X-76230Y60147D01*
X-76757Y60674D01*
X-76920Y60916D01*
X-76980Y61213D01*
X-76980Y78848D01*
X-76924Y79134D01*
X-76757Y79386D01*
X-67321Y88822D01*
X-67101Y88975D01*
X-66806Y89045D01*
X-66507Y88994D01*
X-66252Y88831D01*
X-66080Y88581D01*
X-66020Y88284D01*
X-66020Y45213D01*
X-66076Y44927D01*
X-66243Y44674D01*
X-67770Y43147D01*
X-67770Y40853D01*
X-66147Y39230D01*
X-63782Y39230D01*
X-63507Y39179D01*
X-63252Y39015D01*
X-63080Y38765D01*
X-63020Y38468D01*
X-63020Y-19337D01*
X-43337Y-39020D01*
X-19713Y-39020D01*
X-19427Y-39076D01*
X-19174Y-39243D01*
X-18647Y-39770D01*
X-16353Y-39770D01*
X-15039Y-38456D01*
X-14808Y-38298D01*
X-14512Y-38233D01*
X-14214Y-38289D01*
X-13961Y-38456D01*
X-13647Y-38770D01*
X-11353Y-38770D01*
X-9730Y-37147D01*
X-9730Y-34853D01*
X-11353Y-33230D01*
X-12098Y-33230D01*
X-12384Y-33174D01*
X-12636Y-33007D01*
X-14354Y-31289D01*
X-14512Y-31058D01*
X-14578Y-30762D01*
X-14522Y-30464D01*
X-14354Y-30211D01*
X-9071Y-24928D01*
X-8851Y-24775D01*
X-8556Y-24705D01*
X-8257Y-24756D01*
X-8002Y-24919D01*
X-7830Y-25169D01*
X-7770Y-25466D01*
X-7770Y-25647D01*
X-6743Y-26674D01*
X-6580Y-26916D01*
X-6520Y-27213D01*
X-6520Y-31287D01*
X-6576Y-31573D01*
X-6743Y-31826D01*
X-7270Y-32353D01*
X-7270Y-34647D01*
X-5647Y-36270D01*
X-3353Y-36270D01*
X-1730Y-34647D01*
X-1730Y-32353D01*
X-2257Y-31826D01*
X-2420Y-31584D01*
X-2480Y-31287D01*
X-2480Y-27777D01*
X-2433Y-27514D01*
X-2274Y-27256D01*
X-2026Y-27080D01*
X-1730Y-27015D01*
X-1432Y-27071D01*
X-1179Y-27238D01*
X-1147Y-27270D01*
X1147Y-27270D01*
X1961Y-26456D01*
X2192Y-26298D01*
X2488Y-26233D01*
X2786Y-26289D01*
X3039Y-26456D01*
X3853Y-27270D01*
X4598Y-27270D01*
X4884Y-27326D01*
X5136Y-27493D01*
X12572Y-34929D01*
X12725Y-35149D01*
X12795Y-35444D01*
X12744Y-35743D01*
X12581Y-35998D01*
X12331Y-36170D01*
X12034Y-36230D01*
X11853Y-36230D01*
X10230Y-37853D01*
X10230Y-40147D01*
X11853Y-41770D01*
X14147Y-41770D01*
X15770Y-40147D01*
X15770Y-39966D01*
X15817Y-39703D01*
X15976Y-39445D01*
X16224Y-39270D01*
X16520Y-39204D01*
X16818Y-39260D01*
X17071Y-39428D01*
X21663Y-44020D01*
X35787Y-44020D01*
X36073Y-44076D01*
X36326Y-44243D01*
X36853Y-44770D01*
X39147Y-44770D01*
X40905Y-43012D01*
X41125Y-42859D01*
X41420Y-42789D01*
X41719Y-42840D01*
X41974Y-43004D01*
X42146Y-43254D01*
X42206Y-43551D01*
X42206Y-53527D01*
X42150Y-53813D01*
X41983Y-54066D01*
X36066Y-59983D01*
X35824Y-60146D01*
X35527Y-60206D01*
X-14157Y-60206D01*
X-15794Y-61843D01*
X-15794Y-64157D01*
X-14157Y-65794D01*
X38157Y-65794D01*
X47794Y-56157D01*
X47794Y46527D01*
X47850Y46813D01*
X48017Y47066D01*
X60934Y59983D01*
X61176Y60146D01*
X61473Y60206D01*
X90157Y60206D01*
X91794Y61843D01*
X91794Y64157D01*
X90157Y65794D01*
X58843Y65794D01*
X42206Y49157D01*
X42206Y-40449D01*
X42159Y-40712D01*
X42000Y-40970D01*
X41752Y-41146D01*
X41456Y-41211D01*
X41158Y-41155D01*
X40905Y-40988D01*
X39147Y-39230D01*
X36576Y-39230D01*
X36556Y-39235D01*
X36257Y-39184D01*
X36002Y-39020D01*
X35830Y-38770D01*
X35770Y-38473D01*
X35770Y-36853D01*
X34755Y-35838D01*
X34592Y-35596D01*
X34532Y-35299D01*
X34532Y-19201D01*
X34588Y-18915D01*
X34755Y-18662D01*
X35270Y-18147D01*
X35270Y-15853D01*
X33647Y-14230D01*
X31353Y-14230D01*
X29730Y-15853D01*
X29730Y-18147D01*
X30245Y-18662D01*
X30408Y-18904D01*
X30468Y-19201D01*
X30468Y-36299D01*
X30412Y-36585D01*
X30245Y-36838D01*
X30230Y-36853D01*
X30230Y-39218D01*
X30179Y-39493D01*
X30015Y-39748D01*
X29765Y-39920D01*
X29468Y-39980D01*
X23652Y-39980D01*
X23366Y-39924D01*
X23114Y-39757D01*
X7993Y-24636D01*
X7830Y-24395D01*
X7770Y-24098D01*
X7770Y-23353D01*
X6147Y-21730D01*
X3853Y-21730D01*
X3039Y-22544D01*
X2808Y-22702D01*
X2512Y-22767D01*
X2214Y-22711D01*
X1961Y-22544D01*
X1147Y-21730D01*
X402Y-21730D01*
X116Y-21674D01*
X-136Y-21507D01*
X-2663Y-18980D01*
X-8837Y-18980D01*
X-16614Y-26757D01*
X-16855Y-26920D01*
X-17152Y-26980D01*
X-30223Y-26980D01*
X-30486Y-26933D01*
X-30744Y-26774D01*
X-30920Y-26526D01*
X-30985Y-26230D01*
X-30929Y-25932D01*
X-30762Y-25679D01*
X-29230Y-24147D01*
X-29230Y-21853D01*
X-30853Y-20230D01*
X-33147Y-20230D01*
X-34770Y-21853D01*
X-34770Y-24147D01*
X-33238Y-25679D01*
X-33085Y-25899D01*
X-33015Y-26194D01*
X-33066Y-26493D01*
X-33230Y-26748D01*
X-33480Y-26920D01*
X-33777Y-26980D01*
X-38787Y-26980D01*
X-39073Y-26924D01*
X-39326Y-26757D01*
X-39853Y-26230D01*
X-42147Y-26230D01*
X-43742Y-27824D01*
X-43972Y-27982D01*
X-44268Y-28047D01*
X-44566Y-27992D01*
X-44819Y-27824D01*
X-55757Y-16886D01*
X-55920Y-16645D01*
X-55980Y-16348D01*
X-55980Y3284D01*
X-55933Y3547D01*
X-55774Y3805D01*
X-55526Y3980D01*
X-55230Y4046D01*
X-54932Y3990D01*
X-54679Y3822D01*
X-46993Y-3864D01*
X-46830Y-4105D01*
X-46770Y-4402D01*
X-46770Y-5147D01*
X-45147Y-6770D01*
X-42853Y-6770D01*
X-41230Y-5147D01*
X-41230Y-2853D01*
X-42853Y-1230D01*
X-43598Y-1230D01*
X-43884Y-1174D01*
X-44136Y-1007D01*
X-52757Y7614D01*
X-52920Y7855D01*
X-52980Y8152D01*
X-52980Y18284D01*
X-52933Y18547D01*
X-52774Y18805D01*
X-52526Y18980D01*
X-52230Y19046D01*
X-51932Y18990D01*
X-51679Y18822D01*
X-41426Y8569D01*
X-41268Y8339D01*
X-41203Y8043D01*
X-41258Y7744D01*
X-41426Y7492D01*
X-42770Y6147D01*
X-42770Y3853D01*
X-41147Y2230D01*
X-40402Y2230D01*
X-40116Y2174D01*
X-39864Y2007D01*
X-33837Y-4020D01*
X-25277Y-4020D01*
X-25014Y-4067D01*
X-24756Y-4226D01*
X-24580Y-4474D01*
X-24515Y-4770D01*
X-24571Y-5068D01*
X-24738Y-5321D01*
X-25270Y-5853D01*
X-25270Y-8147D01*
X-23647Y-9770D01*
X-21353Y-9770D01*
X-20826Y-9243D01*
X-20584Y-9080D01*
X-20287Y-9020D01*
X-20163Y-9020D01*
X-16980Y-5837D01*
X-16980Y10837D01*
X-21163Y15020D01*
X-29468Y15020D01*
X-29743Y15071D01*
X-29998Y15235D01*
X-30170Y15485D01*
X-30230Y15782D01*
X-30230Y16147D01*
X-31853Y17770D01*
X-34147Y17770D01*
X-34961Y16956D01*
X-35192Y16798D01*
X-35488Y16733D01*
X-35786Y16789D01*
X-36039Y16956D01*
X-37853Y18770D01*
X-40147Y18770D01*
X-41770Y17147D01*
X-41770Y16466D01*
X-41817Y16203D01*
X-41976Y15945D01*
X-42224Y15770D01*
X-42520Y15704D01*
X-42818Y15760D01*
X-43071Y15928D01*
X-49757Y22614D01*
X-49920Y22855D01*
X-49980Y23152D01*
X-49980Y44468D01*
X-49929Y44743D01*
X-49765Y44998D01*
X-49515Y45170D01*
X-49218Y45230D01*
X-47353Y45230D01*
X-45730Y46853D01*
X-45730Y47598D01*
X-45674Y47884D01*
X-45507Y48136D01*
X-43571Y50072D01*
X-43351Y50225D01*
X-43056Y50295D01*
X-42757Y50244D01*
X-42502Y50081D01*
X-42330Y49831D01*
X-42270Y49534D01*
X-42270Y48902D01*
X-42326Y48616D01*
X-42493Y48364D01*
X-44020Y46837D01*
X-44020Y40163D01*
X-38837Y34980D01*
X-38152Y34980D01*
X-37866Y34924D01*
X-37614Y34757D01*
X-37176Y34319D01*
X-37018Y34089D01*
X-36953Y33793D01*
X-37008Y33494D01*
X-37176Y33242D01*
X-38770Y31647D01*
X-38770Y29353D01*
X-37147Y27730D01*
X-34853Y27730D01*
X-34321Y28262D01*
X-34101Y28415D01*
X-33806Y28485D01*
X-33507Y28434D01*
X-33252Y28270D01*
X-33080Y28020D01*
X-33020Y27723D01*
X-33020Y24163D01*
X-29993Y21136D01*
X-29830Y20895D01*
X-29770Y20598D01*
X-29770Y19853D01*
X-28147Y18230D01*
X-25853Y18230D01*
X-24230Y19853D01*
X-24230Y22147D01*
X-25853Y23770D01*
X-26598Y23770D01*
X-26884Y23826D01*
X-27136Y23993D01*
X-28757Y25614D01*
X-28920Y25855D01*
X-28980Y26152D01*
X-28980Y28284D01*
X-28933Y28547D01*
X-28774Y28805D01*
X-28526Y28980D01*
X-28230Y29046D01*
X-27932Y28990D01*
X-27679Y28822D01*
X-26993Y28136D01*
X-26830Y27895D01*
X-26770Y27598D01*
X-26770Y26853D01*
X-25147Y25230D01*
X-22853Y25230D01*
X-21230Y26853D01*
X-21230Y29147D01*
X-22853Y30770D01*
X-23598Y30770D01*
X-23884Y30826D01*
X-24136Y30993D01*
X-35007Y41864D01*
X-35170Y42105D01*
X-35230Y42402D01*
X-35230Y43147D01*
X-36853Y44770D01*
X-37473Y44770D01*
X-37736Y44817D01*
X-37994Y44976D01*
X-38170Y45224D01*
X-38235Y45520D01*
X-38179Y45818D01*
X-38012Y46071D01*
X-36730Y47353D01*
X-36730Y49647D01*
X-36762Y49679D01*
X-36915Y49899D01*
X-36985Y50194D01*
X-36934Y50493D01*
X-36770Y50748D01*
X-36520Y50920D01*
X-36223Y50980D01*
X-13152Y50980D01*
X-12866Y50924D01*
X-12614Y50757D01*
X2757Y35386D01*
X2920Y35145D01*
X2980Y34848D01*
X2980Y32713D01*
X2924Y32427D01*
X2757Y32174D01*
X2230Y31647D01*
X2230Y29353D01*
X3853Y27730D01*
X6147Y27730D01*
X7770Y29353D01*
X7770Y31647D01*
X7243Y32174D01*
X7080Y32416D01*
X7020Y32713D01*
X7020Y36837D01*
X-8822Y52679D01*
X-8975Y52899D01*
X-9045Y53194D01*
X-8994Y53493D01*
X-8831Y53748D01*
X-8581Y53920D01*
X-8284Y53980D01*
X-4152Y53980D01*
X-3866Y53924D01*
X-3614Y53757D01*
X2007Y48136D01*
X2170Y47895D01*
X2230Y47598D01*
X2230Y46853D01*
X3853Y45230D01*
X6147Y45230D01*
X7770Y46853D01*
X7770Y49147D01*
X6147Y50770D01*
X5402Y50770D01*
X5116Y50826D01*
X4864Y50993D01*
X-822Y56679D01*
X-975Y56899D01*
X-1045Y57194D01*
X-994Y57493D01*
X-831Y57748D01*
X-581Y57920D01*
X-284Y57980D01*
X22837Y57980D01*
X31864Y67007D01*
X32105Y67170D01*
X32402Y67230D01*
X33147Y67230D01*
X34770Y68853D01*
X34770Y71218D01*
X34821Y71493D01*
X34985Y71748D01*
X35235Y71920D01*
X35532Y71980D01*
X98787Y71980D01*
X99073Y71924D01*
X99326Y71757D01*
X100853Y70230D01*
X103147Y70230D01*
X104770Y71853D01*
X104770Y74147D01*
X103147Y75770D01*
X102402Y75770D01*
X102116Y75826D01*
X101864Y75993D01*
X101837Y76020D01*
X65532Y76020D01*
X65257Y76071D01*
X65002Y76235D01*
X64830Y76485D01*
X64770Y76782D01*
X64770Y77098D01*
X64826Y77384D01*
X64993Y77636D01*
X67114Y79757D01*
X67355Y79920D01*
X67652Y79980D01*
X71837Y79980D01*
X82614Y90757D01*
X82855Y90920D01*
X83152Y90980D01*
X183837Y90980D01*
X187864Y95007D01*
X188105Y95170D01*
X188402Y95230D01*
X189147Y95230D01*
X190770Y96853D01*
X190770Y99147D01*
X189147Y100770D01*
X186853Y100770D01*
X185230Y99147D01*
X185230Y98402D01*
X185174Y98116D01*
X185007Y97864D01*
X182386Y95243D01*
X182145Y95080D01*
X181848Y95020D01*
X172716Y95020D01*
X172453Y95067D01*
X172195Y95226D01*
X172020Y95474D01*
X171954Y95770D01*
X172010Y96068D01*
X172178Y96321D01*
X174864Y99007D01*
X175105Y99170D01*
X175402Y99230D01*
X176147Y99230D01*
X177770Y100853D01*
X177770Y103147D01*
X176147Y104770D01*
X173853Y104770D01*
X172230Y103147D01*
X172230Y102402D01*
X172174Y102116D01*
X172007Y101864D01*
X168386Y98243D01*
X168145Y98080D01*
X167848Y98020D01*
X-26444Y98020D01*
X-26719Y98071D01*
X-26974Y98235D01*
X-27146Y98485D01*
X-27206Y98782D01*
X-27206Y101157D01*
X-28843Y102794D01*
X-53218Y102794D01*
X-53493Y102845D01*
X-53748Y103009D01*
X-53920Y103259D01*
X-53980Y103556D01*
X-53980Y162837D01*
X-57007Y165864D01*
X-57170Y166105D01*
X-57230Y166402D01*
X-57230Y167147D01*
X-58853Y168770D01*
X-61147Y168770D01*
X-62770Y167147D01*
X-62770Y164853D01*
X-61147Y163230D01*
X-60402Y163230D01*
X-60116Y163174D01*
X-59864Y163007D01*
X-58243Y161386D01*
X-58080Y161145D01*
X-58020Y160848D01*
X-58020Y99716D01*
X-58067Y99453D01*
X-58226Y99195D01*
X-58474Y99020D01*
X-58770Y98954D01*
X-59068Y99010D01*
X-59321Y99178D01*
X-93757Y133614D01*
X-93920Y133855D01*
X-93980Y134152D01*
X-93980Y157787D01*
X-93924Y158073D01*
X-93757Y158326D01*
X-93230Y158853D01*
X-93230Y161147D01*
X-94853Y162770D01*
X-97147Y162770D01*
X-98770Y161147D01*
X-98770Y158853D01*
X-98243Y158326D01*
X-98080Y158084D01*
X-98020Y157787D01*
X-98020Y132716D01*
X-98067Y132453D01*
X-98226Y132195D01*
X-98474Y132020D01*
X-98770Y131954D01*
X-99068Y132010D01*
X-99321Y132178D01*
X-106072Y138929D01*
X-106225Y139149D01*
X-106295Y139444D01*
X-106244Y139743D01*
X-106081Y139998D01*
X-105831Y140170D01*
X-105534Y140230D01*
X-104853Y140230D01*
X-103230Y141853D01*
X-103230Y144147D01*
X-104853Y145770D01*
X-105598Y145770D01*
X-105884Y145826D01*
X-106136Y145993D01*
X-131080Y170937D01*
X-131233Y171157D01*
X-131303Y171452D01*
X-131252Y171751D01*
X-131089Y172006D01*
X-130839Y172178D01*
X-130542Y172238D01*
X-49835Y172238D01*
X-49600Y172201D01*
X-49336Y172052D01*
X-49151Y171811D01*
X-49074Y171518D01*
X-49118Y171218D01*
X-49261Y170983D01*
X-49258Y170981D01*
X-49276Y170959D01*
X-49276Y170959D01*
X-49276Y170958D01*
X-49400Y170801D01*
X-49505Y170646D01*
X-50121Y169666D01*
X-50227Y169482D01*
X-50313Y169301D01*
X-50381Y169128D01*
X-50763Y168034D01*
X-50826Y167830D01*
X-50869Y167636D01*
X-50897Y167451D01*
X-51025Y166309D01*
X-51044Y165981D01*
X-51044Y165139D01*
X-51102Y164848D01*
X-51590Y163669D01*
X-51590Y162762D01*
X-34810Y162762D01*
X-34810Y163669D01*
X-35298Y164848D01*
X-35356Y165139D01*
X-35356Y165981D01*
X-35375Y166309D01*
X-35503Y167450D01*
X-35535Y167659D01*
X-35580Y167854D01*
X-35636Y168032D01*
X-36019Y169126D01*
X-36097Y169324D01*
X-36184Y169503D01*
X-36278Y169665D01*
X-36894Y170645D01*
X-37014Y170821D01*
X-37157Y170998D01*
X-37149Y171004D01*
X-37255Y171157D01*
X-37325Y171452D01*
X-37274Y171751D01*
X-37111Y172006D01*
X-36861Y172178D01*
X-36563Y172238D01*
X36565Y172238D01*
X36800Y172201D01*
X37064Y172052D01*
X37249Y171811D01*
X37326Y171518D01*
X37282Y171218D01*
X37139Y170983D01*
X37142Y170981D01*
X37124Y170959D01*
X37124Y170959D01*
X37124Y170958D01*
X37000Y170801D01*
X36895Y170646D01*
X36279Y169666D01*
X36173Y169482D01*
X36087Y169301D01*
X36019Y169128D01*
X35637Y168034D01*
X35574Y167830D01*
X35531Y167636D01*
X35503Y167451D01*
X35375Y166309D01*
X35356Y165981D01*
X35356Y165139D01*
X35298Y164848D01*
X34810Y163669D01*
X34810Y162762D01*
X51590Y162762D01*
X51590Y163669D01*
X51102Y164848D01*
X51044Y165139D01*
X51044Y165981D01*
X51025Y166309D01*
X50897Y167450D01*
X50865Y167659D01*
X50820Y167854D01*
X50764Y168032D01*
X50381Y169126D01*
X50303Y169324D01*
X50216Y169503D01*
X50122Y169665D01*
X49506Y170645D01*
X49386Y170821D01*
X49243Y170998D01*
X49251Y171004D01*
X49145Y171157D01*
X49075Y171452D01*
X49126Y171751D01*
X49289Y172006D01*
X49539Y172178D01*
X49837Y172238D01*
X87446Y172238D01*
X87732Y172182D01*
X87985Y172015D01*
X92777Y167223D01*
X92940Y166982D01*
X93000Y166684D01*
X93000Y138052D01*
X93006Y138012D01*
X93007Y138009D01*
X93062Y138000D01*
X204684Y138000D01*
X204970Y137944D01*
X205223Y137777D01*
X216964Y126036D01*
X217144Y125751D01*
X217185Y125451D01*
X217107Y125158D01*
X217065Y125104D01*
X217072Y125101D01*
X217016Y125008D01*
X217062Y125000D01*
X219684Y125000D01*
X219970Y124944D01*
X220223Y124777D01*
X225434Y119566D01*
X225560Y119401D01*
X225653Y119112D01*
X227233Y105085D01*
X227238Y105000D01*
X227238Y-105000D01*
X227233Y-105085D01*
X225567Y-119878D01*
X225529Y-120044D01*
X223741Y-125152D01*
X223561Y-125439D01*
X180439Y-168561D01*
X180152Y-168741D01*
X175044Y-170529D01*
X174878Y-170567D01*
X162198Y-171995D01*
X162112Y-172000D01*
X137524Y-172000D01*
X137249Y-171949D01*
X136994Y-171785D01*
X136822Y-171535D01*
X136762Y-171238D01*
X136762Y-155856D01*
X136156Y-155250D01*
X136004Y-155033D01*
X135992Y-155007D01*
X135926Y-154972D01*
X135743Y-154837D01*
X135144Y-154238D01*
X84856Y-154238D01*
X84317Y-154777D01*
X84076Y-154940D01*
X83778Y-155000D01*
X83052Y-155000D01*
X83012Y-155006D01*
X83009Y-155007D01*
X83000Y-155062D01*
X83000Y-171476D01*
X82949Y-171751D01*
X82785Y-172006D01*
X82535Y-172178D01*
X82238Y-172238D01*
X27524Y-172238D01*
X27249Y-172187D01*
X26994Y-172023D01*
X26822Y-171773D01*
X26762Y-171476D01*
X26762Y-155856D01*
X26223Y-155317D01*
X26060Y-155076D01*
X26000Y-154778D01*
X26000Y-152068D01*
X26056Y-151782D01*
X26082Y-151742D01*
X26082Y-139882D01*
X26060Y-139850D01*
X26000Y-139552D01*
X26000Y-139052D01*
X25994Y-139012D01*
X25993Y-139009D01*
X25938Y-139000D01*
X-26948Y-139000D01*
X-26988Y-139006D01*
X-26991Y-139007D01*
X-27000Y-139062D01*
X-27000Y-171476D01*
X-27051Y-171751D01*
X-27215Y-172006D01*
X-27465Y-172178D01*
G37*
%LPC*%
G36*
X-42438Y161238D02*
X-42438Y150226D01*
X-41750Y150303D01*
X-41541Y150335D01*
X-41346Y150380D01*
X-41168Y150436D01*
X-40074Y150819D01*
X-39876Y150897D01*
X-39697Y150984D01*
X-39535Y151078D01*
X-38555Y151694D01*
X-38379Y151814D01*
X-38223Y151940D01*
X-38088Y152066D01*
X-37268Y152886D01*
X-37124Y153042D01*
X-37000Y153199D01*
X-36895Y153354D01*
X-36279Y154334D01*
X-36173Y154518D01*
X-36087Y154699D01*
X-36019Y154872D01*
X-35637Y155966D01*
X-35574Y156170D01*
X-35531Y156364D01*
X-35503Y156549D01*
X-35375Y157691D01*
X-35356Y158019D01*
X-35356Y158861D01*
X-35298Y159152D01*
X-34810Y160331D01*
X-34810Y161238D01*
X-42438Y161238D01*
G37*
G36*
X41749Y150303D02*
X42438Y150226D01*
X42438Y161238D01*
X34810Y161238D01*
X34810Y160331D01*
X35298Y159152D01*
X35356Y158861D01*
X35356Y158019D01*
X35375Y157691D01*
X35503Y156550D01*
X35535Y156341D01*
X35580Y156146D01*
X35636Y155968D01*
X36019Y154874D01*
X36097Y154676D01*
X36184Y154497D01*
X36278Y154335D01*
X36894Y153355D01*
X37014Y153179D01*
X37140Y153023D01*
X37266Y152888D01*
X38086Y152068D01*
X38242Y151924D01*
X38399Y151800D01*
X38554Y151695D01*
X39534Y151079D01*
X39718Y150973D01*
X39899Y150887D01*
X40072Y150819D01*
X41166Y150437D01*
X41370Y150374D01*
X41564Y150331D01*
X41749Y150303D01*
G37*
G36*
X43962Y161238D02*
X43962Y150226D01*
X44650Y150303D01*
X44859Y150335D01*
X45054Y150380D01*
X45232Y150436D01*
X46326Y150819D01*
X46524Y150897D01*
X46703Y150984D01*
X46865Y151078D01*
X47845Y151694D01*
X48021Y151814D01*
X48177Y151940D01*
X48312Y152066D01*
X49132Y152886D01*
X49276Y153042D01*
X49400Y153199D01*
X49505Y153354D01*
X50121Y154334D01*
X50227Y154518D01*
X50313Y154699D01*
X50381Y154872D01*
X50763Y155966D01*
X50826Y156170D01*
X50869Y156364D01*
X50897Y156549D01*
X51025Y157691D01*
X51044Y158019D01*
X51044Y158861D01*
X51102Y159152D01*
X51590Y160331D01*
X51590Y161238D01*
X43962Y161238D01*
G37*
G36*
X-44651Y150303D02*
X-43962Y150226D01*
X-43962Y161238D01*
X-51590Y161238D01*
X-51590Y160331D01*
X-51102Y159152D01*
X-51044Y158861D01*
X-51044Y158019D01*
X-51025Y157691D01*
X-50897Y156550D01*
X-50865Y156341D01*
X-50820Y156146D01*
X-50764Y155968D01*
X-50381Y154874D01*
X-50303Y154676D01*
X-50216Y154497D01*
X-50122Y154335D01*
X-49506Y153355D01*
X-49386Y153179D01*
X-49261Y153023D01*
X-49134Y152888D01*
X-48314Y152068D01*
X-48158Y151924D01*
X-48001Y151800D01*
X-47846Y151695D01*
X-46866Y151079D01*
X-46682Y150973D01*
X-46501Y150887D01*
X-46328Y150819D01*
X-45234Y150437D01*
X-45030Y150374D01*
X-44836Y150331D01*
X-44651Y150303D01*
G37*
G36*
X-29994Y120000D02*
X-27806Y120000D01*
X-25785Y120837D01*
X-24237Y122385D01*
X-23400Y124406D01*
X-23400Y126594D01*
X-24237Y128616D01*
X-25785Y130163D01*
X-27806Y131000D01*
X-29994Y131000D01*
X-32016Y130163D01*
X-33563Y128616D01*
X-34065Y127402D01*
X-34350Y127057D01*
X-34631Y126944D01*
X-34934Y126949D01*
X-35211Y127072D01*
X-35418Y127294D01*
X-35523Y127579D01*
X-35535Y127659D01*
X-35580Y127854D01*
X-35636Y128032D01*
X-36019Y129126D01*
X-36097Y129324D01*
X-36184Y129503D01*
X-36278Y129665D01*
X-36894Y130645D01*
X-37014Y130821D01*
X-37140Y130977D01*
X-37266Y131112D01*
X-38086Y131932D01*
X-38242Y132076D01*
X-38399Y132200D01*
X-38554Y132305D01*
X-39534Y132921D01*
X-39718Y133027D01*
X-39899Y133113D01*
X-40072Y133181D01*
X-41166Y133563D01*
X-41370Y133626D01*
X-41564Y133669D01*
X-41749Y133697D01*
X-42438Y133774D01*
X-42438Y121262D01*
X-34810Y121262D01*
X-34810Y121792D01*
X-34763Y122056D01*
X-34604Y122314D01*
X-34356Y122489D01*
X-34060Y122554D01*
X-33762Y122499D01*
X-33509Y122331D01*
X-32016Y120837D01*
X-29994Y120000D01*
G37*
G36*
X43962Y121262D02*
X51590Y121262D01*
X51590Y122169D01*
X51102Y123348D01*
X51044Y123639D01*
X51044Y125981D01*
X51025Y126309D01*
X50897Y127450D01*
X50865Y127659D01*
X50820Y127854D01*
X50764Y128032D01*
X50381Y129126D01*
X50303Y129324D01*
X50216Y129503D01*
X50122Y129665D01*
X49506Y130645D01*
X49386Y130821D01*
X49261Y130977D01*
X49134Y131112D01*
X48314Y131932D01*
X48158Y132076D01*
X48001Y132200D01*
X47846Y132305D01*
X46866Y132921D01*
X46682Y133027D01*
X46501Y133113D01*
X46328Y133181D01*
X45234Y133563D01*
X45030Y133626D01*
X44836Y133669D01*
X44651Y133697D01*
X43962Y133774D01*
X43962Y121262D01*
G37*
G36*
X-51590Y121262D02*
X-43962Y121262D01*
X-43962Y133774D01*
X-44650Y133697D01*
X-44859Y133665D01*
X-45054Y133620D01*
X-45232Y133564D01*
X-46326Y133181D01*
X-46524Y133103D01*
X-46703Y133016D01*
X-46865Y132922D01*
X-47845Y132306D01*
X-48021Y132186D01*
X-48177Y132061D01*
X-48312Y131934D01*
X-49132Y131114D01*
X-49276Y130958D01*
X-49400Y130801D01*
X-49505Y130646D01*
X-50121Y129666D01*
X-50227Y129482D01*
X-50313Y129301D01*
X-50381Y129128D01*
X-50763Y128034D01*
X-50826Y127830D01*
X-50869Y127636D01*
X-50897Y127451D01*
X-51025Y126309D01*
X-51044Y125981D01*
X-51044Y123639D01*
X-51102Y123348D01*
X-51590Y122169D01*
X-51590Y121262D01*
G37*
G36*
X27806Y120000D02*
X29994Y120000D01*
X32016Y120837D01*
X33509Y122331D01*
X33729Y122484D01*
X34024Y122554D01*
X34323Y122503D01*
X34578Y122340D01*
X34750Y122089D01*
X34810Y121792D01*
X34810Y121262D01*
X42438Y121262D01*
X42438Y133774D01*
X41750Y133697D01*
X41541Y133665D01*
X41346Y133620D01*
X41168Y133564D01*
X40074Y133181D01*
X39876Y133103D01*
X39697Y133016D01*
X39535Y132922D01*
X38555Y132306D01*
X38379Y132186D01*
X38223Y132061D01*
X38088Y131934D01*
X37268Y131114D01*
X37124Y130958D01*
X37000Y130801D01*
X36895Y130646D01*
X36279Y129666D01*
X36173Y129482D01*
X36087Y129301D01*
X36019Y129128D01*
X35637Y128034D01*
X35574Y127830D01*
X35531Y127636D01*
X35523Y127583D01*
X35329Y127178D01*
X35083Y127000D01*
X34787Y126933D01*
X34489Y126986D01*
X34234Y127151D01*
X34065Y127403D01*
X33563Y128616D01*
X32016Y130163D01*
X29994Y131000D01*
X27806Y131000D01*
X25785Y130163D01*
X24237Y128616D01*
X23400Y126594D01*
X23400Y124406D01*
X24237Y122385D01*
X25785Y120837D01*
X27806Y120000D01*
G37*
G36*
X43962Y119738D02*
X43962Y107226D01*
X44650Y107303D01*
X44859Y107335D01*
X45054Y107380D01*
X45232Y107436D01*
X46326Y107819D01*
X46524Y107897D01*
X46703Y107984D01*
X46865Y108078D01*
X47845Y108694D01*
X48021Y108814D01*
X48177Y108940D01*
X48312Y109066D01*
X49132Y109886D01*
X49276Y110042D01*
X49400Y110199D01*
X49505Y110354D01*
X50121Y111334D01*
X50227Y111518D01*
X50313Y111699D01*
X50381Y111872D01*
X50763Y112966D01*
X50826Y113170D01*
X50869Y113364D01*
X50897Y113549D01*
X51025Y114691D01*
X51044Y115019D01*
X51044Y117361D01*
X51102Y117652D01*
X51590Y118831D01*
X51590Y119738D01*
X43962Y119738D01*
G37*
G36*
X-44651Y107303D02*
X-43962Y107226D01*
X-43962Y119738D01*
X-51590Y119738D01*
X-51590Y118831D01*
X-51102Y117652D01*
X-51044Y117361D01*
X-51044Y115019D01*
X-51025Y114691D01*
X-50897Y113550D01*
X-50865Y113341D01*
X-50820Y113146D01*
X-50764Y112968D01*
X-50381Y111874D01*
X-50303Y111676D01*
X-50216Y111497D01*
X-50122Y111335D01*
X-49506Y110355D01*
X-49386Y110179D01*
X-49261Y110023D01*
X-49134Y109888D01*
X-48314Y109068D01*
X-48158Y108924D01*
X-48001Y108800D01*
X-47846Y108695D01*
X-46866Y108079D01*
X-46682Y107973D01*
X-46501Y107887D01*
X-46328Y107819D01*
X-45234Y107437D01*
X-45030Y107374D01*
X-44836Y107331D01*
X-44651Y107303D01*
G37*
G36*
X41749Y107303D02*
X42438Y107226D01*
X42438Y119738D01*
X34810Y119738D01*
X34810Y118831D01*
X35298Y117652D01*
X35356Y117361D01*
X35356Y115019D01*
X35375Y114691D01*
X35503Y113550D01*
X35535Y113341D01*
X35580Y113146D01*
X35636Y112968D01*
X36019Y111874D01*
X36097Y111676D01*
X36184Y111497D01*
X36278Y111335D01*
X36894Y110355D01*
X37014Y110179D01*
X37140Y110023D01*
X37266Y109888D01*
X38086Y109068D01*
X38242Y108924D01*
X38399Y108800D01*
X38554Y108695D01*
X39534Y108079D01*
X39718Y107973D01*
X39899Y107887D01*
X40072Y107819D01*
X41166Y107437D01*
X41370Y107374D01*
X41564Y107331D01*
X41749Y107303D01*
G37*
G36*
X-42438Y119738D02*
X-42438Y107226D01*
X-41750Y107303D01*
X-41541Y107335D01*
X-41346Y107380D01*
X-41168Y107436D01*
X-40074Y107819D01*
X-39876Y107897D01*
X-39697Y107984D01*
X-39535Y108078D01*
X-38555Y108694D01*
X-38379Y108814D01*
X-38223Y108940D01*
X-38088Y109066D01*
X-37268Y109886D01*
X-37124Y110042D01*
X-37000Y110199D01*
X-36895Y110354D01*
X-36279Y111334D01*
X-36173Y111518D01*
X-36087Y111699D01*
X-36019Y111872D01*
X-35637Y112966D01*
X-35574Y113170D01*
X-35531Y113364D01*
X-35503Y113549D01*
X-35375Y114691D01*
X-35356Y115019D01*
X-35356Y117361D01*
X-35298Y117652D01*
X-34810Y118831D01*
X-34810Y119738D01*
X-42438Y119738D01*
G37*
G36*
X-131147Y86230D02*
X-128853Y86230D01*
X-127230Y87853D01*
X-127230Y90147D01*
X-128853Y91770D01*
X-131147Y91770D01*
X-132770Y90147D01*
X-132770Y87853D01*
X-131147Y86230D01*
G37*
G36*
X153853Y51230D02*
X156147Y51230D01*
X157770Y52853D01*
X157770Y55147D01*
X156147Y56770D01*
X153853Y56770D01*
X152230Y55147D01*
X152230Y52853D01*
X153853Y51230D01*
G37*
G36*
X-140147Y-101770D02*
X-137853Y-101770D01*
X-136230Y-100147D01*
X-136230Y-97853D01*
X-136757Y-97326D01*
X-136920Y-97084D01*
X-136980Y-96787D01*
X-136980Y-20277D01*
X-136933Y-20014D01*
X-136774Y-19756D01*
X-136526Y-19580D01*
X-136230Y-19515D01*
X-135932Y-19571D01*
X-135679Y-19738D01*
X-135147Y-20270D01*
X-132853Y-20270D01*
X-131230Y-18647D01*
X-131230Y-16353D01*
X-132853Y-14730D01*
X-135147Y-14730D01*
X-135679Y-15262D01*
X-135899Y-15415D01*
X-136194Y-15485D01*
X-136493Y-15434D01*
X-136748Y-15270D01*
X-136920Y-15020D01*
X-136980Y-14723D01*
X-136980Y-2777D01*
X-136933Y-2514D01*
X-136774Y-2256D01*
X-136526Y-2080D01*
X-136230Y-2015D01*
X-135932Y-2071D01*
X-135679Y-2238D01*
X-134147Y-3770D01*
X-131853Y-3770D01*
X-130230Y-2147D01*
X-130230Y147D01*
X-130757Y674D01*
X-130920Y916D01*
X-130980Y1213D01*
X-130980Y3848D01*
X-130924Y4134D01*
X-130757Y4386D01*
X-119321Y15822D01*
X-119101Y15975D01*
X-118806Y16045D01*
X-118507Y15994D01*
X-118252Y15831D01*
X-118080Y15581D01*
X-118020Y15284D01*
X-118020Y-2837D01*
X-113993Y-6864D01*
X-113830Y-7105D01*
X-113770Y-7402D01*
X-113770Y-8147D01*
X-112147Y-9770D01*
X-109853Y-9770D01*
X-108230Y-8147D01*
X-108230Y-5853D01*
X-109853Y-4230D01*
X-110598Y-4230D01*
X-110884Y-4174D01*
X-111136Y-4007D01*
X-113757Y-1386D01*
X-113920Y-1145D01*
X-113980Y-848D01*
X-113980Y2284D01*
X-113933Y2547D01*
X-113774Y2805D01*
X-113526Y2980D01*
X-113230Y3046D01*
X-112932Y2990D01*
X-112679Y2822D01*
X-56837Y-53020D01*
X-2163Y-53020D01*
X-1136Y-51993D01*
X-895Y-51830D01*
X-598Y-51770D01*
X147Y-51770D01*
X1770Y-50147D01*
X1770Y-47853D01*
X1426Y-47509D01*
X1268Y-47278D01*
X1203Y-46982D01*
X1258Y-46684D01*
X1426Y-46431D01*
X2864Y-44993D01*
X3105Y-44830D01*
X3402Y-44770D01*
X4147Y-44770D01*
X5770Y-43147D01*
X5770Y-40853D01*
X4147Y-39230D01*
X1853Y-39230D01*
X230Y-40853D01*
X230Y-41598D01*
X174Y-41884D01*
X7Y-42136D01*
X-614Y-42757D01*
X-855Y-42920D01*
X-1152Y-42980D01*
X-49848Y-42980D01*
X-50134Y-42924D01*
X-50386Y-42757D01*
X-88757Y-4386D01*
X-88920Y-4145D01*
X-88980Y-3848D01*
X-88980Y12837D01*
X-93007Y16864D01*
X-93170Y17105D01*
X-93230Y17402D01*
X-93230Y18147D01*
X-94853Y19770D01*
X-97147Y19770D01*
X-98770Y18147D01*
X-98770Y15853D01*
X-97147Y14230D01*
X-96402Y14230D01*
X-96116Y14174D01*
X-95864Y14007D01*
X-93243Y11386D01*
X-93080Y11145D01*
X-93020Y10848D01*
X-93020Y10777D01*
X-93067Y10514D01*
X-93226Y10256D01*
X-93474Y10080D01*
X-93770Y10015D01*
X-94068Y10071D01*
X-94321Y10238D01*
X-95853Y11770D01*
X-98147Y11770D01*
X-99770Y10147D01*
X-99770Y9402D01*
X-99826Y9116D01*
X-99993Y8864D01*
X-102864Y5993D01*
X-103105Y5830D01*
X-103402Y5770D01*
X-104147Y5770D01*
X-105770Y4147D01*
X-105770Y3466D01*
X-105817Y3203D01*
X-105976Y2945D01*
X-106224Y2770D01*
X-106520Y2704D01*
X-106818Y2760D01*
X-107071Y2928D01*
X-109074Y4931D01*
X-109232Y5162D01*
X-109297Y5458D01*
X-109242Y5756D01*
X-109230Y5773D01*
X-109230Y8147D01*
X-110853Y9770D01*
X-113218Y9770D01*
X-113493Y9821D01*
X-113748Y9985D01*
X-113920Y10235D01*
X-113980Y10532D01*
X-113980Y14848D01*
X-113924Y15134D01*
X-113757Y15386D01*
X-110136Y19007D01*
X-109895Y19170D01*
X-109598Y19230D01*
X-108853Y19230D01*
X-107230Y20853D01*
X-107230Y23147D01*
X-108544Y24461D01*
X-108702Y24692D01*
X-108767Y24988D01*
X-108711Y25286D01*
X-108544Y25539D01*
X-107230Y26853D01*
X-107230Y29147D01*
X-108853Y30770D01*
X-111147Y30770D01*
X-112770Y29147D01*
X-112770Y28402D01*
X-112826Y28116D01*
X-112993Y27864D01*
X-135020Y5837D01*
X-135020Y1213D01*
X-135076Y927D01*
X-135243Y674D01*
X-135679Y238D01*
X-135899Y85D01*
X-136194Y15D01*
X-136493Y66D01*
X-136748Y230D01*
X-136920Y480D01*
X-136980Y777D01*
X-136980Y42848D01*
X-136924Y43134D01*
X-136757Y43386D01*
X-135136Y45007D01*
X-134895Y45170D01*
X-134598Y45230D01*
X-132853Y45230D01*
X-131230Y46853D01*
X-131230Y49147D01*
X-131544Y49461D01*
X-131702Y49692D01*
X-131767Y49988D01*
X-131711Y50286D01*
X-131544Y50539D01*
X-130230Y51853D01*
X-130230Y54147D01*
X-131853Y55770D01*
X-134147Y55770D01*
X-134674Y55243D01*
X-134916Y55080D01*
X-135213Y55020D01*
X-136837Y55020D01*
X-150020Y41837D01*
X-150020Y-73837D01*
X-145993Y-77864D01*
X-145830Y-78105D01*
X-145770Y-78402D01*
X-145770Y-79147D01*
X-144147Y-80770D01*
X-141782Y-80770D01*
X-141507Y-80821D01*
X-141252Y-80985D01*
X-141080Y-81235D01*
X-141020Y-81532D01*
X-141020Y-96787D01*
X-141076Y-97073D01*
X-141243Y-97326D01*
X-141770Y-97853D01*
X-141770Y-100147D01*
X-140147Y-101770D01*
G37*
G36*
X25853Y40230D02*
X28147Y40230D01*
X29770Y41853D01*
X29770Y44147D01*
X28147Y45770D01*
X25853Y45770D01*
X24230Y44147D01*
X24230Y41853D01*
X25853Y40230D01*
G37*
G36*
X69853Y11730D02*
X72147Y11730D01*
X73770Y13353D01*
X73770Y15647D01*
X72147Y17270D01*
X71902Y17270D01*
X71616Y17326D01*
X71364Y17493D01*
X70926Y17931D01*
X70768Y18161D01*
X70703Y18458D01*
X70758Y18756D01*
X70926Y19009D01*
X72770Y20853D01*
X72770Y23147D01*
X72243Y23674D01*
X72080Y23916D01*
X72020Y24213D01*
X72020Y31837D01*
X70993Y32864D01*
X70830Y33105D01*
X70770Y33402D01*
X70770Y34147D01*
X68926Y35992D01*
X68768Y36222D01*
X68703Y36518D01*
X68758Y36816D01*
X68926Y37069D01*
X69614Y37757D01*
X69855Y37920D01*
X70152Y37980D01*
X86787Y37980D01*
X87073Y37924D01*
X87326Y37757D01*
X87853Y37230D01*
X90147Y37230D01*
X91770Y38853D01*
X91770Y41147D01*
X90147Y42770D01*
X87853Y42770D01*
X87326Y42243D01*
X87084Y42080D01*
X86787Y42020D01*
X68163Y42020D01*
X63886Y37743D01*
X63645Y37580D01*
X63348Y37520D01*
X56713Y37520D01*
X56427Y37576D01*
X56174Y37743D01*
X55647Y38270D01*
X53353Y38270D01*
X51730Y36647D01*
X51730Y34353D01*
X53544Y32539D01*
X53702Y32308D01*
X53767Y32012D01*
X53711Y31714D01*
X53544Y31461D01*
X52230Y30147D01*
X52230Y27853D01*
X53853Y26230D01*
X56219Y26230D01*
X56222Y26232D01*
X56518Y26297D01*
X56816Y26242D01*
X57069Y26074D01*
X68007Y15136D01*
X68170Y14895D01*
X68230Y14598D01*
X68230Y13353D01*
X69853Y11730D01*
G37*
G36*
X-70647Y23730D02*
X-68353Y23730D01*
X-66730Y25353D01*
X-66730Y27647D01*
X-68353Y29270D01*
X-70647Y29270D01*
X-72270Y27647D01*
X-72270Y25353D01*
X-70647Y23730D01*
G37*
G36*
X-77147Y14230D02*
X-74853Y14230D01*
X-73230Y15853D01*
X-73230Y18147D01*
X-74853Y19770D01*
X-77147Y19770D01*
X-78770Y18147D01*
X-78770Y15853D01*
X-77147Y14230D01*
G37*
G36*
X169685Y-12855D02*
X175356Y-12855D01*
X180595Y-10685D01*
X184605Y-6675D01*
X186775Y-1436D01*
X186775Y4236D01*
X184605Y9475D01*
X180595Y13485D01*
X175356Y15655D01*
X169685Y15655D01*
X164445Y13485D01*
X160435Y9475D01*
X158265Y4236D01*
X158265Y-1436D01*
X160435Y-6675D01*
X164445Y-10685D01*
X169685Y-12855D01*
G37*
G36*
X137935Y-12855D02*
X143606Y-12855D01*
X148845Y-10685D01*
X152855Y-6675D01*
X155025Y-1436D01*
X155025Y4236D01*
X152855Y9475D01*
X148845Y13485D01*
X143606Y15655D01*
X137935Y15655D01*
X132695Y13485D01*
X128685Y9475D01*
X126515Y4236D01*
X126515Y-1436D01*
X128685Y-6675D01*
X132695Y-10685D01*
X137935Y-12855D01*
G37*
G36*
X162853Y-72770D02*
X165147Y-72770D01*
X166770Y-71147D01*
X166770Y-70402D01*
X166826Y-70116D01*
X166993Y-69864D01*
X169614Y-67243D01*
X169855Y-67080D01*
X170152Y-67020D01*
X186837Y-67020D01*
X205020Y-48837D01*
X205020Y-32163D01*
X194820Y-21963D01*
X194659Y-21935D01*
X194400Y-21778D01*
X194222Y-21532D01*
X194155Y-21236D01*
X194208Y-20938D01*
X194373Y-20684D01*
X194625Y-20514D01*
X195725Y-20058D01*
X197788Y-17995D01*
X198905Y-15299D01*
X198905Y-12381D01*
X197788Y-9685D01*
X195725Y-7622D01*
X193029Y-6505D01*
X190111Y-6505D01*
X187415Y-7622D01*
X185352Y-9685D01*
X184235Y-12381D01*
X184235Y-15299D01*
X185352Y-17995D01*
X187286Y-19929D01*
X187439Y-20149D01*
X187509Y-20444D01*
X187458Y-20743D01*
X187294Y-20998D01*
X187044Y-21170D01*
X186747Y-21230D01*
X184853Y-21230D01*
X183230Y-22853D01*
X183230Y-25147D01*
X184853Y-26770D01*
X186747Y-26770D01*
X187010Y-26817D01*
X187268Y-26976D01*
X187444Y-27224D01*
X187509Y-27520D01*
X187453Y-27818D01*
X187286Y-28071D01*
X185352Y-30005D01*
X184235Y-32701D01*
X184235Y-35619D01*
X185352Y-38315D01*
X187415Y-40378D01*
X190111Y-41495D01*
X193029Y-41495D01*
X195725Y-40378D01*
X197788Y-38315D01*
X198905Y-35619D01*
X198905Y-33601D01*
X198952Y-33338D01*
X199111Y-33080D01*
X199359Y-32905D01*
X199655Y-32839D01*
X199953Y-32895D01*
X200206Y-33063D01*
X200757Y-33614D01*
X200920Y-33855D01*
X200980Y-34152D01*
X200980Y-46848D01*
X200924Y-47134D01*
X200757Y-47386D01*
X185386Y-62757D01*
X185145Y-62920D01*
X184848Y-62980D01*
X180816Y-62980D01*
X180558Y-62935D01*
X180299Y-62778D01*
X180122Y-62532D01*
X180054Y-62236D01*
X180107Y-61938D01*
X180273Y-61684D01*
X180524Y-61514D01*
X180595Y-61485D01*
X184605Y-57475D01*
X186775Y-52236D01*
X186775Y-46565D01*
X184605Y-41325D01*
X180595Y-37315D01*
X175356Y-35145D01*
X169685Y-35145D01*
X164445Y-37315D01*
X160435Y-41325D01*
X158265Y-46565D01*
X158265Y-52236D01*
X160435Y-57475D01*
X164445Y-61485D01*
X167078Y-62575D01*
X167308Y-62724D01*
X167483Y-62971D01*
X167548Y-63267D01*
X167493Y-63565D01*
X167325Y-63818D01*
X164136Y-67007D01*
X163895Y-67170D01*
X163598Y-67230D01*
X162853Y-67230D01*
X161230Y-68853D01*
X161230Y-71147D01*
X162853Y-72770D01*
G37*
G36*
X110853Y-83770D02*
X113147Y-83770D01*
X114770Y-82147D01*
X114770Y-79853D01*
X113147Y-78230D01*
X112402Y-78230D01*
X112116Y-78174D01*
X111864Y-78007D01*
X104993Y-71136D01*
X104830Y-70895D01*
X104770Y-70598D01*
X104770Y-69853D01*
X103147Y-68230D01*
X100853Y-68230D01*
X99321Y-69762D01*
X99101Y-69915D01*
X98806Y-69985D01*
X98507Y-69934D01*
X98252Y-69770D01*
X98080Y-69520D01*
X98020Y-69223D01*
X98020Y-24163D01*
X89493Y-15636D01*
X89330Y-15395D01*
X89270Y-15098D01*
X89270Y-14353D01*
X87647Y-12730D01*
X85353Y-12730D01*
X83730Y-14353D01*
X83730Y-16647D01*
X85353Y-18270D01*
X86098Y-18270D01*
X86384Y-18326D01*
X86636Y-18493D01*
X93757Y-25614D01*
X93920Y-25855D01*
X93980Y-26152D01*
X93980Y-74787D01*
X93924Y-75073D01*
X93757Y-75326D01*
X93230Y-75853D01*
X93230Y-78147D01*
X94853Y-79770D01*
X97147Y-79770D01*
X98770Y-78147D01*
X98770Y-75853D01*
X98243Y-75326D01*
X98080Y-75084D01*
X98020Y-74787D01*
X98020Y-72777D01*
X98067Y-72514D01*
X98226Y-72256D01*
X98474Y-72080D01*
X98770Y-72015D01*
X99068Y-72071D01*
X99321Y-72238D01*
X100853Y-73770D01*
X101598Y-73770D01*
X101884Y-73826D01*
X102136Y-73993D01*
X109007Y-80864D01*
X109170Y-81105D01*
X109230Y-81402D01*
X109230Y-82147D01*
X110853Y-83770D01*
G37*
G36*
X139311Y-31335D02*
X142229Y-31335D01*
X144925Y-30218D01*
X146988Y-28155D01*
X148105Y-25459D01*
X148105Y-22541D01*
X146988Y-19845D01*
X144925Y-17782D01*
X142229Y-16665D01*
X139311Y-16665D01*
X136615Y-17782D01*
X134552Y-19845D01*
X133435Y-22541D01*
X133435Y-25459D01*
X134552Y-28155D01*
X136615Y-30218D01*
X139311Y-31335D01*
G37*
G36*
X137935Y-63655D02*
X143606Y-63655D01*
X148845Y-61485D01*
X152855Y-57475D01*
X155025Y-52236D01*
X155025Y-46565D01*
X152855Y-41325D01*
X148845Y-37315D01*
X143606Y-35145D01*
X137935Y-35145D01*
X132695Y-37315D01*
X128685Y-41325D01*
X126515Y-46565D01*
X126515Y-52236D01*
X128685Y-57475D01*
X132695Y-61485D01*
X137935Y-63655D01*
G37*
G36*
X101853Y-51770D02*
X104147Y-51770D01*
X105770Y-50147D01*
X105770Y-47853D01*
X104147Y-46230D01*
X101853Y-46230D01*
X100230Y-47853D01*
X100230Y-50147D01*
X101853Y-51770D01*
G37*
G36*
X-111147Y-124770D02*
X-108853Y-124770D01*
X-107230Y-123147D01*
X-107230Y-122402D01*
X-107174Y-122116D01*
X-107007Y-121864D01*
X-102386Y-117243D01*
X-102145Y-117080D01*
X-101848Y-117020D01*
X-85163Y-117020D01*
X-79980Y-111837D01*
X-79980Y-85152D01*
X-79924Y-84866D01*
X-79757Y-84614D01*
X-77386Y-82243D01*
X-77145Y-82080D01*
X-76848Y-82020D01*
X-7163Y-82020D01*
X-4636Y-79493D01*
X-4395Y-79330D01*
X-4098Y-79270D01*
X-3353Y-79270D01*
X-1730Y-77647D01*
X-1730Y-75353D01*
X-3353Y-73730D01*
X-5647Y-73730D01*
X-7270Y-75353D01*
X-7270Y-76098D01*
X-7326Y-76384D01*
X-7493Y-76636D01*
X-8614Y-77757D01*
X-8855Y-77920D01*
X-9152Y-77980D01*
X-78837Y-77980D01*
X-84020Y-83163D01*
X-84020Y-107223D01*
X-84067Y-107486D01*
X-84226Y-107744D01*
X-84474Y-107920D01*
X-84770Y-107985D01*
X-85068Y-107929D01*
X-85321Y-107762D01*
X-85853Y-107230D01*
X-86598Y-107230D01*
X-86884Y-107174D01*
X-87136Y-107007D01*
X-129757Y-64386D01*
X-129920Y-64145D01*
X-129980Y-63848D01*
X-129980Y-58213D01*
X-129924Y-57927D01*
X-129757Y-57674D01*
X-129230Y-57147D01*
X-129230Y-54853D01*
X-130853Y-53230D01*
X-133147Y-53230D01*
X-134770Y-54853D01*
X-134770Y-57147D01*
X-134243Y-57674D01*
X-134080Y-57916D01*
X-134020Y-58213D01*
X-134020Y-65837D01*
X-89993Y-109864D01*
X-89830Y-110105D01*
X-89770Y-110402D01*
X-89770Y-111147D01*
X-89238Y-111679D01*
X-89085Y-111899D01*
X-89015Y-112194D01*
X-89066Y-112493D01*
X-89230Y-112748D01*
X-89480Y-112920D01*
X-89777Y-112980D01*
X-103837Y-112980D01*
X-109864Y-119007D01*
X-110105Y-119170D01*
X-110402Y-119230D01*
X-111147Y-119230D01*
X-112770Y-120853D01*
X-112770Y-123147D01*
X-111147Y-124770D01*
G37*
G36*
X54853Y-96770D02*
X57147Y-96770D01*
X58770Y-95147D01*
X58770Y-92853D01*
X57147Y-91230D01*
X54853Y-91230D01*
X53230Y-92853D01*
X53230Y-95147D01*
X54853Y-96770D01*
G37*
G36*
X-117147Y-120770D02*
X-114853Y-120770D01*
X-113230Y-119147D01*
X-113230Y-116853D01*
X-114853Y-115230D01*
X-117147Y-115230D01*
X-117674Y-115757D01*
X-117916Y-115920D01*
X-118213Y-115980D01*
X-185848Y-115980D01*
X-186134Y-115924D01*
X-186386Y-115757D01*
X-199007Y-103136D01*
X-199170Y-102895D01*
X-199230Y-102598D01*
X-199230Y-101853D01*
X-200853Y-100230D01*
X-203147Y-100230D01*
X-204770Y-101853D01*
X-204770Y-104147D01*
X-203147Y-105770D01*
X-202402Y-105770D01*
X-202116Y-105826D01*
X-201864Y-105993D01*
X-187837Y-120020D01*
X-118213Y-120020D01*
X-117927Y-120076D01*
X-117674Y-120243D01*
X-117147Y-120770D01*
G37*
G36*
X-158147Y-111770D02*
X-155853Y-111770D01*
X-154230Y-110147D01*
X-154230Y-107853D01*
X-155853Y-106230D01*
X-158147Y-106230D01*
X-159770Y-107853D01*
X-159770Y-110147D01*
X-158147Y-111770D01*
G37*
G36*
X127853Y-112770D02*
X130147Y-112770D01*
X131770Y-111147D01*
X131770Y-108853D01*
X130147Y-107230D01*
X127853Y-107230D01*
X126230Y-108853D01*
X126230Y-111147D01*
X127853Y-112770D01*
G37*
G36*
X76853Y-120770D02*
X79147Y-120770D01*
X80770Y-119147D01*
X80770Y-116853D01*
X79147Y-115230D01*
X76853Y-115230D01*
X75230Y-116853D01*
X75230Y-119147D01*
X76853Y-120770D01*
G37*
G36*
X-158147Y-139770D02*
X-155853Y-139770D01*
X-154230Y-138147D01*
X-154230Y-135853D01*
X-155853Y-134230D01*
X-158147Y-134230D01*
X-159770Y-135853D01*
X-159770Y-138147D01*
X-158147Y-139770D01*
G37*
G36*
X122618Y-152414D02*
X134338Y-152414D01*
X135082Y-151670D01*
X135082Y-139950D01*
X134338Y-139206D01*
X122618Y-139206D01*
X121874Y-139950D01*
X121874Y-151670D01*
X122618Y-152414D01*
G37*
G36*
X85662Y-152414D02*
X97382Y-152414D01*
X98126Y-151670D01*
X98126Y-139950D01*
X97382Y-139206D01*
X85662Y-139206D01*
X84918Y-139950D01*
X84918Y-151670D01*
X85662Y-152414D01*
G37*
G36*
X-97382Y-152414D02*
X-85662Y-152414D01*
X-84918Y-151670D01*
X-84918Y-139950D01*
X-85662Y-139206D01*
X-97382Y-139206D01*
X-98126Y-139950D01*
X-98126Y-151670D01*
X-97382Y-152414D01*
G37*
G36*
X-134338Y-152414D02*
X-122618Y-152414D01*
X-121874Y-151670D01*
X-121874Y-139950D01*
X-122618Y-139206D01*
X-134338Y-139206D01*
X-135082Y-139950D01*
X-135082Y-151670D01*
X-134338Y-152414D01*
G37*
G36*
X34853Y-150770D02*
X37147Y-150770D01*
X38770Y-149147D01*
X38770Y-146853D01*
X37147Y-145230D01*
X34853Y-145230D01*
X33230Y-146853D01*
X33230Y-149147D01*
X34853Y-150770D01*
G37*
G36*
X-144147Y-158770D02*
X-141853Y-158770D01*
X-140230Y-157147D01*
X-140230Y-154853D01*
X-141853Y-153230D01*
X-144147Y-153230D01*
X-145770Y-154853D01*
X-145770Y-157147D01*
X-144147Y-158770D01*
G37*
G36*
X-49147Y-169770D02*
X-46853Y-169770D01*
X-45230Y-168147D01*
X-45230Y-165853D01*
X-46853Y-164230D01*
X-49147Y-164230D01*
X-50770Y-165853D01*
X-50770Y-168147D01*
X-49147Y-169770D01*
G37*
%LPD*%
G36*
X-141485Y-75170D02*
X-141782Y-75230D01*
X-142598Y-75230D01*
X-142884Y-75174D01*
X-143136Y-75007D01*
X-145757Y-72386D01*
X-145920Y-72145D01*
X-145980Y-71848D01*
X-145980Y39848D01*
X-145924Y40134D01*
X-145757Y40386D01*
X-142321Y43822D01*
X-142101Y43975D01*
X-141806Y44045D01*
X-141507Y43994D01*
X-141252Y43831D01*
X-141080Y43581D01*
X-141020Y43284D01*
X-141020Y-74468D01*
X-141071Y-74743D01*
X-141235Y-74998D01*
X-141485Y-75170D01*
G37*
G36*
X-45235Y58080D02*
X-45532Y58020D01*
X-46287Y58020D01*
X-46573Y58076D01*
X-46826Y58243D01*
X-47353Y58770D01*
X-49218Y58770D01*
X-49493Y58821D01*
X-49748Y58985D01*
X-49920Y59235D01*
X-49980Y59532D01*
X-49980Y66787D01*
X-49924Y67073D01*
X-49757Y67326D01*
X-48230Y68853D01*
X-48230Y71147D01*
X-49853Y72770D01*
X-52218Y72770D01*
X-52493Y72821D01*
X-52748Y72985D01*
X-52920Y73235D01*
X-52980Y73532D01*
X-52980Y73848D01*
X-52924Y74134D01*
X-52757Y74386D01*
X-33386Y93757D01*
X-33145Y93920D01*
X-32848Y93980D01*
X-6716Y93980D01*
X-6453Y93933D01*
X-6195Y93774D01*
X-6020Y93526D01*
X-5954Y93230D01*
X-6010Y92932D01*
X-6178Y92679D01*
X-31864Y66993D01*
X-32105Y66830D01*
X-32402Y66770D01*
X-33147Y66770D01*
X-34770Y65147D01*
X-34770Y62782D01*
X-34821Y62507D01*
X-34985Y62252D01*
X-35235Y62080D01*
X-35532Y62020D01*
X-39787Y62020D01*
X-40073Y62076D01*
X-40326Y62243D01*
X-40853Y62770D01*
X-43147Y62770D01*
X-44770Y61147D01*
X-44770Y58782D01*
X-44821Y58507D01*
X-44985Y58252D01*
X-45235Y58080D01*
G37*
G36*
X58765Y76080D02*
X58468Y76020D01*
X-15284Y76020D01*
X-15547Y76067D01*
X-15805Y76226D01*
X-15980Y76474D01*
X-16046Y76770D01*
X-15990Y77068D01*
X-15822Y77321D01*
X-2386Y90757D01*
X-2145Y90920D01*
X-1848Y90980D01*
X67468Y90980D01*
X67743Y90929D01*
X67998Y90765D01*
X68170Y90515D01*
X68230Y90218D01*
X68230Y89853D01*
X69853Y88230D01*
X72147Y88230D01*
X73770Y89853D01*
X73770Y92147D01*
X73238Y92679D01*
X73085Y92899D01*
X73015Y93194D01*
X73066Y93493D01*
X73230Y93748D01*
X73480Y93920D01*
X73777Y93980D01*
X78284Y93980D01*
X78547Y93933D01*
X78805Y93774D01*
X78980Y93526D01*
X79046Y93230D01*
X78990Y92932D01*
X78822Y92679D01*
X70386Y84243D01*
X70145Y84080D01*
X69848Y84020D01*
X65663Y84020D01*
X62136Y80493D01*
X61895Y80330D01*
X61598Y80270D01*
X60853Y80270D01*
X59230Y78647D01*
X59230Y76782D01*
X59179Y76507D01*
X59015Y76252D01*
X58765Y76080D01*
G37*
G36*
X-44379Y131167D02*
X-43200Y131300D01*
X-42021Y131167D01*
X-40900Y130775D01*
X-39895Y130144D01*
X-39056Y129305D01*
X-38425Y128300D01*
X-38033Y127179D01*
X-37900Y126003D01*
X-37900Y114997D01*
X-38033Y113821D01*
X-38425Y112700D01*
X-39056Y111695D01*
X-39895Y110856D01*
X-40900Y110225D01*
X-42021Y109833D01*
X-43200Y109700D01*
X-44379Y109833D01*
X-45500Y110225D01*
X-46505Y110856D01*
X-47344Y111695D01*
X-47975Y112700D01*
X-48367Y113821D01*
X-48500Y114997D01*
X-48500Y126003D01*
X-48367Y127179D01*
X-47975Y128300D01*
X-47344Y129305D01*
X-46505Y130144D01*
X-45500Y130775D01*
X-44379Y131167D01*
G37*
G36*
X-44379Y131167D02*
X-43200Y131300D01*
X-42021Y131167D01*
X-40900Y130775D01*
X-39895Y130144D01*
X-39056Y129305D01*
X-38425Y128300D01*
X-38033Y127179D01*
X-37900Y126003D01*
X-37900Y114997D01*
X-38033Y113821D01*
X-38425Y112700D01*
X-39056Y111695D01*
X-39895Y110856D01*
X-40900Y110225D01*
X-42021Y109833D01*
X-43200Y109700D01*
X-44379Y109833D01*
X-45500Y110225D01*
X-46505Y110856D01*
X-47344Y111695D01*
X-47975Y112700D01*
X-48367Y113821D01*
X-48500Y114997D01*
X-48500Y126003D01*
X-48367Y127179D01*
X-47975Y128300D01*
X-47344Y129305D01*
X-46505Y130144D01*
X-45500Y130775D01*
X-44379Y131167D01*
G37*
G36*
X42021Y131167D02*
X43200Y131300D01*
X44379Y131167D01*
X45500Y130775D01*
X46505Y130144D01*
X47344Y129305D01*
X47975Y128300D01*
X48367Y127179D01*
X48500Y126003D01*
X48500Y114997D01*
X48367Y113821D01*
X47975Y112700D01*
X47344Y111695D01*
X46505Y110856D01*
X45500Y110225D01*
X44379Y109833D01*
X43200Y109700D01*
X42021Y109833D01*
X40900Y110225D01*
X39895Y110856D01*
X39056Y111695D01*
X38425Y112700D01*
X38033Y113821D01*
X37900Y114997D01*
X37900Y126003D01*
X38033Y127179D01*
X38425Y128300D01*
X39056Y129305D01*
X39895Y130144D01*
X40900Y130775D01*
X42021Y131167D01*
G37*
G36*
X42021Y131167D02*
X43200Y131300D01*
X44379Y131167D01*
X45500Y130775D01*
X46505Y130144D01*
X47344Y129305D01*
X47975Y128300D01*
X48367Y127179D01*
X48500Y126003D01*
X48500Y114997D01*
X48367Y113821D01*
X47975Y112700D01*
X47344Y111695D01*
X46505Y110856D01*
X45500Y110225D01*
X44379Y109833D01*
X43200Y109700D01*
X42021Y109833D01*
X40900Y110225D01*
X39895Y110856D01*
X39056Y111695D01*
X38425Y112700D01*
X38033Y113821D01*
X37900Y114997D01*
X37900Y126003D01*
X38033Y127179D01*
X38425Y128300D01*
X39056Y129305D01*
X39895Y130144D01*
X40900Y130775D01*
X42021Y131167D01*
G37*
G36*
X-44379Y171167D02*
X-43200Y171300D01*
X-42021Y171167D01*
X-40900Y170775D01*
X-39895Y170144D01*
X-39056Y169305D01*
X-38425Y168300D01*
X-38033Y167179D01*
X-37900Y166003D01*
X-37900Y157997D01*
X-38033Y156821D01*
X-38425Y155700D01*
X-39056Y154695D01*
X-39895Y153856D01*
X-40900Y153225D01*
X-42021Y152833D01*
X-43200Y152700D01*
X-44379Y152833D01*
X-45500Y153225D01*
X-46505Y153856D01*
X-47344Y154695D01*
X-47975Y155700D01*
X-48367Y156821D01*
X-48500Y157997D01*
X-48500Y166003D01*
X-48367Y167179D01*
X-47975Y168300D01*
X-47344Y169305D01*
X-46505Y170144D01*
X-45500Y170775D01*
X-44379Y171167D01*
G37*
G36*
X-44379Y171167D02*
X-43200Y171300D01*
X-42021Y171167D01*
X-40900Y170775D01*
X-39895Y170144D01*
X-39056Y169305D01*
X-38425Y168300D01*
X-38033Y167179D01*
X-37900Y166003D01*
X-37900Y157997D01*
X-38033Y156821D01*
X-38425Y155700D01*
X-39056Y154695D01*
X-39895Y153856D01*
X-40900Y153225D01*
X-42021Y152833D01*
X-43200Y152700D01*
X-44379Y152833D01*
X-45500Y153225D01*
X-46505Y153856D01*
X-47344Y154695D01*
X-47975Y155700D01*
X-48367Y156821D01*
X-48500Y157997D01*
X-48500Y166003D01*
X-48367Y167179D01*
X-47975Y168300D01*
X-47344Y169305D01*
X-46505Y170144D01*
X-45500Y170775D01*
X-44379Y171167D01*
G37*
G36*
X42021Y171167D02*
X43200Y171300D01*
X44379Y171167D01*
X45500Y170775D01*
X46505Y170144D01*
X47344Y169305D01*
X47975Y168300D01*
X48367Y167179D01*
X48500Y166003D01*
X48500Y157997D01*
X48367Y156821D01*
X47975Y155700D01*
X47344Y154695D01*
X46505Y153856D01*
X45500Y153225D01*
X44379Y152833D01*
X43200Y152700D01*
X42021Y152833D01*
X40900Y153225D01*
X39895Y153856D01*
X39056Y154695D01*
X38425Y155700D01*
X38033Y156821D01*
X37900Y157997D01*
X37900Y166003D01*
X38033Y167179D01*
X38425Y168300D01*
X39056Y169305D01*
X39895Y170144D01*
X40900Y170775D01*
X42021Y171167D01*
G37*
G36*
X42021Y171167D02*
X43200Y171300D01*
X44379Y171167D01*
X45500Y170775D01*
X46505Y170144D01*
X47344Y169305D01*
X47975Y168300D01*
X48367Y167179D01*
X48500Y166003D01*
X48500Y157997D01*
X48367Y156821D01*
X47975Y155700D01*
X47344Y154695D01*
X46505Y153856D01*
X45500Y153225D01*
X44379Y152833D01*
X43200Y152700D01*
X42021Y152833D01*
X40900Y153225D01*
X39895Y153856D01*
X39056Y154695D01*
X38425Y155700D01*
X38033Y156821D01*
X37900Y157997D01*
X37900Y166003D01*
X38033Y167179D01*
X38425Y168300D01*
X39056Y169305D01*
X39895Y170144D01*
X40900Y170775D01*
X42021Y171167D01*
G37*
D10*
X43200Y162000D03*
X-43200Y162000D03*
X43200Y120500D03*
X-43200Y120500D03*
D11*
X128478Y-145810D03*
X91522Y-145810D03*
X-91522Y-145810D03*
X-128478Y-145810D03*
X19478Y-145810D03*
X-17478Y-145810D03*
D12*
X-1000Y9000D03*
X-13000Y9000D03*
X-13000Y21000D03*
X-1000Y21000D03*
X11000Y21000D03*
X23000Y21000D03*
X23000Y9000D03*
X11000Y9000D03*
X-13000Y-3000D03*
X-1000Y-3000D03*
X11000Y-3000D03*
X23000Y-3000D03*
X23000Y-15000D03*
X11000Y-15000D03*
X-1000Y-15000D03*
X-13000Y-15000D03*
D13*
X-139000Y-99000D03*
D14*
X-139000Y44000D01*
X-135000Y48000D01*
X-134000Y48000D01*
D13*
X-134000Y48000D03*
D15*
X-70000Y-16000D03*
D13*
X128000Y128000D03*
D16*
X151000Y128000D01*
D13*
X151000Y128000D03*
X26000Y-124000D03*
X56000Y-80000D03*
X-132000Y152000D03*
X-137000Y135000D03*
X66000Y117000D03*
X57000Y105000D03*
X-89000Y-123000D03*
X-32000Y20000D03*
X-65000Y22000D03*
X-86000Y6000D03*
X-1000Y48000D03*
X-55000Y-57000D03*
X-96000Y118000D03*
X192000Y108000D03*
X-20000Y38000D03*
X31000Y31000D03*
X53000Y25000D03*
X54000Y9000D03*
X119000Y-26000D03*
X172000Y-25000D03*
D15*
X82000Y166348D03*
X64000Y166348D03*
X28000Y166348D03*
X10000Y166348D03*
X-8000Y166348D03*
X-26000Y166348D03*
X37000Y150760D03*
X19000Y150760D03*
X1000Y150760D03*
X-17000Y150760D03*
X-35000Y150760D03*
X-107000Y150760D03*
X82000Y135172D03*
X64000Y135172D03*
X46000Y135172D03*
X28000Y135172D03*
X10000Y135172D03*
X-8000Y135172D03*
X-26000Y135172D03*
X-44000Y135172D03*
X-152000Y135172D03*
X-170000Y135172D03*
X199000Y119584D03*
X109000Y119584D03*
X91000Y119584D03*
X73000Y119584D03*
X-161000Y119584D03*
X-179000Y119584D03*
X208000Y103996D03*
X154000Y103996D03*
X136000Y103996D03*
X100000Y103996D03*
X217000Y88408D03*
X199000Y88408D03*
X163000Y88408D03*
X127000Y88408D03*
X91000Y88408D03*
X37000Y88408D03*
X19000Y88408D03*
X-89000Y88408D03*
X118000Y72820D03*
X-44000Y72820D03*
X-116000Y72820D03*
X-134000Y72820D03*
X127000Y57232D03*
X109000Y57232D03*
X91000Y57232D03*
X73000Y57232D03*
X-89000Y57232D03*
X-107000Y57232D03*
X-143000Y57232D03*
X118000Y41644D03*
X100000Y41644D03*
X-134000Y41644D03*
X163000Y26056D03*
X127000Y26056D03*
X-143000Y26056D03*
X190000Y10468D03*
X64000Y10468D03*
X-134000Y10468D03*
X217000Y-5120D03*
X199000Y-5120D03*
X91000Y-5120D03*
X73000Y-5120D03*
X55000Y-5120D03*
X-143000Y-5120D03*
X208000Y-20708D03*
X118000Y-20708D03*
X217000Y-36296D03*
X91000Y-36296D03*
X208000Y-51884D03*
X190000Y-51884D03*
X-62000Y-51884D03*
X217000Y-67472D03*
X199000Y-67472D03*
X145000Y-67472D03*
X127000Y-67472D03*
X109000Y-67472D03*
X73000Y-67472D03*
X55000Y-67472D03*
X-35000Y-67472D03*
X-53000Y-67472D03*
X-71000Y-67472D03*
X-89000Y-67472D03*
X-107000Y-67472D03*
X100000Y-83060D03*
X82000Y-83060D03*
X64000Y-83060D03*
X28000Y-83060D03*
X10000Y-83060D03*
X-98000Y-83060D03*
X-134000Y-83060D03*
X-188000Y-83060D03*
X217000Y-98648D03*
X199000Y-98648D03*
X163000Y-98648D03*
X145000Y-98648D03*
X127000Y-98648D03*
X109000Y-98648D03*
X91000Y-98648D03*
X37000Y-98648D03*
X19000Y-98648D03*
X1000Y-98648D03*
X-17000Y-98648D03*
X-35000Y-98648D03*
X-179000Y-98648D03*
X-197000Y-98648D03*
X208000Y-114236D03*
X118000Y-114236D03*
X100000Y-114236D03*
X64000Y-114236D03*
X46000Y-114236D03*
X28000Y-114236D03*
X10000Y-114236D03*
X-26000Y-114236D03*
X55000Y-161000D03*
X37000Y-161000D03*
X-143000Y-161000D03*
X-179000Y-161000D03*
X73000Y-161000D03*
X145000Y-161000D03*
X163000Y-161000D03*
X181000Y-161000D03*
X-116000Y-145412D03*
X-26000Y-145412D03*
X-8000Y-145412D03*
X10000Y-145412D03*
X28000Y-145412D03*
X82000Y-145412D03*
X100000Y-145412D03*
X118000Y-145412D03*
X154000Y-145412D03*
X172000Y-145412D03*
X190000Y-145412D03*
X-143000Y-129824D03*
X-89000Y-129824D03*
X-53000Y-129824D03*
X37000Y-129824D03*
X55000Y-129824D03*
X73000Y-129824D03*
X145000Y-129824D03*
X163000Y-129824D03*
X181000Y-129824D03*
X199000Y-129824D03*
D13*
X5000Y48000D03*
D14*
X-3000Y56000D01*
X-48500Y56000D01*
D13*
X-48500Y56000D03*
X-110000Y28000D03*
D14*
X-133000Y5000D01*
X-133000Y-1000D01*
D13*
X-133000Y-1000D03*
X5000Y30500D03*
D14*
X5000Y36000D01*
X-12000Y53000D01*
X-43500Y53000D01*
X-48500Y48000D01*
D13*
X-48500Y48000D03*
X-110000Y22000D03*
D14*
X-116000Y16000D01*
X-116000Y-2000D01*
X-111000Y-7000D01*
D13*
X-111000Y-7000D03*
X-87000Y-110000D03*
D14*
X-132000Y-65000D01*
X-132000Y-56000D01*
D13*
X-132000Y-56000D03*
X-143000Y-78000D03*
D14*
X-148000Y-73000D02*
X-148000Y41000D01*
X-148000Y-73000D02*
X-143000Y-78000D01*
X-148000Y41000D02*
X-136000Y53000D01*
X-133000Y53000D01*
D13*
X-133000Y53000D03*
X3000Y-42000D03*
D14*
X-51000Y-45000D02*
X-91000Y-5000D01*
X-91000Y12000D02*
X-96000Y17000D01*
X-91000Y12000D02*
X-91000Y-5000D01*
D13*
X-96000Y17000D03*
D14*
X0Y-45000D02*
X3000Y-42000D01*
X0Y-45000D02*
X-51000Y-45000D01*
D13*
X56000Y-94000D03*
X-77000Y-24000D03*
X-157000Y-137000D03*
X-157000Y-109000D03*
X-134000Y-17500D03*
X0Y-24500D03*
D14*
X-3500Y-21000D01*
X-8000Y-21000D01*
X-16000Y-29000D01*
X-41000Y-29000D01*
D13*
X-41000Y-29000D03*
X-22500Y8000D03*
D14*
X-31000Y8000D01*
X-39000Y16000D01*
D13*
X-39000Y16000D03*
X-97000Y9000D03*
D14*
X-103000Y3000D01*
D13*
X-103000Y3000D03*
X-1000Y-49000D03*
D14*
X-3000Y-51000D01*
X-56000Y-51000D01*
X-112000Y5000D01*
X-112000Y7000D01*
D13*
X-112000Y7000D03*
X-30000Y100000D03*
D17*
X-52000Y100000D01*
D13*
X-52000Y100000D03*
X-13000Y-63000D03*
D17*
X37000Y-63000D01*
X45000Y-55000D01*
X45000Y48000D01*
X60000Y63000D01*
X89000Y63000D01*
D13*
X89000Y63000D03*
X36000Y-148000D03*
X-48000Y-167000D03*
X-143000Y-156000D03*
X-36000Y30500D03*
X-76000Y17000D03*
X-130000Y89000D03*
X103000Y-49000D03*
X13000Y-39000D03*
X-32000Y-23000D03*
X27000Y43000D03*
X129000Y-110000D03*
X78000Y-118000D03*
X155000Y54000D03*
X-69500Y26500D03*
X70000Y22000D03*
D14*
X70000Y31000D02*
X68000Y33000D01*
X70000Y31000D02*
X70000Y22000D01*
D13*
X68000Y33000D03*
X-12500Y-36000D03*
D14*
X-15500Y-33000D01*
X-42500Y-33000D01*
X-58000Y-17500D01*
X-56000Y162000D02*
X-60000Y166000D01*
X-56000Y162000D02*
X-56000Y86000D01*
D13*
X-60000Y166000D03*
D14*
X-56000Y86000D02*
X-58000Y84000D01*
X-58000Y-17500D01*
D13*
X-17500Y-37000D03*
D14*
X-42500Y-37000D01*
X-61000Y-18500D01*
X-61000Y87000D01*
X-59000Y89000D02*
X-59000Y96000D01*
X-59000Y89000D02*
X-61000Y87000D01*
X-59000Y96000D02*
X-96000Y133000D01*
X-96000Y160000D01*
D13*
X-96000Y160000D03*
X175000Y102000D03*
D14*
X169000Y96000D01*
X-34000Y96000D01*
D13*
X-44000Y-4000D03*
D14*
X-55000Y7000D01*
X-55000Y75000D01*
X-34000Y96000D01*
D13*
X-22500Y-2000D03*
D14*
X-33000Y-2000D01*
X-40000Y5000D01*
D13*
X-40000Y5000D03*
D15*
X-147000Y106000D03*
D14*
X-218000Y106000D01*
X-221000Y103000D01*
D18*
X-221000Y103000D03*
X-146000Y97000D03*
D14*
X-169000Y74000D01*
X-180000Y74000D01*
X-181000Y75000D01*
X-181000Y76000D01*
D18*
X-181000Y76000D03*
X-174000Y111000D03*
D14*
X-200000Y111000D01*
X-213000Y124000D01*
X-213000Y141000D02*
X-208000Y146000D01*
X-213000Y141000D02*
X-213000Y124000D01*
D18*
X-208000Y146000D03*
X-174000Y91000D03*
D14*
X-220000Y91000D01*
X-226000Y97000D01*
X-226000Y113000D01*
X-218000Y121000D02*
X-218000Y125000D01*
X-218000Y121000D02*
X-226000Y113000D01*
D18*
X-218000Y125000D03*
D13*
X-116000Y-118000D03*
D14*
X-187000Y-118000D01*
X-202000Y-103000D01*
D13*
X-202000Y-103000D03*
X54500Y35500D03*
D14*
X64500Y35500D01*
X69000Y40000D01*
X89000Y40000D01*
D13*
X89000Y40000D03*
X55000Y29000D03*
D14*
X57000Y29000D02*
X71000Y15000D01*
X57000Y29000D02*
X55000Y29000D01*
X71000Y15000D02*
X71000Y14500D01*
D13*
X71000Y14500D03*
X-24000Y28000D03*
D14*
X-38000Y42000D01*
D13*
X-38000Y42000D03*
X-32000Y64000D03*
D14*
X-3000Y93000D01*
X69000Y93000D01*
X71000Y91000D01*
D13*
X71000Y91000D03*
X-27000Y21000D03*
D14*
X-31000Y25000D01*
X-31000Y31000D01*
X-37000Y37000D01*
X-38000Y37000D01*
X-42000Y41000D01*
X-42000Y46000D01*
X-39500Y48500D01*
D13*
X-39500Y48500D03*
X-42000Y60000D03*
D14*
X22000Y60000D01*
X32000Y70000D01*
D13*
X32000Y70000D03*
X-110000Y-122000D03*
D14*
X-103000Y-115000D01*
X-86000Y-115000D01*
X-82000Y-111000D01*
X-82000Y-84000D01*
X-78000Y-80000D01*
X-8000Y-80000D01*
D13*
X-5000Y-24500D03*
D14*
X-4500Y-76500D02*
X-8000Y-80000D01*
D13*
X-4500Y-76500D03*
X-4500Y-33500D03*
D14*
X-4500Y-25000D02*
X-5000Y-24500D01*
X-4500Y-25000D02*
X-4500Y-33500D01*
D13*
X32500Y-17000D03*
D16*
X32500Y-37500D01*
X33000Y-38000D01*
D13*
X33000Y-38000D03*
X86500Y-15500D03*
D14*
X96000Y-25000D01*
X96000Y-77000D01*
D13*
X96000Y-77000D03*
X-165000Y160000D03*
D14*
X-130000Y160000D01*
X-68000Y98000D01*
X-68000Y91000D01*
X-79000Y80000D01*
X-79000Y59000D01*
D13*
X-79000Y59000D03*
X-33000Y15000D03*
D14*
X-31000Y13000D01*
X-22000Y13000D01*
X-19000Y10000D01*
X-19000Y-5000D01*
X-21000Y-7000D01*
X-22500Y-7000D01*
D13*
X-22500Y-7000D03*
X5000Y-24500D03*
D14*
X22500Y-42000D01*
X38000Y-42000D01*
D13*
X38000Y-42000D03*
X164000Y-70000D03*
D14*
X169000Y-65000D02*
X186000Y-65000D01*
X169000Y-65000D02*
X164000Y-70000D01*
X186000Y-65000D02*
X203000Y-48000D01*
X203000Y-33000D01*
X194000Y-24000D01*
X186000Y-24000D01*
D13*
X186000Y-24000D03*
X-83000Y13000D03*
D14*
X-83000Y76000D01*
X-83000Y81000D01*
X-72000Y92000D01*
D13*
X-72000Y92000D03*
X102000Y73000D03*
D14*
X101000Y74000D01*
X-16000Y74000D01*
X-17000Y73000D01*
D13*
X-17000Y73000D03*
X-43000Y92000D03*
D14*
X-44000Y92000D01*
X-54000Y82000D01*
D13*
X-54000Y82000D03*
X-83000Y76000D03*
X-22500Y3000D03*
D14*
X-33000Y3000D01*
X-52000Y22000D01*
X-52000Y69000D01*
X-51000Y70000D01*
D13*
X-51000Y70000D03*
X-146000Y170500D03*
D14*
X-133500Y170500D01*
X-106000Y143000D01*
D13*
X-106000Y143000D03*
X-103000Y121000D03*
D14*
X-106000Y118000D01*
X-113000Y118000D01*
X-114000Y117000D01*
D13*
X-114000Y117000D03*
X-113000Y96000D03*
D14*
X-98000Y81000D01*
X-83000Y81000D01*
D13*
X-64000Y92000D03*
D14*
X-64000Y43000D01*
X-65000Y42000D01*
D13*
X-65000Y42000D03*
X-205000Y133000D03*
D14*
X-185000Y133000D01*
X-175000Y143000D01*
D13*
X-175000Y143000D03*
X188000Y98000D03*
D14*
X183000Y93000D01*
X82000Y93000D01*
X71000Y82000D01*
X66500Y82000D01*
X62000Y77500D01*
D13*
X62000Y77500D03*
D14*
X-178000Y126000D02*
X-185000Y133000D01*
X-178000Y126000D02*
X-147000Y126000D01*
X-133000Y112000D01*
X-90000Y112000D01*
D13*
X-90000Y112000D03*
X102000Y-71000D03*
D14*
X112000Y-81000D01*
D13*
X112000Y-81000D03*
X-142000Y151000D03*
D14*
X-142000Y129000D01*
D13*
X-142000Y129000D03*
M02*
