G04 EAGLE Gerber RS-274X export*
G75*
%MOMM*%
%FSLAX34Y34*%
%LPD*%
%INSoldermask Top*%
%IPPOS*%
%AMOC8*
5,1,8,0,0,1.08239X$1,22.5*%
G01*
G04 Define Apertures*
%ADD10R,1.353200X2.003200*%
%ADD11R,0.423200X0.433200*%
%ADD12R,0.803200X0.703200*%
%ADD13R,0.433200X0.423200*%
%ADD14R,0.703200X0.803200*%
%ADD15R,0.903200X0.803200*%
%ADD16R,1.353200X1.003200*%
%ADD17R,0.803200X1.403200*%
%ADD18C,0.403200*%
%ADD19C,0.453200*%
%ADD20R,0.503200X0.553200*%
%ADD21R,0.553200X0.503200*%
%ADD22C,0.419200*%
%ADD23R,0.903200X0.503200*%
%ADD24R,1.203200X0.503200*%
%ADD25C,0.986200*%
%ADD26C,2.654200*%
%ADD27C,1.270200*%
%ADD28R,0.503200X1.353200*%
%ADD29C,0.903200*%
%ADD30R,0.803200X1.353200*%
%ADD31C,1.373200*%
%ADD32R,0.633200X0.483200*%
%ADD33R,1.103200X5.503200*%
%ADD34R,1.403200X2.403200*%
%ADD35R,1.003200X1.103200*%
%ADD36R,1.253200X0.703200*%
%ADD37R,0.453200X0.553200*%
%ADD38R,0.553200X0.453200*%
%ADD39R,0.152400X1.828800*%
%ADD40R,1.371600X1.803400*%
%ADD41R,0.914400X1.295400*%
%ADD42R,1.270000X1.270000*%
%ADD43R,1.600200X1.295400*%
%ADD44C,2.203200*%
%ADD45R,5.053200X5.053200*%
%ADD46C,0.269722*%
%ADD47R,1.103200X1.503200*%
%ADD48R,1.153200X1.053200*%
%ADD49C,0.503200*%
%ADD50C,0.553200*%
%ADD51C,0.653200*%
G36*
X-44429Y132179D02*
X-43200Y132300D01*
X-41971Y132179D01*
X-40789Y131821D01*
X-39700Y131238D01*
X-38745Y130455D01*
X-37962Y129500D01*
X-37379Y128411D01*
X-37021Y127229D01*
X-36900Y126002D01*
X-36900Y114998D01*
X-37021Y113771D01*
X-37379Y112589D01*
X-37962Y111500D01*
X-38745Y110545D01*
X-39700Y109762D01*
X-40789Y109179D01*
X-41971Y108821D01*
X-43200Y108700D01*
X-44429Y108821D01*
X-45611Y109179D01*
X-46700Y109762D01*
X-47655Y110545D01*
X-48438Y111500D01*
X-49021Y112589D01*
X-49379Y113771D01*
X-49500Y114998D01*
X-49500Y126002D01*
X-49379Y127229D01*
X-49021Y128411D01*
X-48438Y129500D01*
X-47655Y130455D01*
X-46700Y131238D01*
X-45611Y131821D01*
X-44429Y132179D01*
G37*
G36*
X41971Y132179D02*
X43200Y132300D01*
X44429Y132179D01*
X45611Y131821D01*
X46700Y131238D01*
X47655Y130455D01*
X48438Y129500D01*
X49021Y128411D01*
X49379Y127229D01*
X49500Y126002D01*
X49500Y114998D01*
X49379Y113771D01*
X49021Y112589D01*
X48438Y111500D01*
X47655Y110545D01*
X46700Y109762D01*
X45611Y109179D01*
X44429Y108821D01*
X43200Y108700D01*
X41971Y108821D01*
X40789Y109179D01*
X39700Y109762D01*
X38745Y110545D01*
X37962Y111500D01*
X37379Y112589D01*
X37021Y113771D01*
X36900Y114998D01*
X36900Y126002D01*
X37021Y127229D01*
X37379Y128411D01*
X37962Y129500D01*
X38745Y130455D01*
X39700Y131238D01*
X40789Y131821D01*
X41971Y132179D01*
G37*
G36*
X-44429Y172179D02*
X-43200Y172300D01*
X-41971Y172179D01*
X-40789Y171821D01*
X-39700Y171238D01*
X-38745Y170455D01*
X-37962Y169500D01*
X-37379Y168411D01*
X-37021Y167229D01*
X-36900Y166002D01*
X-36900Y157998D01*
X-37021Y156771D01*
X-37379Y155589D01*
X-37962Y154500D01*
X-38745Y153545D01*
X-39700Y152762D01*
X-40789Y152179D01*
X-41971Y151821D01*
X-43200Y151700D01*
X-44429Y151821D01*
X-45611Y152179D01*
X-46700Y152762D01*
X-47655Y153545D01*
X-48438Y154500D01*
X-49021Y155589D01*
X-49379Y156771D01*
X-49500Y157998D01*
X-49500Y166002D01*
X-49379Y167229D01*
X-49021Y168411D01*
X-48438Y169500D01*
X-47655Y170455D01*
X-46700Y171238D01*
X-45611Y171821D01*
X-44429Y172179D01*
G37*
G36*
X41971Y172179D02*
X43200Y172300D01*
X44429Y172179D01*
X45611Y171821D01*
X46700Y171238D01*
X47655Y170455D01*
X48438Y169500D01*
X49021Y168411D01*
X49379Y167229D01*
X49500Y166002D01*
X49500Y157998D01*
X49379Y156771D01*
X49021Y155589D01*
X48438Y154500D01*
X47655Y153545D01*
X46700Y152762D01*
X45611Y152179D01*
X44429Y151821D01*
X43200Y151700D01*
X41971Y151821D01*
X40789Y152179D01*
X39700Y152762D01*
X38745Y153545D01*
X37962Y154500D01*
X37379Y155589D01*
X37021Y156771D01*
X36900Y157998D01*
X36900Y166002D01*
X37021Y167229D01*
X37379Y168411D01*
X37962Y169500D01*
X38745Y170455D01*
X39700Y171238D01*
X40789Y171821D01*
X41971Y172179D01*
G37*
G36*
X-133177Y-155462D02*
X-133177Y-148604D01*
X-121493Y-148604D01*
X-121493Y-155462D01*
X-133177Y-155462D01*
G37*
G36*
X-98507Y-155462D02*
X-98507Y-148604D01*
X-86823Y-148604D01*
X-86823Y-155462D01*
X-98507Y-155462D01*
G37*
G36*
X-22177Y-155462D02*
X-22177Y-148604D01*
X-10493Y-148604D01*
X-10493Y-155462D01*
X-22177Y-155462D01*
G37*
G36*
X12493Y-155462D02*
X12493Y-148604D01*
X24177Y-148604D01*
X24177Y-155462D01*
X12493Y-155462D01*
G37*
G36*
X86823Y-155462D02*
X86823Y-148604D01*
X98507Y-148604D01*
X98507Y-155462D01*
X86823Y-155462D01*
G37*
G36*
X121493Y-155462D02*
X121493Y-148604D01*
X133177Y-148604D01*
X133177Y-155462D01*
X121493Y-155462D01*
G37*
D10*
X150000Y155000D03*
X120000Y155000D03*
D11*
X88150Y2000D03*
X91850Y2000D03*
D12*
X-164000Y-149000D03*
X-164000Y-159000D03*
D13*
X-1000Y56850D03*
X-1000Y53150D03*
D11*
X44150Y25000D03*
X47850Y25000D03*
X107150Y-24000D03*
X110850Y-24000D03*
D13*
X18000Y45150D03*
X18000Y48850D03*
D14*
X106000Y-41000D03*
X116000Y-41000D03*
D12*
X-14000Y58000D03*
X-14000Y48000D03*
D13*
X-23000Y56850D03*
X-23000Y53150D03*
X79000Y82850D03*
X79000Y79150D03*
X36000Y80850D03*
X36000Y77150D03*
D11*
X-55150Y25000D03*
X-58850Y25000D03*
D13*
X113000Y24850D03*
X113000Y21150D03*
D12*
X-72000Y-165000D03*
X-72000Y-155000D03*
X-32000Y-42000D03*
X-32000Y-52000D03*
X-23000Y-63000D03*
X-23000Y-73000D03*
D13*
X164000Y115850D03*
X164000Y112150D03*
D11*
X-120850Y107000D03*
X-117150Y107000D03*
D15*
X-119000Y79000D03*
X-119000Y89000D03*
X-139000Y118000D03*
X-139000Y108000D03*
D11*
X-99150Y82000D03*
X-102850Y82000D03*
X69150Y-138000D03*
X72850Y-138000D03*
D13*
X128000Y112150D03*
X128000Y115850D03*
X-40000Y-159850D03*
X-40000Y-156150D03*
X-149000Y-147850D03*
X-149000Y-144150D03*
D11*
X191850Y114000D03*
X188150Y114000D03*
D15*
X-139000Y79000D03*
X-139000Y89000D03*
D13*
X189000Y80150D03*
X189000Y83850D03*
X-147000Y141150D03*
X-147000Y144850D03*
D11*
X-112850Y161000D03*
X-109150Y161000D03*
D14*
X-142000Y160000D03*
X-132000Y160000D03*
D13*
X153000Y115850D03*
X153000Y112150D03*
X64000Y149150D03*
X64000Y152850D03*
D12*
X78000Y152000D03*
X78000Y142000D03*
D11*
X-33150Y25000D03*
X-36850Y25000D03*
D12*
X-60000Y-13000D03*
X-60000Y-23000D03*
D13*
X8000Y-47150D03*
X8000Y-50850D03*
D11*
X107150Y-32000D03*
X110850Y-32000D03*
X45150Y1000D03*
X48850Y1000D03*
D16*
X-35500Y-110000D03*
X-70500Y-110000D03*
D17*
X-86500Y134500D03*
X-77000Y134500D03*
X-67500Y134500D03*
X-67500Y159500D03*
X-77000Y159500D03*
X-86500Y159500D03*
D16*
X-70500Y-129000D03*
X-35500Y-129000D03*
X-70500Y-91000D03*
X-35500Y-91000D03*
D11*
X-97150Y38000D03*
X-100850Y38000D03*
X-96150Y-46000D03*
X-99850Y-46000D03*
X-96150Y-53000D03*
X-99850Y-53000D03*
X-96150Y-60000D03*
X-99850Y-60000D03*
X-97150Y45000D03*
X-100850Y45000D03*
X-69150Y-39000D03*
X-72850Y-39000D03*
X-69150Y-46000D03*
X-72850Y-46000D03*
X-69150Y-53000D03*
X-72850Y-53000D03*
X-69150Y-60000D03*
X-72850Y-60000D03*
X-96150Y-39000D03*
X-99850Y-39000D03*
D18*
X-167000Y153000D03*
X-163000Y153000D03*
X-167000Y149000D03*
X-163000Y149000D03*
X-167000Y145000D03*
X-163000Y145000D03*
X-167000Y141000D03*
X-163000Y141000D03*
D19*
X183000Y103000D03*
X188000Y103000D03*
X193000Y103000D03*
X183000Y98000D03*
X188000Y98000D03*
X193000Y98000D03*
X183000Y93000D03*
X188000Y93000D03*
X193000Y93000D03*
D20*
X-69500Y-750D03*
X-64500Y-750D03*
X-59500Y-750D03*
X-54500Y-750D03*
D21*
X-54250Y4500D03*
X-54250Y9500D03*
D20*
X-54500Y14750D03*
X-59500Y14750D03*
X-64500Y14750D03*
X-69500Y14750D03*
D21*
X-69750Y9500D03*
X-69750Y4500D03*
D22*
X-165000Y106000D03*
X-161000Y106000D03*
X-157000Y106000D03*
X-165000Y102000D03*
X-161000Y102000D03*
X-157000Y102000D03*
X-165000Y98000D03*
X-161000Y98000D03*
X-157000Y98000D03*
X-165000Y94000D03*
X-161000Y94000D03*
X-157000Y94000D03*
X-165000Y90000D03*
X-161000Y90000D03*
X-157000Y90000D03*
D23*
X-123750Y57500D03*
X-123750Y52500D03*
X-123750Y47500D03*
X-123750Y42500D03*
X-123750Y37500D03*
X-123750Y32500D03*
X-123750Y27500D03*
X-123750Y22500D03*
X-123750Y17500D03*
X-123750Y12500D03*
X-123750Y7500D03*
X-123750Y2500D03*
X-123750Y-2500D03*
X-123750Y-7500D03*
X-123750Y-12500D03*
X-123750Y-17500D03*
X-123750Y-22500D03*
X-123750Y-27500D03*
X-123750Y-32500D03*
X-123750Y-37500D03*
X-123750Y-42500D03*
X-123750Y-47500D03*
X-123750Y-52500D03*
X-123750Y-57500D03*
D24*
X-150250Y65400D03*
X-150250Y-65400D03*
D25*
X153470Y-30350D03*
X153470Y-17650D03*
X166170Y-30350D03*
X166170Y-17650D03*
X178880Y-30350D03*
X178880Y-17650D03*
D26*
X140770Y-49400D03*
D27*
X140770Y-24000D03*
D26*
X140770Y1400D03*
X172520Y-49400D03*
X172520Y1400D03*
D27*
X191570Y-34160D03*
X191570Y-13840D03*
D28*
X2500Y114750D03*
X7500Y114750D03*
X12500Y114750D03*
X17500Y114750D03*
X-2500Y114750D03*
X-7500Y114750D03*
X-12500Y114750D03*
X-17500Y114750D03*
D29*
X28900Y125500D03*
X-28900Y125500D03*
D30*
X32000Y114750D03*
X24000Y114750D03*
X-24000Y114750D03*
X-32000Y114750D03*
D31*
X43200Y162000D03*
X-43200Y162000D03*
X43200Y120500D03*
X-43200Y120500D03*
D32*
X141000Y111450D03*
X141000Y116550D03*
X-30000Y41450D03*
X-30000Y46550D03*
X-30000Y52450D03*
X-30000Y57550D03*
D33*
X-212860Y-101000D03*
X-167140Y-101000D03*
D34*
X-214280Y87000D03*
X-193720Y87000D03*
D35*
X46500Y-126000D03*
X65500Y-126000D03*
X56000Y-105000D03*
D36*
X-125500Y-94500D03*
X-125500Y-107500D03*
X-104500Y-101000D03*
D37*
X-198750Y129000D03*
X-193250Y129000D03*
X-180250Y108000D03*
X-185750Y108000D03*
X-149750Y-122000D03*
X-144250Y-122000D03*
D38*
X12000Y86250D03*
X12000Y91750D03*
D37*
X-211750Y126000D03*
X-206250Y126000D03*
X-148750Y-84000D03*
X-143250Y-84000D03*
D38*
X-17000Y91750D03*
X-17000Y86250D03*
D37*
X-77250Y-1000D03*
X-82750Y-1000D03*
X-198750Y137000D03*
X-193250Y137000D03*
D38*
X-34000Y-156250D03*
X-34000Y-161750D03*
D37*
X75750Y-145000D03*
X70250Y-145000D03*
D38*
X-143000Y-144250D03*
X-143000Y-149750D03*
D37*
X-185750Y132000D03*
X-180250Y132000D03*
D38*
X47000Y-142250D03*
X47000Y-147750D03*
D37*
X-144250Y-112000D03*
X-149750Y-112000D03*
D39*
X-189000Y-143000D03*
D40*
X-196620Y-143000D03*
X-181380Y-143000D03*
D41*
X124002Y-132285D03*
X95998Y-132285D03*
D42*
X128478Y-145810D03*
X91522Y-145810D03*
D43*
X110000Y-130761D03*
D41*
X-95998Y-132285D03*
X-124002Y-132285D03*
D42*
X-91522Y-145810D03*
X-128478Y-145810D03*
D43*
X-110000Y-130761D03*
D41*
X15002Y-132285D03*
X-13002Y-132285D03*
D42*
X19478Y-145810D03*
X-17478Y-145810D03*
D43*
X1000Y-130761D03*
D44*
X180000Y34000D03*
X179000Y-110000D03*
X81000Y109000D03*
X152000Y34000D03*
X208000Y65000D03*
X141000Y83000D03*
X208000Y34000D03*
X-187000Y150000D03*
X-208000Y112000D03*
X181000Y66000D03*
X206000Y-80000D03*
X179000Y-80000D03*
X-122000Y139000D03*
X-97000Y68000D03*
D45*
X5000Y3000D03*
D18*
X-22500Y3000D03*
X-22500Y8000D03*
X-22500Y13000D03*
X-22500Y18000D03*
X-22500Y23000D03*
X-27500Y25500D03*
X-27500Y15500D03*
X-27500Y10500D03*
X-27500Y5500D03*
X-27500Y500D03*
X-22500Y-2000D03*
X-22500Y-7000D03*
X-27500Y-4500D03*
X-27500Y-9500D03*
X-27500Y-14500D03*
X-22500Y-17000D03*
X-22500Y-22000D03*
X-22500Y-29500D03*
X-17500Y-29500D03*
X-15000Y-24500D03*
X-12500Y-29500D03*
X-7500Y-29500D03*
X-2500Y-29500D03*
X2500Y-29500D03*
X7500Y-29500D03*
X12500Y-29500D03*
X17500Y-29500D03*
X22500Y-29500D03*
X27500Y-29500D03*
X32500Y-29500D03*
X25000Y-24500D03*
X20000Y-24500D03*
X15000Y-24500D03*
X10000Y-24500D03*
X5000Y-24500D03*
X0Y-24500D03*
X-5000Y-24500D03*
X32500Y-17000D03*
X37500Y-19500D03*
X37500Y-24500D03*
X37500Y-14500D03*
X32500Y-12000D03*
X37500Y-9500D03*
X32500Y-7000D03*
X32500Y-2000D03*
X37500Y-4500D03*
X37500Y500D03*
X37500Y5500D03*
X37500Y10500D03*
X32500Y13000D03*
X32500Y18000D03*
X37500Y20500D03*
X32500Y23000D03*
X37500Y30500D03*
X-27500Y30500D03*
X-15000Y30500D03*
X-10000Y30500D03*
X-5000Y30500D03*
X-2500Y35500D03*
X0Y30500D03*
X2500Y35500D03*
X5000Y30500D03*
X7500Y35500D03*
X10000Y30500D03*
X12500Y35500D03*
X15000Y30500D03*
X17500Y35500D03*
X20000Y30500D03*
X22500Y35500D03*
X27500Y35500D03*
X32500Y35500D03*
X-20000Y30500D03*
X-7500Y35500D03*
D46*
X-96382Y105482D02*
X-103318Y105482D01*
X-103318Y107518D01*
X-96382Y107518D01*
X-96382Y105482D01*
X-96382Y100482D02*
X-103318Y100482D01*
X-103318Y102518D01*
X-96382Y102518D01*
X-96382Y100482D01*
X-96382Y95482D02*
X-103318Y95482D01*
X-103318Y97518D01*
X-96382Y97518D01*
X-96382Y95482D01*
X-96382Y90482D02*
X-103318Y90482D01*
X-103318Y92518D01*
X-96382Y92518D01*
X-96382Y90482D01*
X-83618Y90482D02*
X-76682Y90482D01*
X-83618Y90482D02*
X-83618Y92518D01*
X-76682Y92518D01*
X-76682Y90482D01*
X-76682Y95482D02*
X-83618Y95482D01*
X-83618Y97518D01*
X-76682Y97518D01*
X-76682Y95482D01*
X-76682Y100482D02*
X-83618Y100482D01*
X-83618Y102518D01*
X-76682Y102518D01*
X-76682Y100482D01*
X-76682Y105482D02*
X-83618Y105482D01*
X-83618Y107518D01*
X-76682Y107518D01*
X-76682Y105482D01*
D47*
X-90000Y99000D03*
D48*
X86750Y14250D03*
X101250Y14250D03*
X101250Y25750D03*
X86750Y25750D03*
X69250Y82750D03*
X54750Y82750D03*
X54750Y71250D03*
X69250Y71250D03*
D49*
X-139000Y-99000D03*
X-134000Y48000D03*
D50*
X-70000Y-16000D03*
D49*
X128000Y128000D03*
X151000Y128000D03*
X26000Y-124000D03*
X56000Y-80000D03*
X-132000Y152000D03*
X-137000Y135000D03*
X66000Y117000D03*
X57000Y105000D03*
X-89000Y-123000D03*
X-32000Y20000D03*
X-65000Y22000D03*
X-86000Y6000D03*
X-1000Y48000D03*
X-55000Y-57000D03*
X-96000Y118000D03*
X192000Y108000D03*
X-20000Y38000D03*
X31000Y31000D03*
X53000Y25000D03*
X54000Y9000D03*
X119000Y-26000D03*
X172000Y-25000D03*
X5000Y48000D03*
X-48500Y56000D03*
X-110000Y28000D03*
X-133000Y-1000D03*
X5000Y30500D03*
X-48500Y48000D03*
X-110000Y22000D03*
X-111000Y-7000D03*
X-87000Y-110000D03*
X-132000Y-56000D03*
X-143000Y-78000D03*
X-133000Y53000D03*
X3000Y-42000D03*
X-96000Y17000D03*
X56000Y-94000D03*
X-77000Y-24000D03*
X-157000Y-137000D03*
X-157000Y-109000D03*
X-134000Y-17500D03*
X0Y-24500D03*
X-41000Y-29000D03*
X-22500Y8000D03*
X-39000Y16000D03*
X-97000Y9000D03*
X-103000Y3000D03*
X-1000Y-49000D03*
X-112000Y7000D03*
X-30000Y100000D03*
X-52000Y100000D03*
X-13000Y-63000D03*
X89000Y63000D03*
X36000Y-148000D03*
X-48000Y-167000D03*
X-143000Y-156000D03*
X-36000Y30500D03*
X-76000Y17000D03*
X-130000Y89000D03*
X103000Y-49000D03*
X13000Y-39000D03*
X-32000Y-23000D03*
X27000Y43000D03*
X129000Y-110000D03*
X78000Y-118000D03*
X155000Y54000D03*
X-69500Y26500D03*
X70000Y22000D03*
X68000Y33000D03*
X-12500Y-36000D03*
X-60000Y166000D03*
X-17500Y-37000D03*
X-96000Y160000D03*
X175000Y102000D03*
X-44000Y-4000D03*
X-22500Y-2000D03*
X-40000Y5000D03*
D50*
X-147000Y106000D03*
D51*
X-221000Y103000D03*
X-146000Y97000D03*
X-181000Y76000D03*
X-174000Y111000D03*
X-208000Y146000D03*
X-174000Y91000D03*
X-218000Y125000D03*
D49*
X-116000Y-118000D03*
X-202000Y-103000D03*
X54500Y35500D03*
X89000Y40000D03*
X55000Y29000D03*
X71000Y14500D03*
X-24000Y28000D03*
X-38000Y42000D03*
X-32000Y64000D03*
X71000Y91000D03*
X-27000Y21000D03*
X-39500Y48500D03*
X-42000Y60000D03*
X32000Y70000D03*
X-110000Y-122000D03*
X-5000Y-24500D03*
X-4500Y-76500D03*
X-4500Y-33500D03*
X32500Y-17000D03*
X33000Y-38000D03*
X86500Y-15500D03*
X96000Y-77000D03*
X-165000Y160000D03*
X-79000Y59000D03*
X-33000Y15000D03*
X-22500Y-7000D03*
X5000Y-24500D03*
X38000Y-42000D03*
X164000Y-70000D03*
X186000Y-24000D03*
X-83000Y13000D03*
X-72000Y92000D03*
X102000Y73000D03*
X-17000Y73000D03*
X-43000Y92000D03*
X-54000Y82000D03*
X-83000Y76000D03*
X-22500Y3000D03*
X-51000Y70000D03*
X-146000Y170500D03*
X-106000Y143000D03*
X-103000Y121000D03*
X-114000Y117000D03*
X-113000Y96000D03*
X-64000Y92000D03*
X-65000Y42000D03*
X-205000Y133000D03*
X-175000Y143000D03*
X188000Y98000D03*
X62000Y77500D03*
X-90000Y112000D03*
X102000Y-71000D03*
X112000Y-81000D03*
X-142000Y151000D03*
X-142000Y129000D03*
M02*
