G04 EAGLE Gerber RS-274X export*
G75*
%MOMM*%
%FSLAX34Y34*%
%LPD*%
%INSoldermask Bottom*%
%IPPOS*%
%AMOC8*
5,1,8,0,0,1.08239X$1,22.5*%
G01*
G04 Define Apertures*
%ADD10C,2.654200*%
%ADD11C,1.270200*%
%ADD12C,0.903200*%
%ADD13C,1.373200*%
%ADD14R,1.270000X1.270000*%
%ADD15C,0.503200*%
%ADD16C,0.553200*%
%ADD17C,0.653200*%
G36*
X-44429Y132179D02*
X-43200Y132300D01*
X-41971Y132179D01*
X-40789Y131821D01*
X-39700Y131238D01*
X-38745Y130455D01*
X-37962Y129500D01*
X-37379Y128411D01*
X-37021Y127229D01*
X-36900Y126002D01*
X-36900Y114998D01*
X-37021Y113771D01*
X-37379Y112589D01*
X-37962Y111500D01*
X-38745Y110545D01*
X-39700Y109762D01*
X-40789Y109179D01*
X-41971Y108821D01*
X-43200Y108700D01*
X-44429Y108821D01*
X-45611Y109179D01*
X-46700Y109762D01*
X-47655Y110545D01*
X-48438Y111500D01*
X-49021Y112589D01*
X-49379Y113771D01*
X-49500Y114998D01*
X-49500Y126002D01*
X-49379Y127229D01*
X-49021Y128411D01*
X-48438Y129500D01*
X-47655Y130455D01*
X-46700Y131238D01*
X-45611Y131821D01*
X-44429Y132179D01*
G37*
G36*
X41971Y132179D02*
X43200Y132300D01*
X44429Y132179D01*
X45611Y131821D01*
X46700Y131238D01*
X47655Y130455D01*
X48438Y129500D01*
X49021Y128411D01*
X49379Y127229D01*
X49500Y126002D01*
X49500Y114998D01*
X49379Y113771D01*
X49021Y112589D01*
X48438Y111500D01*
X47655Y110545D01*
X46700Y109762D01*
X45611Y109179D01*
X44429Y108821D01*
X43200Y108700D01*
X41971Y108821D01*
X40789Y109179D01*
X39700Y109762D01*
X38745Y110545D01*
X37962Y111500D01*
X37379Y112589D01*
X37021Y113771D01*
X36900Y114998D01*
X36900Y126002D01*
X37021Y127229D01*
X37379Y128411D01*
X37962Y129500D01*
X38745Y130455D01*
X39700Y131238D01*
X40789Y131821D01*
X41971Y132179D01*
G37*
G36*
X-44429Y172179D02*
X-43200Y172300D01*
X-41971Y172179D01*
X-40789Y171821D01*
X-39700Y171238D01*
X-38745Y170455D01*
X-37962Y169500D01*
X-37379Y168411D01*
X-37021Y167229D01*
X-36900Y166002D01*
X-36900Y157998D01*
X-37021Y156771D01*
X-37379Y155589D01*
X-37962Y154500D01*
X-38745Y153545D01*
X-39700Y152762D01*
X-40789Y152179D01*
X-41971Y151821D01*
X-43200Y151700D01*
X-44429Y151821D01*
X-45611Y152179D01*
X-46700Y152762D01*
X-47655Y153545D01*
X-48438Y154500D01*
X-49021Y155589D01*
X-49379Y156771D01*
X-49500Y157998D01*
X-49500Y166002D01*
X-49379Y167229D01*
X-49021Y168411D01*
X-48438Y169500D01*
X-47655Y170455D01*
X-46700Y171238D01*
X-45611Y171821D01*
X-44429Y172179D01*
G37*
G36*
X41971Y172179D02*
X43200Y172300D01*
X44429Y172179D01*
X45611Y171821D01*
X46700Y171238D01*
X47655Y170455D01*
X48438Y169500D01*
X49021Y168411D01*
X49379Y167229D01*
X49500Y166002D01*
X49500Y157998D01*
X49379Y156771D01*
X49021Y155589D01*
X48438Y154500D01*
X47655Y153545D01*
X46700Y152762D01*
X45611Y152179D01*
X44429Y151821D01*
X43200Y151700D01*
X41971Y151821D01*
X40789Y152179D01*
X39700Y152762D01*
X38745Y153545D01*
X37962Y154500D01*
X37379Y155589D01*
X37021Y156771D01*
X36900Y157998D01*
X36900Y166002D01*
X37021Y167229D01*
X37379Y168411D01*
X37962Y169500D01*
X38745Y170455D01*
X39700Y171238D01*
X40789Y171821D01*
X41971Y172179D01*
G37*
D10*
X140770Y-49400D03*
D11*
X140770Y-24000D03*
D10*
X140770Y1400D03*
X172520Y-49400D03*
X172520Y1400D03*
D11*
X191570Y-34160D03*
X191570Y-13840D03*
D12*
X28900Y125500D03*
X-28900Y125500D03*
D13*
X43200Y162000D03*
X-43200Y162000D03*
X43200Y120500D03*
X-43200Y120500D03*
D14*
X128478Y-145810D03*
X91522Y-145810D03*
X-91522Y-145810D03*
X-128478Y-145810D03*
X19478Y-145810D03*
X-17478Y-145810D03*
D15*
X-139000Y-99000D03*
X-134000Y48000D03*
D16*
X-70000Y-16000D03*
D15*
X128000Y128000D03*
X151000Y128000D03*
X26000Y-124000D03*
X56000Y-80000D03*
X-132000Y152000D03*
X-137000Y135000D03*
X66000Y117000D03*
X57000Y105000D03*
X-89000Y-123000D03*
X-32000Y20000D03*
X-65000Y22000D03*
X-86000Y6000D03*
X-1000Y48000D03*
X-55000Y-57000D03*
X-96000Y118000D03*
X192000Y108000D03*
X-20000Y38000D03*
X31000Y31000D03*
X53000Y25000D03*
X54000Y9000D03*
X119000Y-26000D03*
X172000Y-25000D03*
X5000Y48000D03*
X-48500Y56000D03*
X-110000Y28000D03*
X-133000Y-1000D03*
X5000Y30500D03*
X-48500Y48000D03*
X-110000Y22000D03*
X-111000Y-7000D03*
X-87000Y-110000D03*
X-132000Y-56000D03*
X-143000Y-78000D03*
X-133000Y53000D03*
X3000Y-42000D03*
X-96000Y17000D03*
X56000Y-94000D03*
X-77000Y-24000D03*
X-157000Y-137000D03*
X-157000Y-109000D03*
X-134000Y-17500D03*
X0Y-24500D03*
X-41000Y-29000D03*
X-22500Y8000D03*
X-39000Y16000D03*
X-97000Y9000D03*
X-103000Y3000D03*
X-1000Y-49000D03*
X-112000Y7000D03*
X-30000Y100000D03*
X-52000Y100000D03*
X-13000Y-63000D03*
X89000Y63000D03*
X36000Y-148000D03*
X-48000Y-167000D03*
X-143000Y-156000D03*
X-36000Y30500D03*
X-76000Y17000D03*
X-130000Y89000D03*
X103000Y-49000D03*
X13000Y-39000D03*
X-32000Y-23000D03*
X27000Y43000D03*
X129000Y-110000D03*
X78000Y-118000D03*
X155000Y54000D03*
X-69500Y26500D03*
X70000Y22000D03*
X68000Y33000D03*
X-12500Y-36000D03*
X-60000Y166000D03*
X-17500Y-37000D03*
X-96000Y160000D03*
X175000Y102000D03*
X-44000Y-4000D03*
X-22500Y-2000D03*
X-40000Y5000D03*
D16*
X-147000Y106000D03*
D17*
X-221000Y103000D03*
X-146000Y97000D03*
X-181000Y76000D03*
X-174000Y111000D03*
X-208000Y146000D03*
X-174000Y91000D03*
X-218000Y125000D03*
D15*
X-116000Y-118000D03*
X-202000Y-103000D03*
X54500Y35500D03*
X89000Y40000D03*
X55000Y29000D03*
X71000Y14500D03*
X-24000Y28000D03*
X-38000Y42000D03*
X-32000Y64000D03*
X71000Y91000D03*
X-27000Y21000D03*
X-39500Y48500D03*
X-42000Y60000D03*
X32000Y70000D03*
X-110000Y-122000D03*
X-5000Y-24500D03*
X-4500Y-76500D03*
X-4500Y-33500D03*
X32500Y-17000D03*
X33000Y-38000D03*
X86500Y-15500D03*
X96000Y-77000D03*
X-165000Y160000D03*
X-79000Y59000D03*
X-33000Y15000D03*
X-22500Y-7000D03*
X5000Y-24500D03*
X38000Y-42000D03*
X164000Y-70000D03*
X186000Y-24000D03*
X-83000Y13000D03*
X-72000Y92000D03*
X102000Y73000D03*
X-17000Y73000D03*
X-43000Y92000D03*
X-54000Y82000D03*
X-83000Y76000D03*
X-22500Y3000D03*
X-51000Y70000D03*
X-146000Y170500D03*
X-106000Y143000D03*
X-103000Y121000D03*
X-114000Y117000D03*
X-113000Y96000D03*
X-64000Y92000D03*
X-65000Y42000D03*
X-205000Y133000D03*
X-175000Y143000D03*
X188000Y98000D03*
X62000Y77500D03*
X-90000Y112000D03*
X102000Y-71000D03*
X112000Y-81000D03*
X-142000Y151000D03*
X-142000Y129000D03*
M02*
